<ttFont>
          <CharString index="0">
            50 13 13 12 9 hvcurveto
            83 107 5 1 12 vvcurveto
            11 -18 3 -36 -36 -33 -7 -20 -10 vhcurveto
            -40 -80 -16 -26 -11 vvcurveto
            -11 6 -4 23 vhcurveto
            return
          </CharString>
          <CharString index="1">
            rmoveto
            46 21 -86 callgsubr
            -21 11 -49 -46 -21 -11 -21 vhcurveto
            -60 vlineto
            -21 21 -11 49 vhcurveto
            return
          </CharString>
          <CharString index="2">
            -29 7 5 -22 24 19 callgsubr
            182 vlineto
            101 -52 72 -146 -79 -82 -31 -35 -21 31 -59 21 vhcurveto
            14 32 29 52 hhcurveto
            43 18 -21 -42 hvcurveto
            -16 vlineto
            -206 1 -27 -111 -76 vvcurveto
            return
          </CharString>
          <CharString index="3">
            -21 callsubr
            -8 15 -20 vhcurveto
            -177 162 156 hlineto
            20 9 15 35 hvcurveto
            31 -2 callgsubr
            -156 145 176 hlineto
            20 9 15 35 hvcurveto
            31 -2 callgsubr
            -295 -77 callsubr
            return
          </CharString>
          <CharString index="4">
            rmoveto
            24 -64 callgsubr
            329 vlineto
            23 -4 22 133 callsubr
            3 8 -21 8 -23 11 -20 rlinecurve
            191 -340 rlineto
            -24 11 19 -4 24 hhcurveto
            19 hlineto
            40 -23 callsubr
            640 16 callsubr
            -24 -87 callsubr
            -319 vlineto
            -26 4 -27 4 -26 vhcurveto
            -4 -2 -10 26 -10 26 -14 26 rlinecurve
            -180 326 rlineto
            25 -11 -19 3 -22 hhcurveto
            -26 -55 callgsubr
            return
          </CharString>
          <CharString index="5">
            rmoveto
            24 5 4 11 11 -13 25 -42 81 hvcurveto
            20 -11 -33 7 -36 hhcurveto
            -36 -18 -3 -11 -12 5 -2 84 -106 hvcurveto
            -11 8 13 -14 50 hhcurveto
            return
          </CharString>
          <CharString index="6">
            rmoveto
            83 callgsubr
            -251 96 -107 166 hvcurveto
            1 131 rmoveto
            -69 -35 49 178 178 35 48 69 68 34 -48 -178 -178 -34 -49 -68 hvcurveto
            return
          </CharString>
          <CharString index="7">
            rmoveto
            27 hlineto
            20 21 2 17 9 hvcurveto
            20 45 20 -46 rlineto
            -12 7 18 -6 26 hhcurveto
            28 hlineto
            12 8 3 7 4 -2 5 -3 6 hvcurveto
            -56 102 rlineto
            18 -10 -20 1 -27 hhcurveto
            -2 hlineto
            -26 -21 -1 -18 -10 hvcurveto
            -55 -102 rlineto
            -3 121 callgsubr
            16 vhcurveto
            return
          </CharString>
          <CharString index="8">
            rmoveto
            -28 hlineto
            -42 -25 callgsubr
            -281 vlineto
            -27 -10 -16 -31 -34 hhcurveto
            -37 -17 20 36 hvcurveto
            283 -100 callgsubr
            -305 vlineto
            -104 46 -52 98 53 40 23 35 25 vhcurveto
            -47 vlineto
            -74 -33 -37 -68 vhcurveto
            -77 -50 40 -12 hhcurveto
            -9 -10 -11 -27 -11 1 -20 2 -17 hvcurveto
            -43 7 89 -28 97 hhcurveto
            149 62 92 190 hvcurveto
            396 40 callgsubr
            return
          </CharString>
          <CharString index="9">
            -135 -69 -95 -174 -174 70 -96 134 hvcurveto
            -91 callgsubr
            return
          </CharString>
          <CharString index="10">
            hlineto
            -40 -25 callgsubr
            -455 vlineto
            -53 -33 -39 -52 -53 -32 39 53 vhcurveto
            455 vlineto
            11 callgsubr
            -465 vlineto
            return
          </CharString>
          <CharString index="11">
            -106 callgsubr
            hintmask 11101100
            -90 callgsubr
            endchar
          </CharString>
          <CharString index="12">
            301 57 callsubr
            17 -2 callgsubr
            -149 hlineto
            170 314 rlineto
            2 4 1 4 7 vvcurveto
            28 -18 49 -9 vhcurveto
            -285 hlineto
            -20 7 callgsubr
            20 vhcurveto
            132 hlineto
            -170 -316 rlineto
            -1 -3 -1 -5 -6 vvcurveto
            -26 14 -50 13 vhcurveto
            return
          </CharString>
          <CharString index="13">
            rmoveto
            66 hlineto
            26 16 7 14 3 hvcurveto
            69 353 12 107 11 -107 68 -353 rlineto
            -14 3 16 -7 26 hhcurveto
            66 hlineto
            30 14 7 14 3 hvcurveto
            133 642 rlineto
            1 6 0 5 4 vvcurveto
            16 -18 10 -41 vhcurveto
            -23 hlineto
            -40 -21 -10 -21 -3 hvcurveto
            -48 -369 -6 -46 -6 -54 -8 -53 rlinecurve
            -8 53 -7 54 -7 46 -60 379 rcurveline
            16 -3 -12 5 -32 hhcurveto
            -50 hlineto
            -32 -12 -5 -16 -3 hvcurveto
            -61 -379 -7 -44 -9 -53 -7 -53 rlinecurve
            -7 53 -5 53 -6 44 -47 369 rcurveline
            21 -3 -21 10 -40 hhcurveto
            -29 hlineto
            -41 -18 -10 -16 -4 -1 -5 1 -6 hvcurveto
            131 -642 rlineto
            -14 3 13 -7 31 hhcurveto
            endchar
          </CharString>
          <CharString index="14">
            -344 vlineto
            -14 -7 -18 -21 -26 hhcurveto
            -29 -10 18 31 hvcurveto
            330 -100 callgsubr
            -349 vlineto
            -104 38 -49 83 vhcurveto
            60 1 43 40 22 43 rrcurveto
            -42 vlineto
            -82 -41 -46 -67 vhcurveto
            -65 -42 35 -10 hhcurveto
            -7 -6 -10 -30 -12 1 -16 2 -19 hvcurveto
            -38 4 72 -26 89 hhcurveto
            return
          </CharString>
          <CharString index="15">
            386 hlineto
            20 9 15 35 hvcurveto
            31 -2 callgsubr
            -225 hlineto
            253 469 rlineto
            1 2 -2 2 4 vvcurveto
            26 -19 66 -18 vhcurveto
            -365 hlineto
            -20 -8 -15 -35 hvcurveto
            -31 vlineto
            -35 8 -15 20 vhcurveto
            205 hlineto
            -254 -470 rlineto
            -1 -2 0 -4 -4 vvcurveto
            -27 21 -62 18 vhcurveto
            return
          </CharString>
          <CharString index="16">
            1 -27 -55 28 -34 hhcurveto
            -45 -31 -31 -38 -14 -57 callgsubr
            18 -5 vhcurveto
            return
          </CharString>
          <CharString index="17">
            -89 callgsubr
            endchar
          </CharString>
          <CharString index="18">
            -95 47 -62 90 vhcurveto
            45 107 rmoveto
            -32 -17 25 36 63 callsubr
            hvcurveto
            -117 vlineto
            -20 -10 -20 -13 -21 hhcurveto
            return
          </CharString>
          <CharString index="19">
            -87 callgsubr
            endchar
          </CharString>
          <CharString index="20">
            hlineto
            -41 -17 -71 callgsubr
            return
          </CharString>
          <CharString index="21">
            rmoveto
            -44 callgsubr
            -79 callsubr
            return
          </CharString>
          <CharString index="22">
            30 -21 53 -26 -6 -5 -1 -4 -5 vhcurveto
            -32 -22 rlineto
            -8 -5 -3 -7 -7 return
          </CharString>
          <CharString index="23">
            rmoveto
            50 13 13 12 10 hvcurveto
            82 107 5 1 12 vvcurveto
            11 -18 3 -36 -36 -34 -6 -21 -10 vhcurveto
            -37 93 callgsubr
            5 -4 24 vhcurveto
            165 hmoveto
            51 12 13 12 9 hvcurveto
            83 107 5 1 12 vvcurveto
            11 -18 3 -36 -36 -33 -6 -21 -10 vhcurveto
            -38 93 callgsubr
            6 -4 23 vhcurveto
            return
          </CharString>
          <CharString index="24">
            rmoveto
            29 60 78 67 25 -12 19 -33 hvcurveto
            -20 hlineto
            -41 -17 -17 -27 hvcurveto
            -80 -10 -25 -18 vvcurveto
            -16 26 -6 18 vhcurveto
            return
          </CharString>
          <CharString index="25">
            -1 4 5 -1 4 hhcurveto
            12 7 6 11 9 hvcurveto
            15 10 9 1 6 hhcurveto
            return
          </CharString>
          <CharString index="26">
            578 -106 callsubr
            return
          </CharString>
          <CharString index="27">
            rmoveto
            33 hlineto
            29 9 7 14 3 hvcurveto
            hintmask 01101100
            62 263 3 16 2 45 3 16 rlinecurve
            4 hlineto
            3 -16 2 -45 3 -16 63 -263 rcurveline
            -14 3 8 -7 31 hhcurveto
            32 hlineto
            26 13 7 14 2 hvcurveto
            104 465 rlineto
            1 6 0 5 4 vvcurveto
            16 -18 10 -43 -44 -21 -7 -14 -2 vhcurveto
            -27 -247 rlineto
            hintmask 10011100
            -3 -23 -4 -65 -3 -23 rrcurveto
            -4 hlineto
            -3 28 -7 58 -5 28 -42 244 rcurveline
            14 -2 -23 7 -27 hhcurveto
            -26 hlineto
            -28 -22 -7 -14 -2 hvcurveto
            -42 -242 -5 -29 -8 -58 -3 -29 rlinecurve
            -4 hlineto
            -10 111 -26 247 rlineto
            14 -1 -22 7 -49 hhcurveto
            -43 -18 -10 -16 -4 0 -5 1 -6 hvcurveto
            106 -465 rlineto
            hintmask 01011100
            -14 3 10 -7 28 hhcurveto
            endchar
          </CharString>
          <CharString index="28">
            463 -100 callgsubr
            -463 -38 callgsubr
            return
          </CharString>
          <CharString index="29">
            15 35 hvcurveto
            -21 callsubr
            return
          </CharString>
          <CharString index="30">
            -59 callgsubr
            -37 callsubr
            return
          </CharString>
          <CharString index="31">
            rmoveto
            hintmask 11111000
            111 63 72 97 81 -44 36 -40 26 hvcurveto
            hintmask 11110000
            -37 24 -38 13 35 vvcurveto
            24 16 10 25 vhcurveto
            32 23 -18 9 hhcurveto
            17 24 57 24 43 -81 15 -49 -97 -68 -59 -102 -90 52 -34 42 -25 hvcurveto
            hintmask 11111000
            -49 callgsubr
            hintmask 11110000
            -42 78 -23 63 vhcurveto
            endchar
          </CharString>
          <CharString index="32">
            -51 -71 callsubr
            150 90 78 135 vhcurveto
            return
          </CharString>
          <CharString index="33">
            21 -19 -35 31 -48 hhcurveto
            -95 -65 -87 -174 -125 32 -141 124 41 31 22 31 20 hvcurveto
            -30 vlineto
            -80 1 -30 -42 -59 -60 -38 34 -13 hhcurveto
            -10 -6 -13 -25 -15 2 -19 5 -17 hvcurveto
            -36 8 73 -26 84 hhcurveto
            136 55 95 199 hvcurveto
            return
          </CharString>
          <CharString index="34">
            53 -190 rlineto
            -20 5 23 -7 32 hhcurveto
            35 hlineto
            43 19 10 17 3 -2 5 -1 4 hvcurveto
            -59 192 -12 41 -25 42 -30 17 rlinecurve
            4 vlineto
            55 30 40 50 89 vvcurveto
            151 -93 46 -111 vhcurveto
            -167 hlineto
            -28 -12 -12 -28 hvcurveto
            return
          </CharString>
          <CharString index="35">
            vlineto
            -67 callgsubr
            return
          </CharString>
          <CharString index="36">
            -97 callsubr
            -9 callsubr
            return
          </CharString>
          <CharString index="37">
            268 hlineto
            -48 callgsubr
            -149 539 hlineto
            2 callgsubr
            -37 callsubr
            return
          </CharString>
          <CharString index="38">
            -60 14 -55 0 39 vvcurveto
            23 18 11 30 1 vhcurveto
            95 3 68 56 111 vvcurveto
            29 -7 26 -10 15 vhcurveto
            2 4 rlineto
            -2 8 17 -2 9 hhcurveto
            16 7 13 30 hvcurveto
            16 vlineto
            31 -8 14 -19 vhcurveto
            -130 hlineto
            return
          </CharString>
          <CharString index="39">
            -24 47 4 -24 vvcurveto
            -12 -9 -4 -11 vhcurveto
            -29 -18 21 -18 hhcurveto
            -10 -22 -16 -26 -27 48 -25 58 62 42 30 60 44 -27 24 -37 6 hvcurveto
            return
          </CharString>
          <CharString index="40">
            70 5 31 36 53 vvcurveto
            -85 callsubr
            -14 27 -15 -28 vvcurveto
            -20 -10 -11 -25 -13 -12 2 9 -13 vhcurveto
            return
          </CharString>
          <CharString index="41">
            rmoveto
            27 hlineto
            28 8 5 14 13 hvcurveto
            22 39 21 -40 rlineto
            -13 11 9 -5 29 hhcurveto
            28 hlineto
            13 7 4 6 3 -4 11 -5 7 hvcurveto
            -51 74 rlineto
            15 -11 -14 4 -32 hhcurveto
            -2 hlineto
            -32 -15 -4 -15 -11 hvcurveto
            -51 -74 rlineto
            -4 -7 -5 -11 -3 vvcurveto
            -8 6 -2 15 vhcurveto
            return
          </CharString>
          <CharString index="42">
            rmoveto
            63 36 42 57 58 -36 42 -63 -62 -36 -42 -58 -57 36 -42 62 hvcurveto
            1 62 rmoveto
            -24 -13 13 23 23 13 14 24 23 14 -14 -23 -23 -14 -13 -23 hvcurveto
            return
          </CharString>
          <CharString index="43">
            315 vlineto
            28 7 18 22 26 20 13 -8 14 hhcurveto
            17 9 70 20 20 -7 34 -45 -43 -22 -38 -38 -15 hvcurveto
            25 -6 -2 42 -32 hhcurveto
            -25 -87 -8 -24 hvcurveto
            -20 12 -21 -100 vvcurveto
            -319 vlineto
            return
          </CharString>
          <CharString index="44">
            139 293 rmoveto
            19 hlineto
            26 8 7 12 hvcurveto
            378 vlineto
            7 -15 7 -6 vhcurveto
            -137 -25 rlineto
            -10 -2 -4 -6 -9 vvcurveto
            -16 3 -34 16 vhcurveto
            65 12 rlineto
            -312 vlineto
            -12 10 -7 25 vhcurveto
            return
          </CharString>
          <CharString index="45">
            -30 callgsubr
            11 return
          </CharString>
          <CharString index="46">
            -11 -36 -29 -49 hhcurveto
            -45 -32 22 72 -3 hvcurveto
            return
          </CharString>
          <CharString index="47">
            11 21 hvcurveto
            return
          </CharString>
          <CharString index="48">
            190 hlineto
            176 77 118 232 232 -77 118 -176 hvcurveto
            -190 -77 callsubr
            return
          </CharString>
          <CharString index="49">
            rmoveto
            39 17 -86 callgsubr
            -17 11 -41 return
          </CharString>
          <CharString index="50">
            hlineto
            42 -23 callsubr
            return
          </CharString>
          <CharString index="51">
            rmoveto
            17 22 14 8 10 hvcurveto
            20 16 6 15 16 vvcurveto
            40 -35 26 -58 -35 -45 -15 131 callsubr
            9 0 11 17 33 10 11 -6 0 hflex1
            -14 -12 -5 -19 -9 vhcurveto
            -10 -5 -9 -7 -4 vvcurveto
            -11 17 -10 27 vhcurveto
            return
          </CharString>
          <CharString index="52">
            vvcurveto
            319 5 callgsubr
            -39 -18 -10 -22 hvcurveto
            return
          </CharString>
          <CharString index="53">
            vlineto
            -35 9 -15 20 vhcurveto
            return
          </CharString>
          <CharString index="54">
            21 -8 callgsubr
            17 -2 callsubr
            return
          </CharString>
          <CharString index="55">
            rmoveto
            43 65 rlineto
            6 8 1 5 6 vvcurveto
            18 -34 23 -17 -10 -6 -6 -10 -7 vhcurveto
            -32 -48 rlineto
            28 -40 -50 14 -59 105 callsubr
            -103 16 -79 31 -57 hvcurveto
            -49 -75 rlineto
            -4 -6 -3 -7 -5 vvcurveto
            -18 33 -23 18 8 9 5 11 7 vhcurveto
            34 51 rlineto
            -35 42 54 -17 66 hhcurveto
            -43 callgsubr
            113 -19 84 -37 58 hvcurveto
            -308 -255 rmoveto
            178 35 48 69 29 23 -9 -23 16 vhcurveto
            -170 -260 rlineto
            -1 20 -1 22 24 vvcurveto
            104 -227 rmoveto
            -35 -27 13 37 -17 hvcurveto
            177 270 rlineto
            3 -26 1 -31 -36 vvcurveto
            -178 -34 -49 -68 vhcurveto
            endchar
          </CharString>
          <CharString index="56">
            44 94 123 112 25 -18 19 -42 hvcurveto
            93 callsubr
            -102 -24 -50 -13 -32 hvcurveto
            -5 -12 -2 -9 -8 vvcurveto
            return
          </CharString>
          <CharString index="57">
            hmoveto
            -92 callsubr
            return
          </CharString>
          <CharString index="58">
            33 -64 callgsubr
            92 -70 callgsubr
            vhcurveto
            -33 -14 callsubr
            return
          </CharString>
          <CharString index="59">
            19 -69 callgsubr
            return
          </CharString>
          <CharString index="60">
            -580 -96 callgsubr
          </CharString>
          <CharString index="61">
            rmoveto
            86 45 52 42 26 -18 8 -22 -14 -9 -7 -9 -4 hvcurveto
            -12 -7 -3 -24 -53 hhcurveto
            -50 -4 22 12 -7 hvcurveto
            10 -5 -9 8 -15 hhcurveto
            -22 -19 -8 -27 -42 46 -51 84 hvcurveto
            -195 return
          </CharString>
          <CharString index="62">
            -21 18 -11 42 vhcurveto
            return
          </CharString>
          <CharString index="63">
            34 14 21 31 41 vvcurveto
            63 -43 40 -67 -54 -51 -14 -29 -16 18 -29 11 vhcurveto
            9 11 18 34 hhcurveto
            29 15 -18 -29 -30 -21 -19 -35 hvcurveto
            -16 hlineto
            -12 -5 -9 -20 hvcurveto
            -11 vlineto
            return
          </CharString>
          <CharString index="64">
            131 453 132 return
          </CharString>
          <CharString index="65">
            rmoveto
            5 8 3 6 7 vvcurveto
            17 -36 24 -17 -6 -9 -4 -9 -6 vhcurveto
            -23 -33 rlineto
            18 -29 -36 9 -43 106 callgsubr
            -67 10 -56 21 -42 hvcurveto
            -35 -51 rlineto
            -6 -10 -3 -4 -7 vvcurveto
            -19 36 -24 16 6 8 4 9 6 vhcurveto
            24 35 rlineto
            -25 32 40 -13 49 hhcurveto
            -32 callgsubr
            76 -13 61 -26 44 hvcurveto
            -165 -29 rmoveto
            14 11 -5 -12 8 hvcurveto
            -88 -128 rlineto
            108 1 15 37 39 hhcurveto
            54 -152 rmoveto
            -113 -15 -40 -39 -20 -14 10 25 -9 vhcurveto
            97 139 rlineto
            endchar
          </CharString>
          <CharString index="66">
            98 callsubr
            12 hvcurveto
            1 4 2 4 7 vvcurveto
            11 -6 10 -15 5 vhcurveto
            -9 3 rlineto
            1 -4 -4 1 -5 hhcurveto
            -11 -7 -7 -10 -7 hvcurveto
            -15 -10 -7 -1 -6 hhcurveto
            return
          </CharString>
          <CharString index="67">
            148 hintmask 00000000
            hintmask 11011100
            114 -2 1 callsubr
            hintmask 10111101
            -73 callsubr
            hintmask 11011100
            -630 -38 callgsubr
            94 404 rmoveto
            hintmask 10111101
            18 callgsubr
            hintmask 10111010
            return
          </CharString>
          <CharString index="68">
            131 162 9 callsubr
            return
          </CharString>
          <CharString index="69">
            -9 -15 -35 hvcurveto
            return
          </CharString>
          <CharString index="70">
            -28 11 -12 26 vhcurveto
            return
          </CharString>
          <CharString index="71">
            -11 41 vhcurveto
            return
          </CharString>
          <CharString index="72">
            -8 -30 callsubr
            return
          </CharString>
          <CharString index="73">
            206 -2 -29 callsubr
            return
          </CharString>
          <CharString index="74">
            -8 -43 callsubr
            return
          </CharString>
          <CharString index="75">
            267 647 rlineto
            2 7 2 4 4 vvcurveto
            7 -6 4 -14 vhcurveto
            -16 hlineto
            -18 -17 -7 -19 -7 hvcurveto
            -265 -648 rlineto
            -3 -6 -3 -5 -4 vvcurveto
            return
          </CharString>
          <CharString index="76">
            60 vlineto
            21 return
          </CharString>
          <CharString index="77">
            107 -79 -21 250 86 79 117 return
          </CharString>
          <CharString index="78">
            rmoveto
            71 callgsubr
            539 112 vlineto
            -48 callgsubr
            -12 callgsubr
            -539 hlineto
            -67 callgsubr
            return
          </CharString>
          <CharString index="79">
            516 34 rmoveto
            -166 323 155 309 rlineto
            4 9 2 7 5 vvcurveto
            9 -16 6 -39 vhcurveto
            -55 hlineto
            -27 -17 -3 -16 -7 hvcurveto
            -135 -312 -4 1 rlineto
            298 vlineto
            21 -18 11 -41 vhcurveto
            -40 -55 callgsubr
            40 hlineto
            41 -23 callsubr
            300 vlineto
            3 1 136 -314 rlineto
            -15 7 19 -4 28 hhcurveto
            66 hlineto
            36 16 6 9 5 -1 7 -5 9 hvcurveto
            return
          </CharString>
          <CharString index="80">
            34 150 109 150 return
          </CharString>
          <CharString index="81">
            101 149 rlineto
            20 28 11 29 33 vvcurveto
            62 -41 44 -79 -53 -62 -19 -34 -15 16 -26 18 vhcurveto
            10 23 26 34 hhcurveto
            27 20 -13 -28 -18 -7 -17 -16 -24 hvcurveto
            -127 -185 rlineto
            -2 -2 0 -3 -4 vvcurveto
            return
          </CharString>
          <CharString index="82">
            12 -111 rlineto
            -21 2 7 -9 18 hhcurveto
            287 hlineto
            20 9 15 35 hvcurveto
            31 -2 callgsubr
            -180 hlineto
            -17 162 rlineto
            176 hlineto
            20 9 15 35 hvcurveto
            31 -2 callgsubr
            -193 hlineto
            -15 145 rlineto
            228 hlineto
            20 9 15 35 hvcurveto
            31 -2 callgsubr
            -392 hlineto
            -17 -11 -8 -19 -7 hvcurveto
            -246 -635 rlineto
            -2 -6 -1 -7 -5 vvcurveto
            -14 20 -8 39 vhcurveto
            return
          </CharString>
          <CharString index="83">
            -21 7 callgsubr
            21 vhcurveto
            return
          </CharString>
          <CharString index="84">
            18 -60 callsubr
            return
          </CharString>
          <CharString index="85">
            117 305 117 return
          </CharString>
          <CharString index="86">
            31 vlineto
            35 return
          </CharString>
          <CharString index="87">
            -6 callgsubr
            314 vlineto
            return
          </CharString>
          <CharString index="88">
            -20 5 -9 12 vhcurveto
            21 hlineto
            46 18 -21 -39 -36 -21 -21 -33 hvcurveto
            -38 -23 24 -8 hhcurveto
            -14 -15 -33 -12 -36 77 -12 41 hvcurveto
            return
          </CharString>
          <CharString index="89">
            122 -101 -21 30 -21 525 -20 return
          </CharString>
          <CharString index="90">
            347 vlineto
            15 10 17 17 22 hhcurveto
            29 10 21 callsubr
            -40 48 -73 -57 -42 -32 -36 -26 vhcurveto
            return
          </CharString>
          <CharString index="91">
            -7 17 callgsubr
            return
          </CharString>
          <CharString index="92">
            21 -18 11 return
          </CharString>
          <CharString index="93">
            -87 callsubr
            -92 -72 callsubr
            return
          </CharString>
          <CharString index="94">
            64 73 29 139 139 -73 29 -64 -63 -73 -29 -139 -139 73 -29 63 hvcurveto
            return
          </CharString>
          <CharString index="95">
            18 hlineto
            21 10 9 21 3 hvcurveto
            9 59 13 109 8 vvcurveto
            -15 callsubr
            -42 vhcurveto
            -10 hlineto
            -42 -25 callgsubr
            -5 vlineto
            22 -171 rlineto
            -21 3 10 -9 21 hhcurveto
            return
          </CharString>
          <CharString index="96">
            88 135 callgsubr
            -23 callgsubr
            vstem
            return
          </CharString>
          <CharString index="97">
            88 -33 callsubr
            return
          </CharString>
          <CharString index="98">
            -135 91 -78 150 return
          </CharString>
          <CharString index="99">
            115 -2 -1 callgsubr
            return
          </CharString>
          <CharString index="100">
            rmoveto
            32 callgsubr
            18 82 49 53 49 -39 30 -72 -35 -45 -18 131 callsubr
            return
          </CharString>
          <CharString index="101">
            -57 4 callsubr
            return
          </CharString>
          <CharString index="102">
            -6 -5 -4 -13 hhcurveto
            -22 -27 6 38 return
          </CharString>
          <CharString index="103">
            -204 124 return
          </CharString>
          <CharString index="104">
            hlineto
            -24 callsubr
            return
          </CharString>
          <CharString index="105">
            -4 callgsubr
            -21 vhcurveto
            return
          </CharString>
          <CharString index="106">
            853 rmoveto
            19 6 4 11 9 -9 22 -25 66 hvcurveto
            21 -10 -32 6 -37 hhcurveto
            -28 -15 -4 -16 -10 9 -10 64 -80 hvcurveto
            -10 9 13 -9 36 hhcurveto
            return
          </CharString>
          <CharString index="107">
            rmoveto
            -1 4 3 -1 3 hhcurveto
            8 8 4 13 9 hvcurveto
            19 13 23 -3 10 hhcurveto
            hintmask 10101000
            26 81 -29 20 hhcurveto
            65 42 34 41 9 hvcurveto
            4 1 5 4 vvcurveto
            9 -5 8 -19 6 vhcurveto
            -9 3 rlineto
            2 -4 -3 0 -4 hhcurveto
            -7 -8 -4 -13 -9 hvcurveto
            -18 -12 -23 2 -10 hhcurveto
            return
          </CharString>
          <CharString index="108">
            69 callsubr
            226 24 vlineto
            35 11 -12 -28 11 hvcurveto
            return
          </CharString>
          <CharString index="109">
            14 -374 rmoveto
            33 hlineto
            20 13 9 19 9 hvcurveto
            278 641 rlineto
            3 6 1 5 4 vvcurveto
            12 -10 8 -17 vhcurveto
            -33 hlineto
            -20 -13 -9 -19 -8 hvcurveto
            -279 -641 rlineto
            -3 -6 60 callsubr
            -12 10 -8 17 vhcurveto
            -14 456 rmoveto
            -27 -7 24 62 hvcurveto
            return
          </CharString>
          <CharString index="110">
            -11 callsubr
            279 752 rmoveto
            -107 callsubr
            return
          </CharString>
          <CharString index="111">
            -8 -19 callgsubr
            return
          </CharString>
          <CharString index="112">
            -72 callgsubr
            362 vlineto
            return
          </CharString>
          <CharString index="113">
            -211 116 86 123 -102 -21 534 -20 return
          </CharString>
          <CharString index="114">
            -40 95 callgsubr
            99 121 289 117 -6 -20 26 -20 return
          </CharString>
          <CharString index="115">
            -79 rmoveto
            27 hlineto
            28 19 9 21 7 hvcurveto
            223 707 rlineto
            3 12 1 5 4 vvcurveto
            15 -13 8 -28 vhcurveto
            -27 hlineto
            -28 -19 -9 -21 -7 hvcurveto
            -223 -710 rlineto
            -3 -10 -1 -5 -3 vvcurveto
            -15 13 -8 28 vhcurveto
            endchar
          </CharString>
          <CharString index="116">
            131 145 131 return
          </CharString>
          <CharString index="117">
            rmoveto
            -46 -21 -71 callgsubr
            -60 vlineto
            -21 21 -11 49 46 21 11 21 vhcurveto
            -31 callsubr
            -21 11 -49 vhcurveto
            endchar
          </CharString>
          <CharString index="118">
            -30 -21 -18 -28 -36 vvcurveto
            -32 13 -28 28 -16 vhcurveto
            -3 vlineto
            return
          </CharString>
          <CharString index="119">
            -21 112 callgsubr
            -21 17 return
          </CharString>
          <CharString index="120">
            -14 15 -8 33 vhcurveto
            return
          </CharString>
          <CharString index="121">
            17 11 15 19 19 -11 15 -17 -17 -12 -15 -19 -19 12 -15 17 hvcurveto
            return
          </CharString>
          <CharString index="122">
            -6 -12 -4 -9 hhcurveto
            -17 -7 11 24 hvcurveto
            return
          </CharString>
          <CharString index="123">
            45 callsubr
            vhcurveto
            return
          </CharString>
          <CharString index="124">
            105 -2 148 -127 -21 361 166 0 -20 return
          </CharString>
          <CharString index="125">
            hlineto
            20 9 15 35 hvcurveto
            7 -2 callgsubr
            return
          </CharString>
          <CharString index="126">
            347 vlineto
            15 11 16 17 return
          </CharString>
          <CharString index="127">
            35 hlineto
            39 18 10 22 hvcurveto
            return
          </CharString>
          <CharString index="128">
            5 callsubr
            91 return
          </CharString>
          <CharString index="129">
            19 59 callsubr
            return
          </CharString>
          <CharString index="130">
            757 -76 callgsubr
            return
          </CharString>
          <CharString index="131">
            6 58 callgsubr
            -6 15 return
          </CharString>
          <CharString index="132">
            -249 18 -21 706 -20 return
          </CharString>
          <CharString index="133">
            27 callgsubr
            hvcurveto
            return
          </CharString>
          <CharString index="134">
            rmoveto
            -7 callgsubr
            return
          </CharString>
          <CharString index="135">
            94 hmoveto
            -59 callsubr
            return
          </CharString>
          <CharString index="136">
            129 callsubr
            376 return
          </CharString>
          <CharString index="137">
            156 170 155 return
          </CharString>
          <CharString index="138">
            44 callgsubr
            70 159 hstem
            51 30 callsubr
            vstem
            return
          </CharString>
          <CharString index="139">
            -21 22 -21 257 146 167 131 return
          </CharString>
          <CharString index="140">
            hstemhm
            35 127 -116 124 -100 127 return
          </CharString>
          <CharString index="141">
            -293 rmoveto
            16 hlineto
            19 15 7 20 8 hvcurveto
            return
          </CharString>
          <CharString index="142">
            -17 vlineto
            -35 9 -15 return
          </CharString>
          <CharString index="143">
            63 callgsubr
            endchar
          </CharString>
          <CharString index="144">
            -39 callsubr
            49 146 return
          </CharString>
          <CharString index="145">
            hstem
            57 158 163 159 vstem
            return
          </CharString>
          <CharString index="146">
            19 26 callgsubr
            return
          </CharString>
          <CharString index="147">
            rmoveto
            27 hlineto
            20 21 2 17 9 hvcurveto
            20 45 20 -46 rlineto
            -12 6 18 -6 27 hhcurveto
            28 hlineto
            12 8 3 7 4 -2 5 -4 6 hvcurveto
            return
          </CharString>
          <CharString index="148">
            139 callsubr
            13 hvcurveto
            1 4 1 4 7 vvcurveto
            11 -5 10 -15 5 vhcurveto
            -10 3 rlineto
            1 -4 -4 1 -4 hhcurveto
            -12 return
          </CharString>
          <CharString index="149">
            -27 -7 24 62 56 7 26 27 28 6 -26 -56 -62 -6 -24 -28 hvcurveto
            return
          </CharString>
          <CharString index="150">
            136 150 132 163 135 return
          </CharString>
          <CharString index="151">
            52 140 206 140 return
          </CharString>
          <CharString index="152">
            vlineto
            99 callsubr
            return
          </CharString>
          <CharString index="153">
            -34 callgsubr
            -24 callgsubr
            return
          </CharString>
          <CharString index="154">
            125 16 callgsubr
            376 33 vlineto
            -53 callsubr
            -33 hlineto
            return
          </CharString>
          <CharString index="155">
            -206 rmoveto
            -44 callgsubr
            195 vlineto
            -16 18 27 -13 37 hhcurveto
            105 62 95 172 177 -64 95 -86 return
          </CharString>
          <CharString index="156">
            -20 53 callgsubr
            return
          </CharString>
          <CharString index="157">
            -66 68 callgsubr
            -9 159 -16 callgsubr
            hintmask 00000000
            hintmask 01110101
            return
          </CharString>
          <CharString index="158">
            vhcurveto
            -40 -87 callsubr
            return
          </CharString>
          <CharString index="159">
            -91 callgsubr
            endchar
          </CharString>
          <CharString index="160">
            -68 62 callgsubr
            return
          </CharString>
          <CharString index="161">
            rmoveto
            -12 hlineto
            -49 -4 -12 -34 -8 hvcurveto
            return
          </CharString>
          <CharString index="162">
            179 -8 rmoveto
            38 56 11 36 hvcurveto
            return
          </CharString>
          <CharString index="163">
            -158 -8 121 297 121 return
          </CharString>
          <CharString index="164">
            hlineto
            22 callgsubr
            return
          </CharString>
          <CharString index="165">
            -15 -35 hvcurveto
            -7 vlineto
            -35 return
          </CharString>
          <CharString index="166">
            -21 704 -20 return
          </CharString>
          <CharString index="167">
            -1 -5 -4 vvcurveto
            return
          </CharString>
          <CharString index="168">
            -69 callgsubr
            67 146 return
          </CharString>
          <CharString index="169">
            -16 27 -6 18 vhcurveto
            return
          </CharString>
          <CharString index="170">
            52 26 37 74 return
          </CharString>
          <CharString index="171">
            -19 callgsubr
            41 146 return
          </CharString>
          <CharString index="172">
            121 -100 -21 28 -21 415 117 return
          </CharString>
          <CharString index="173">
            -8 82 -55 -21 244 86 44 82 168 86 -6 -20 hstemhm
            31 102 68 103 83 102 68 103 return
          </CharString>
          <CharString index="174">
            -48 callsubr
            70 return
          </CharString>
          <CharString index="175">
            250 -94 108 -167 -34 callgsubr
            return
          </CharString>
          <CharString index="176">
            rmoveto
            34 -57 callsubr
            return
          </CharString>
          <CharString index="177">
            -106 0 117 289 117 return
          </CharString>
          <CharString index="178">
            hstemhm
            50 149 87 150 return
          </CharString>
          <CharString index="179">
            24 -10 6 -20 vhcurveto
            return
          </CharString>
          <CharString index="180">
            241 19 -21 704 123 callsubr
            5.62 741.38 vstem
            return
          </CharString>
          <CharString index="181">
            83 callgsubr
            hvcurveto
            return
          </CharString>
          <CharString index="182">
            -6 callsubr
            44 159 hstem
            13 callgsubr
            vstem
            return
          </CharString>
          <CharString index="183">
            174 -69 95 -136 -135 -69 -95 -174 return
          </CharString>
          <CharString index="184">
            -49 -24 -27 -39 -55 vvcurveto
            -89 68 -44 123 vhcurveto
            return
          </CharString>
          <CharString index="185">
            8 -78 callsubr
            -8 15 return
          </CharString>
          <CharString index="186">
            -22 callsubr
            41 146 return
          </CharString>
          <CharString index="187">
            131 438 131 return
          </CharString>
          <CharString index="188">
            131 579 -20 return
          </CharString>
          <CharString index="189">
            7 3 7 3 return
          </CharString>
          <CharString index="190">
            173 275 rmoveto
            64 182 23 71 rlineto
            4 -72 hlineto
            16 -181 rlineto
            endchar
          </CharString>
          <CharString index="191">
            52 11 24 33 45 vvcurveto
            endchar
          </CharString>
          <CharString index="192">
            -74 135 callgsubr
            35 155 81 153 vstem
            return
          </CharString>
          <CharString index="193">
            -74 136 callsubr
            35 155 81 153 vstem
            return
          </CharString>
          <CharString index="194">
            -185 -21 198 117 301 121 return
          </CharString>
          <CharString index="195">
            -257 110 callsubr
            return
          </CharString>
          <CharString index="196">
            -103 -185 -21 731 -20 return
          </CharString>
          <CharString index="197">
            -40 vhcurveto
            -42 hlineto
            return
          </CharString>
          <CharString index="198">
            -20 hstemhm
            35 150 99 148 return
          </CharString>
          <CharString index="199">
            114 -21 86 -38 58 return
          </CharString>
          <CharString index="200">
            -19 hlineto
            -42 -18 -17 -27 return
          </CharString>
          <CharString index="201">
            hlineto
            -39 -18 -10 -22 hvcurveto
            return
          </CharString>
          <CharString index="202">
            hstemhm
            34 150 -9 137 -19 150 return
          </CharString>
          <CharString index="203">
            hstemhm
            38 133 -2 137 -35 148 return
          </CharString>
          <CharString index="204">
            117 44 159 return
          </CharString>
          <CharString index="205">
            hhcurveto
            40 30 33 37 return
          </CharString>
          <CharString index="206">
            -15 callsubr
            -40 return
          </CharString>
          <CharString index="207">
            471 0 117 -117 131 275 117 46 131 return
          </CharString>
          <CharString index="208">
            -20 -10 -20 -13 -21 hhcurveto
            endchar
          </CharString>
          <CharString index="209">
            -21 527 141 callsubr
            53 31 callgsubr
            return
          </CharString>
          <CharString index="210">
            hstem
            57 157 171 157 vstem
            return
          </CharString>
          <CharString index="211">
            111 callgsubr
            120 117 return
          </CharString>
          <CharString index="212">
            hhcurveto
            -34 callgsubr
            return
          </CharString>
          <CharString index="213">
            34 hlineto
            39 19 10 22 hvcurveto
            return
          </CharString>
          <CharString index="214">
            -4 callsubr
            99 -21 return
          </CharString>
          <CharString index="215">
            -118 -238 -247 return
          </CharString>
          <CharString index="216">
            -104 46 -48 83 vhcurveto
            return
          </CharString>
          <CharString index="217">
            19 -21 527 -20 return
          </CharString>
          <CharString index="218">
            -20 hstemhm
            50 148 return
          </CharString>
          <CharString index="219">
            146 rlineto
            5 8 3 7 7 vvcurveto
            23 -39 20 -19 -9 return
          </CharString>
          <CharString index="220">
            rlineto
            8 8 4 9 0 8 0 9 -4 8 8 flex1
            return
          </CharString>
          <CharString index="221">
            vlineto
            45 145 26 193 193 -125 26 -75 hvcurveto
            return
          </CharString>
          <CharString index="222">
            rlineto
            -8 -8 -4 -8 0 -9 0 -8 4 -9 -8 flex1
            return
          </CharString>
          <CharString index="223">
            hlineto
            18 7 15 35 hvcurveto
            30 vlineto
            35 -7 15 -18 vhcurveto
            return
          </CharString>
          <CharString index="224">
            2 19 32 callsubr
            return
          </CharString>
          <CharString index="225">
            vlineto
            -24 callsubr
            return
          </CharString>
          <CharString index="226">
            -20 -48 callsubr
            return
          </CharString>
          <CharString index="227">
            104 5 21 28 34 hhcurveto
            38 14 -38 -94 hvcurveto
            endchar
          </CharString>
          <CharString index="228">
            148 hintmask 0000000000000000
            return
          </CharString>
          <CharString index="229">
            -108 48 -48 77 return
          </CharString>
          <CharString index="230">
            142 callgsubr
            hstem
            return
          </CharString>
          <CharString index="231">
            21 9 10 24 hvcurveto
            7 vlineto
            24 -9 10 -21 vhcurveto
            return
          </CharString>
          <CharString index="232">
            11 -27 -29 8 -34 106 callgsubr
            return
          </CharString>
          <CharString index="233">
            -20 -9 -9 -21 hvcurveto
            -15 vlineto
            -21 9 -9 20 vhcurveto
            return
          </CharString>
          <CharString index="234">
            -17 callgsubr
            -30 -54 callsubr
            return
          </CharString>
          <CharString index="235">
            -17 callgsubr
            -31 -54 callsubr
            return
          </CharString>
          <CharString index="236">
            -45 callsubr
            -44 callgsubr
            return
          </CharString>
          <CharString index="237">
            15 5 11 0 18 0 18 -5 11 15 flex1
            return
          </CharString>
          <CharString index="238">
            -13 -15 22 -27 8 vhcurveto
            return
          </CharString>
          <CharString index="239">
            -20 24 -20 hstemhm
            104 88 return
          </CharString>
          <CharString index="240">
            -4 23 vhcurveto
            5 return
          </CharString>
          <CharString index="241">
            -255 572 146 hstem
            1 249 vstem
            return
          </CharString>
          <CharString index="242">
            -21 527 123 callsubr
            53 148 return
          </CharString>
          <CharString index="243">
            -8 25 callgsubr
            hstem
            return
          </CharString>
          <CharString index="244">
            hstem
            38 159 37 137 32 158 vstem
            return
          </CharString>
          <CharString index="245">
            139 27 139 hintmask 11000000
            return
          </CharString>
          <CharString index="246">
            -28 131 callgsubr
            return
          </CharString>
          <CharString index="247">
            -219 -21 232 return
          </CharString>
          <CharString index="248">
            -20 73 124 hstemhm
            return
          </CharString>
          <CharString index="249">
            hstemhm
            54 154 109 148 hintmask 01111100
            return
          </CharString>
          <CharString index="250">
            13 callsubr
            143 265 rmoveto
            return
          </CharString>
          <CharString index="251">
            121 297 121 hstemhm
            29 149 return
          </CharString>
          <CharString index="252">
            -59 -583 -36 callgsubr
            return
          </CharString>
          <CharString index="253">
            -21 248 60 219 -20 249 -20 return
          </CharString>
          <CharString index="254">
            62 callsubr
            endchar
          </CharString>
        <CharString name=".notdef">
          3 0 50 600 50 hstem
          7 49 400 51 vstem
          7 hmoveto
          500 700 -500 hlineto
          250 -305 rmoveto
          -171 255 rlineto
          340 hlineto
          -370 -555 rmoveto
          510 vlineto
          171 -255 rlineto
          229 -255 rmoveto
          -169 255 169 255 rlineto
          -369 -555 rmoveto
          169 255 171 -255 rlineto
          endchar
        </CharString>
        <CharString name="A">
          -6 -48 callsubr
          134 callgsubr
          hintmask 11011000
          50 -2 -106 callgsubr
          hintmask 11101000
          -90 callgsubr
          endchar
        </CharString>
        <CharString name="AE">
          235 0 131 10 132 20 9 callsubr
          hstemhm
          3 706 hintmask 10111000
          62 -2 rmoveto
          46 hlineto
          22 12 7 14 5 hvcurveto
          hintmask 11111000
          47 122 rlineto
          160 hlineto
          hintmask 10111000
          -25 callsubr
          hintmask 11111000
          83 callsubr
        </CharString>
        <CharString name="AEacute">
          235 0 131 10 132 20 9 callsubr
          52 159 hstemhm
          3 706 hintmask 10111100
          377 752 rmoveto
          -107 callsubr
          -315 -754 rmoveto
          46 hlineto
          22 12 7 14 5 hvcurveto
          hintmask 11111100
          47 122 rlineto
          160 hlineto
          hintmask 10111100
          -25 callsubr
          hintmask 11111100
          83 callsubr
        </CharString>
        <CharString name="Aacute">
          -6 67 callsubr
          159 80 callgsubr
          232 752 rmoveto
          -107 callsubr
          -182 -754 -96 callsubr
        </CharString>
        <CharString name="Abreve">
          -6 67 callsubr
          91 80 callgsubr
          252 752 -102 callgsubr
          -202 -754 -96 callsubr
        </CharString>
        <CharString name="Acircumflex">
          -6 53 callgsubr
          80 callgsubr
          149 749 -107 callgsubr
          -99 -751 -96 callsubr
        </CharString>
        <CharString name="Adieresis">
          -6 -48 callsubr
          73 124 hstemhm
          116 45 callgsubr
          hintmask 11011110
          174 755 -101 callgsubr
          -286 -757 -106 callgsubr
          hintmask 11101110
          -90 callgsubr
          endchar
        </CharString>
        <CharString name="Agrave">
          -6 67 callsubr
          159 80 callgsubr
          268 752 -102 callsubr
          -218 -754 -96 callsubr
        </CharString>
        <CharString name="Amacron">
          -6 -48 callsubr
          92 95 80 callgsubr
          157 774 -84 callgsubr
          -107 -776 -96 callsubr
        </CharString>
        <CharString name="Aogonek">
          -6 -168 69 118 -69 callgsubr
          hstemhm
          329 67 hintmask 11101100
          469 -95 rmoveto
          -5 callsubr
          15 3 19 6 19 hvcurveto
          2 hlineto
          53 hlineto
          31 12 8 14 5 -1 6 -1 7 hvcurveto
          -154 636 rlineto
          19 -5 -20 9 -37 hhcurveto
          -65 hlineto
          -35 -21 -9 -19 -5 hvcurveto
          -154 -636 rlineto
          -2 -7 -1 -6 -5 vvcurveto
          13 callsubr
          -80 callgsubr
          -121 rlineto
          -20 -37 -5 -36 -21 -58 callgsubr
          -276 358 rmoveto
          hintmask 11110100
          -90 callgsubr
          endchar
        </CharString>
        <CharString name="Aring">
          -6 -48 callsubr
          45 62 73 64 hstemhm
          153 62 74 61 hintmask 00000000
          hintmask 11011111
          251 727 -65 callsubr
          -202 -791 27 callsubr
          hintmask 11010111
          -154 636 rlineto
          19 -5 -20 9 -37 hhcurveto
          -65 hlineto
          -35 -21 -9 -19 -5 hvcurveto
          -154 -636 rlineto
          -2 -7 -1 -6 -5 vvcurveto
          hintmask 11011111
          143 callsubr
          hintmask 11100111
          -90 callgsubr
          endchar
        </CharString>
        <CharString name="Aringacute">
          -6 19 -21 143 122 529 64 hstem
          153 62 74 61 vstem
          233 872 -47 callgsubr
          268 -834 rmoveto
          -154 636 -2 8 -5 7 -9 5 rlinecurve
          13 16 6 22 24 vvcurveto
          58 -36 42 -63 -62 -36 -42 -58 -25 7 -22 13 -17 vhcurveto
          -7 -4 -5 -6 -2 -8 -154 -636 rcurveline
          -2 -7 -1 -6 -5 vvcurveto
          13 callsubr
          -7 callgsubr
          -249 754 rmoveto
          23 14 -14 -23 -23 -14 -13 -23 -24 -13 13 23 23 13 14 24 hvcurveto
          -59 -529 rmoveto
          -90 callgsubr
          endchar
        </CharString>
        <CharString name="Atilde">
          -6 -48 callsubr
          77 83 -54 83 134 callgsubr
          hintmask 11010110
          123 23 callsubr
          hintmask 11011010
          -103 callgsubr
          hintmask 11010110
          -91 callsubr
          -62 -762 -106 callgsubr
          hintmask 11100110
          -90 callgsubr
          endchar
        </CharString>
        <CharString name="B">
          28 0 121 175 119 165 120 hstemhm
          57 148 132 146 -130 150 hintmask 11110100
          94 hmoveto
          182 hlineto
          155 72 84 113 86 -41 59 -68 20 hvcurveto
          -1 4 rlineto
          hintmask 11111000
          53 31 37 51 83 vvcurveto
          108 -64 61 -146 vhcurveto
          -179 hlineto
          -26 -11 -12 -27 hvcurveto
          -621 vlineto
          hintmask 11110100
          -37 callsubr
          111 415 rmoveto
          165 vlineto
          hintmask 11111000
          71 hlineto
          42 19 -22 -58 -59 -20 -26 -43 hvcurveto
          -69 -294 rmoveto
          175 vlineto
          hintmask 11110100
          76 hlineto
          49 23 -22 -63 -65 -24 -25 -48 hvcurveto
          endchar
        </CharString>
        <CharString name="C">
          52 callgsubr
          hstem
          37 160 vstem
          304 -8 -85 callgsubr
        </CharString>
        <CharString name="CR">
          -374 endchar
        </CharString>
        <CharString name="Cacute">
          52 callgsubr
          44 159 hstem
          37 160 vstem
          276 752 rmoveto
          -107 callsubr
          28 -760 -85 callgsubr
        </CharString>
        <CharString name="Cacute.loclPLK">
          52 callgsubr
          44 159 hstem
          37 160 vstem
          278 752 -82 callgsubr
          26 -760 -85 callgsubr
        </CharString>
        <CharString name="Ccaron">
          52 callgsubr
          41 146 hstem
          37 160 vstem
          293 749 -105 callgsubr
          11 -757 -85 callgsubr
        </CharString>
        <CharString name="Ccedilla">
          -52 -212 73 132 135 445 135 hstemhm
          37 160 98 93 hintmask 00000000
          hintmask 11111000
          387 139 rmoveto
          -6 -21 -16 -5 -29 hhcurveto
          -88 -36 76 147 148 38 74 81 27 21 -5 -5 16 hvcurveto
          27 -10 19 51 1 46 1 21 -6 19 -26 7 rrcurveto
          5 -18 -33 6 -36 hhcurveto
          -187 -85 -118 -238 -232 70 -114 164 -13 hvcurveto
          -17 -46 -6 -18 -8 -68 callsubr
          12 41 30 3 26 6 15 5 rlinecurve
          25 9 4 16 17 vvcurveto
          58 -16 42 -33 -10 vhcurveto
          endchar
        </CharString>
        <CharString name="Ccircumflex">
          52 callgsubr
          41 146 hstem
          37 160 vstem
          193 749 -107 callgsubr
          111 -757 -85 callgsubr
        </CharString>
        <CharString name="Cdotaccent">
          52 callgsubr
          47 124 hstem
          37 160 32 137 vstem
          299 755 -106 callsubr
          5 -763 -85 callgsubr
        </CharString>
        <CharString name="D">
          66 57 callgsubr
          38 callsubr
          28 callsubr
          121 -28 callgsubr
          endchar
        </CharString>
        <CharString name="Dcaron">
          66 57 callgsubr
          49 146 38 callsubr
          278 749 -105 callgsubr
          -184 -749 rmoveto
          -59 callsubr
          121 -28 callgsubr
          endchar
        </CharString>
        <CharString name="Dcroat">
          -41 callgsubr
        </CharString>
        <CharString name="E">
          -33 callgsubr
          81 callgsubr
          94 hmoveto
          -104 callgsubr
          endchar
        </CharString>
        <CharString name="Eacute">
          -33 callgsubr
          52 159 81 callgsubr
          227 752 rmoveto
          -107 callsubr
          -133 -752 rmoveto
          -104 callgsubr
          endchar
        </CharString>
        <CharString name="Ebreve">
          -33 callgsubr
          52 91 81 callgsubr
          247 752 -102 callgsubr
          -153 -752 rmoveto
          -104 callgsubr
          endchar
        </CharString>
        <CharString name="Ecaron">
          -54 62 callgsubr
          81 callgsubr
          244 749 -105 callgsubr
          -150 -749 rmoveto
          -104 callgsubr
          endchar
        </CharString>
        <CharString name="Ecircumflex">
          -54 62 callgsubr
          81 callgsubr
          144 749 -107 callgsubr
          -50 -749 rmoveto
          -104 callgsubr
          endchar
        </CharString>
        <CharString name="Edieresis">
          -33 callgsubr
          55 124 148 callgsubr
          -102 45 callgsubr
          hintmask 00000000
          hintmask 11110110
          169 755 -101 callgsubr
          hintmask 11101010
          -237 -755 rmoveto
          -104 callgsubr
          endchar
        </CharString>
        <CharString name="Edotaccent">
          -33 callgsubr
          55 124 148 callgsubr
          -33 137 hintmask 00000000
          hintmask 11110100
          250 755 -106 callsubr
          hintmask 11101000
          -156 -755 rmoveto
          -104 callgsubr
          endchar
        </CharString>
        <CharString name="Egrave">
          -33 callgsubr
          52 159 81 callgsubr
          263 752 -102 callsubr
          -169 -752 rmoveto
          -104 callgsubr
          endchar
        </CharString>
        <CharString name="Emacron">
          -33 callgsubr
          74 95 81 callgsubr
          152 774 -84 callgsubr
          -58 -774 rmoveto
          -104 callgsubr
          endchar
        </CharString>
        <CharString name="Eng">
          79 95 callgsubr
          114 59 callsubr
          hstem
          44 callsubr
          vstem
          480 702 rmoveto
          -24 -87 callsubr
          -319 vlineto
          -26 4 -27 4 -26 vhcurveto
          -4 -2 -10 26 -10 26 -14 26 rlinecurve
          -180 326 rlineto
          25 -11 -19 3 -22 hhcurveto
          -26 -55 callgsubr
          24 -64 callgsubr
          329 vlineto
          23 -4 22 133 callsubr
          3 8 -21 8 -23 11 -20 rlinecurve
          182 -324 rlineto
          -94 vlineto
          -30 -8 -13 -24 vhcurveto
          -11 -13 4 -6 hhcurveto
          -21 -10 -47 -23 133 callgsubr
          76 58 53 109 hvcurveto
          720 16 callsubr
          endchar
        </CharString>
        <CharString name="Eogonek">
          -54 -177 69 108 -39 callsubr
          99 callgsubr
          113 67 vstem
          466 -104 rmoveto
          -5 callsubr
          21 5 26 11 26 hvcurveto
          6 7 3 14 20 vvcurveto
          -104 callsubr
          252 hlineto
          -16 -33 -4 -31 -19 -58 callgsubr
          endchar
        </CharString>
        <CharString name="Eth">
          -41 callgsubr
        </CharString>
        <CharString name="Euro">
          -8 -8 136 105 75 76 75 114 135 hstem
          53 159 vstem
          310 -8 rmoveto
          97 81 42 42 16 -24 67 -35 hvcurveto
          -17 -30 -31 -61 hhcurveto
          -50 -33 35 70 -15 hvcurveto
          168 hlineto
          124 callsubr
          -178 hlineto
          -1 14 0 14 15 vvcurveto
          33 179 vlineto
          124 callsubr
          -171 hlineto
          76 15 33 38 54 60 26 -26 12 hhcurveto
          24 39 64 27 29 -72 41 -96 -151 -82 -83 -166 -23 hvcurveto
          -29 119 callgsubr
          23 -32 hlineto
          -15 0 -15 1 -14 vhcurveto
          -24 119 callgsubr
          30 hlineto
          -165 23 78 -76 149 hhcurveto
          endchar
        </CharString>
        <CharString name="F">
          -88 19 -21 294 131 146 131 81 callgsubr
          115 -2 rmoveto
          40 -64 callgsubr
          262 147 vlineto
          20 9 15 35 hvcurveto
          31 -2 callgsubr
          -147 146 156 hlineto
          20 9 15 35 hvcurveto
          31 -2 callgsubr
          -275 hlineto
          -26 41 callgsubr
          -630 -72 callsubr
          endchar
        </CharString>
        <CharString name="G">
          41 -8 43 callsubr
          104 callgsubr
          465 410 -79 callgsubr
          endchar
        </CharString>
        <CharString name="Gbreve">
          41 -8 43 callsubr
          44 91 104 callgsubr
          297 752 -102 callgsubr
          168 -342 -79 callgsubr
          endchar
        </CharString>
        <CharString name="Gcircumflex">
          41 -8 43 callsubr
          41 146 104 callgsubr
          194 749 -107 callgsubr
          271 -339 -79 callgsubr
          endchar
        </CharString>
        <CharString name="Gcommaaccent">
          41 140 callsubr
          43 callsubr
          hstemhm
          37 160 44 123 -13 151 hintmask 11111010
          465 410 -79 callgsubr
          hintmask 11111100
          -146 -461 rmoveto
          -20 hlineto
          -41 -17 -17 -27 hvcurveto
          -80 -10 -25 -18 vvcurveto
          -16 26 -6 18 29 60 78 67 25 -12 19 -33 vhcurveto
          endchar
        </CharString>
        <CharString name="Gdotaccent">
          41 -8 43 callsubr
          47 124 hstemhm
          37 160 33 137 -16 151 hintmask 00000000
          hintmask 11111100
          300 755 -106 callsubr
          hintmask 11111010
          165 -345 -79 callgsubr
          endchar
        </CharString>
        <CharString name="H">
          89 19 -21 293 132 279 -20 103 callsubr
          -8 callsubr
          endchar
        </CharString>
        <CharString name="Hbar">
          75 19 -21 293 132 53 95 131 -20 103 callsubr
          549 571 rmoveto
          -7 99 132 callgsubr
          -41 -87 callsubr
          -99 -171 99 -62 callsubr
          -40 vhcurveto
          -42 -87 callsubr
          -99 -16 vlineto
          -20 -9 -12 -28 hvcurveto
          -15 vlineto
          -28 9 -12 20 vhcurveto
          16 -446 hlineto
          -67 callgsubr
          42 94 callgsubr
          261 171 -261 -72 callsubr
          71 callgsubr
          446 7 vlineto
          21 8 12 28 hvcurveto
          15 vlineto
          28 -8 12 -21 vhcurveto
          -164 -148 rmoveto
          -171 53 171 hlineto
          endchar
        </CharString>
        <CharString name="Hcircumflex">
          89 19 -21 293 132 279 -20 67 146 103 callsubr
          196 749 -107 callgsubr
          -81 -751 -1 callgsubr
          endchar
        </CharString>
        <CharString name="I">
          25 callsubr
          hstem
          52 157 vstem
          36 callgsubr
          endchar
        </CharString>
        <CharString name="IJ">
          106 -8 133 -107 -21 706 -20 hstemhm
          52 157 199 157 hintmask 01111000
          36 callgsubr
          hintmask 10111000
          274 -5 -65 callgsubr
          endchar
        </CharString>
        <CharString name="Iacute">
          25 callsubr
          69 159 hstem
          52 157 vstem
          110 752 rmoveto
          -107 callsubr
          -755 vmoveto
          -83 callgsubr
          endchar
        </CharString>
        <CharString name="Iacute_J.loclNLD">
          106 -8 133 -107 -21 706 -20 69 159 hstemhm
          52 157 199 157 hintmask 01111100
          110 752 rmoveto
          -107 callsubr
          354 hmoveto
          -107 callsubr
          -354 -755 rmoveto
          -83 callgsubr
          hintmask 10111100
          274 -5 -65 callgsubr
          endchar
        </CharString>
        <CharString name="Ibreve">
          25 callsubr
          69 91 hstem
          52 157 vstem
          130 752 -102 callgsubr
          -20 -755 rmoveto
          -83 callgsubr
          endchar
        </CharString>
        <CharString name="Icircumflex">
          25 callsubr
          66 146 hstem
          52 157 vstem
          27 749 -107 callgsubr
          83 -752 rmoveto
          -83 callgsubr
          endchar
        </CharString>
        <CharString name="Idieresis">
          25 callsubr
          72 124 hstemhm
          -6 114 -56 157 -53 114 hintmask 11101000
          52 755 -58 callsubr
          vhcurveto
          hintmask 11110000
          -39 -17 -71 callgsubr
          -60 vlineto
          hintmask 11101000
          -67 callgsubr
          162 hmoveto
          hintmask 11100100
          38 18 11 21 hvcurveto
          60 16 callsubr
          hintmask 11101000
          -39 -17 -71 callgsubr
          -60 -72 callsubr
          -104 -758 rmoveto
          -83 callgsubr
          endchar
        </CharString>
        <CharString name="Idotaccent">
          25 callsubr
          72 124 hstemhm
          52 157 -146 137 hintmask 00000000
          hintmask 11101000
          133 755 -106 callsubr
          hintmask 11110000
          -23 -758 rmoveto
          -83 callgsubr
          endchar
        </CharString>
        <CharString name="Igrave">
          25 callsubr
          69 159 hstem
          52 157 vstem
          146 752 -102 callsubr
          -36 -755 rmoveto
          -83 callgsubr
          endchar
        </CharString>
        <CharString name="Imacron">
          25 callsubr
          91 95 hstem
          52 157 vstem
          35 774 -84 callgsubr
          75 -777 rmoveto
          -83 callgsubr
          endchar
        </CharString>
        <CharString name="Iogonek">
          -249 -172 69 121 -21 706 -20 hstem
          52 157 vstem
          261 -99 rmoveto
          -5 callsubr
          21 5 26 12 26 hvcurveto
          3 5 1 5 6 vvcurveto
          50 callgsubr
          12 90 callsubr
          -41 -17 -12 12 callsubr
          -12 41 vhcurveto
          27 hlineto
          -12 -30 -4 -28 -17 -58 callgsubr
          endchar
        </CharString>
        <CharString name="Itilde">
          25 callsubr
          76 73 callgsubr
          52 157 hintmask 11011000
          1 23 callsubr
          hintmask 11101000
          -103 callgsubr
          hintmask 11011000
          -91 callsubr
          120 -763 rmoveto
          -83 callgsubr
          endchar
        </CharString>
        <CharString name="J">
          -156 -8 133 578 -20 hstem
          146 157 vstem
          122 -8 -65 callgsubr
          endchar
        </CharString>
        <CharString name="Jcircumflex">
          -156 -8 133 578 -20 66 146 hstem
          146 157 vstem
          119 749 -107 callgsubr
          3 -757 -65 callgsubr
          endchar
        </CharString>
        <CharString name="K">
          -1 22 callsubr
          hstem
          54 157 vstem
          -28 callsubr
          endchar
        </CharString>
        <CharString name="Kcommaaccent">
          -1 -219 -21 259 59 callsubr
          hstemhm
          54 157 -11 123 hintmask 11110000
          -28 callsubr
          hintmask 11101000
          -282 -274 -83 callsubr
          endchar
        </CharString>
        <CharString name="L">
          -103 0 131 571 -20 81 callgsubr
          94 hmoveto
          -70 callsubr
          endchar
        </CharString>
        <CharString name="Lacute">
          -103 0 131 571 -20 70 159 81 callgsubr
          116 752 rmoveto
          -107 callsubr
          -22 -752 rmoveto
          -70 callsubr
          endchar
        </CharString>
        <CharString name="Lcaron">
          -103 0 131 569 -20 22 -20 148 callgsubr
          48 123 hintmask 10111000
          94 hmoveto
          -70 callsubr
          212 511 rmoveto
          hintmask 11011000
          -18 callgsubr
          hintmask 10111000
          147 callsubr
        </CharString>
        <CharString name="Lcommaaccent">
          -103 -219 -21 240 131 571 -20 148 callgsubr
          -60 123 hintmask 11110000
          94 hmoveto
          -70 callsubr
          hintmask 11101000
          93 -240 -83 callsubr
          endchar
        </CharString>
        <CharString name="Ldot">
          -103 0 131 158 140 273 -20 99 callgsubr
          34 136 vstem
          94 hmoveto
          -70 callsubr
          221 289 29 callgsubr
        </CharString>
        <CharString name="Lslash">
          -103 0 131 571 -20 81 callgsubr
          362 131 rmoveto
          -149 269 hlineto
          58 35 rlineto
          18 11 8 14 21 vvcurveto
          20 vlineto
          13 -4 7 -7 -4 -5 -2 -4 -6 vhcurveto
          -58 -35 rlineto
          190 vlineto
          11 callgsubr
          -286 vlineto
          -25 -15 rlineto
          -18 -11 -8 -12 -22 vvcurveto
          -20 vlineto
          -14 3 -6 8 4 5 1 4 6 vhcurveto
          25 15 rlineto
          -264 vlineto
          -37 callsubr
          268 hlineto
          -48 callgsubr
          endchar
        </CharString>
        <CharString name="M">
          178 22 callsubr
          hstem
          52 150 283 150 vstem
          335 223 rmoveto
          17 hlineto
          21 10 7 17 9 hvcurveto
          74 138 8 15 8 16 6 16 rlinecurve
          4 -1 rlineto
          -4 -18 -3 -19 -18 vvcurveto
          -346 vlineto
          -22 17 -10 41 vhcurveto
          34 hlineto
          41 17 10 22 hvcurveto
          640 vlineto
          22 -17 10 -41 vhcurveto
          -31 hlineto
          -32 -17 -8 -20 -11 hvcurveto
          -124 -235 -8 -15 -6 -17 -4 -16 rlinecurve
          -5 16 -6 17 -8 15 -124 235 rcurveline
          20 -11 -17 8 -32 hhcurveto
          -31 hlineto
          -41 -17 -10 -22 112 callgsubr
          -22 17 -10 41 vhcurveto
          34 hlineto
          41 17 10 22 hvcurveto
          346 vlineto
          18 -3 19 -3 18 vhcurveto
          4 1 7 -16 6 -16 8 -15 rlinecurve
          74 -138 rlineto
          -17 9 10 -7 21 hhcurveto
          endchar
        </CharString>
        <CharString name="N">
          79 22 callsubr
          hstem
          44 callsubr
          vstem
          -35 callgsubr
          endchar
        </CharString>
        <CharString name="Nacute">
          79 19 -21 704 123 callsubr
          44 callsubr
          vstem
          274 752 rmoveto
          -107 callsubr
          -164 -754 -103 callsubr
          endchar
        </CharString>
        <CharString name="Nacute.loclPLK">
          79 19 -21 704 123 callsubr
          44 callsubr
          vstem
          276 752 -82 callgsubr
          -166 -754 -103 callsubr
          endchar
        </CharString>
        <CharString name="Ncaron">
          79 22 callsubr
          67 146 hstem
          44 callsubr
          vstem
          291 749 -105 callgsubr
          -181 -751 -103 callsubr
          endchar
        </CharString>
        <CharString name="Ncommaaccent">
          79 -219 -21 259 59 callsubr
          hstem
          52 140 41 123 42 140 vstem
          -35 callgsubr
          157 -238 -83 callsubr
          endchar
        </CharString>
        <CharString name="Ntilde">
          79 22 callsubr
          77 73 callgsubr
          44 callsubr
          hintmask 11011100
          165 23 callsubr
          hintmask 11101100
          -103 callgsubr
          hintmask 11011100
          -91 callsubr
          -44 -762 -103 callsubr
          endchar
        </CharString>
        <CharString name="O">
          -10 callsubr
          -5 callgsubr
          300 -8 -101 callsubr
          endchar
        </CharString>
        <CharString name="OE">
          320 -8 131 -123 -39 callsubr
          -124 132 hstemhm
          37 160 206 157 hintmask 01110110
          764 131 rmoveto
          -204 162 182 hlineto
          21 78 callsubr
          -21 vhcurveto
          -182 145 203 hlineto
          20 78 callsubr
          -20 vhcurveto
          -322 hlineto
          -24 -11 -10 -21 -2 hvcurveto
          hintmask 10101110
          28 -37 -37 11 -47 hhcurveto
          -153 -93 -109 -249 -248 93 -110 153 45 38 10 28 39 hvcurveto
          hintmask 01110110
          -21 2 11 -9 23 hhcurveto
          323 hlineto
          19 9 -78 callsubr
          -9 15 -19 vhcurveto
          hintmask 10101110
          -463 -8 rmoveto
          -69 -35 51 176 176 35 50 69 68 34 -50 -176 -176 -34 -51 -68 hvcurveto
          endchar
        </CharString>
        <CharString name="Oacute">
          3 callsubr
          21 -760 -101 callsubr
          endchar
        </CharString>
        <CharString name="Oacute.loclPLK">
          -11 callsubr
          281 752 -82 callgsubr
          19 -760 -101 callsubr
          endchar
        </CharString>
        <CharString name="Obreve">
          -10 callsubr
          44 91 -5 callgsubr
          299 752 -102 callgsubr
          1 -760 -101 callsubr
          endchar
        </CharString>
        <CharString name="Ocircumflex">
          88 136 callsubr
          -23 callgsubr
          vstem
          196 749 -107 callgsubr
          104 -757 -101 callsubr
          endchar
        </CharString>
        <CharString name="Odieresis">
          -10 callsubr
          47 124 hstemhm
          38 159 -34 45 callgsubr
          -36 158 hintmask 00000000
          hintmask 11101100
          221 755 -101 callgsubr
          hintmask 11110010
          -83 -763 -101 callsubr
          endchar
        </CharString>
        <CharString name="Ograve">
          -11 callsubr
          315 752 -102 callsubr
          -15 -760 -101 callsubr
          endchar
        </CharString>
        <CharString name="Ohorn">
          -10 callsubr
          -100 43 39 callgsubr
          -37 79 hintmask 11011000
          300 -8 79 callgsubr
          hintmask 10111000
          92 callsubr
          vhcurveto
          hintmask 10110100
          -67 callsubr
          hintmask 11011000
          -46 callgsubr
          endchar
        </CharString>
        <CharString name="Ohungarumlaut">
          -11 callsubr
          191 752 -84 callsubr
          -56 -760 -101 callsubr
          endchar
        </CharString>
        <CharString name="Omacron">
          -10 callsubr
          66 95 -5 callgsubr
          204 774 -84 callgsubr
          96 -782 -101 callsubr
          endchar
        </CharString>
        <CharString name="Oslash">
          -10 callsubr
          -5 callgsubr
          505 605 -52 callsubr
        </CharString>
        <CharString name="Oslashacute">
          3 callsubr
          226 -147 -52 callsubr
        </CharString>
        <CharString name="Otilde">
          -10 callsubr
          51 83 -54 83 39 callgsubr
          hintmask 11011100
          170 23 callsubr
          hintmask 11101100
          -103 callgsubr
          hintmask 11011100
          -91 callsubr
          141 -768 -101 callsubr
          endchar
        </CharString>
        <CharString name="P">
          19 -21 264 129 178 131 hstem
          55 154 109 150 vstem
          115 -2 69 callsubr
          232 69 114 callsubr
          -173 hlineto
          -28 -12 -12 -28 hvcurveto
          -630 -38 callgsubr
          93 393 rmoveto
          178 53 vlineto
          25 32 -16 -72 -74 -32 -16 -25 hvcurveto
          endchar
        </CharString>
        <CharString name="Q">
          88 576 132 -5 callgsubr
          517 -159 rmoveto
          32 33 79 15 2 hvcurveto
          7 -3 7 -9 4 vhcurveto
          -139 69 rlineto
          4 vlineto
          83 48 45 104 172 vvcurveto
          68 callsubr
          -183 50 -104 95 -47 vhcurveto
          -139 288 32 -36 14 hhcurveto
          -216 280 rmoveto
          -69 -35 49 180 178 35 48 69 68 34 -48 -178 -180 -34 -49 -68 hvcurveto
          endchar
        </CharString>
        <CharString name="R">
          117 callsubr
          hstemhm
          54 154 109 148 hintmask 00000000
          hintmask 10111000
          114 -2 1 callsubr
          hintmask 01111100
          -73 callsubr
          hintmask 10111000
          -630 -38 callgsubr
          94 404 rmoveto
          hintmask 01111100
          18 callgsubr
          endchar
        </CharString>
        <CharString name="Racute">
          117 callsubr
          52 159 142 callsubr
          230 752 rmoveto
          -107 callsubr
          hintmask 10111100
          -116 -754 1 callsubr
          hintmask 01111110
          -73 callsubr
          hintmask 10111100
          -630 -38 callgsubr
          94 404 rmoveto
          hintmask 01111110
          18 callgsubr
          endchar
        </CharString>
        <CharString name="Rcaron">
          117 callsubr
          49 146 142 callsubr
          247 749 -105 callgsubr
          hintmask 10111100
          -133 -751 1 callsubr
          hintmask 01111110
          -73 callsubr
          hintmask 10111100
          -630 -38 callgsubr
          94 404 rmoveto
          hintmask 01111110
          18 callgsubr
          endchar
        </CharString>
        <CharString name="Rcommaaccent">
          2 -219 -21 259 32 callsubr
          hstemhm
          54 154 -8 123 -6 -40 callsubr
          -30 -642 -83 callsubr
          endchar
        </CharString>
        <CharString name="S">
          -74 -33 callsubr
          hstem
          35 155 81 153 vstem
          206 -8 rmoveto
          151 67 101 108 105 -43 51 -87 51 hvcurveto
          -94 callgsubr
          -35 31 74 -19 62 hhcurveto
          endchar
        </CharString>
        <CharString name="Sacute">
          85 callsubr
          197 752 rmoveto
          -107 callsubr
          9 -760 rmoveto
          151 67 101 108 105 -43 51 -87 51 hvcurveto
          -94 callgsubr
          -35 31 74 -19 62 hhcurveto
          endchar
        </CharString>
        <CharString name="Sacute.loclPLK">
          85 callsubr
          199 752 -82 callgsubr
          7 -760 rmoveto
          151 67 101 108 105 -43 51 -87 51 hvcurveto
          -94 callgsubr
          -35 31 74 -19 62 hhcurveto
          endchar
        </CharString>
        <CharString name="Scaron">
          86 callsubr
          214 749 -105 callgsubr
          -8 -757 rmoveto
          151 67 101 108 105 -43 51 -87 51 hvcurveto
          -94 callgsubr
          -35 31 74 -19 62 hhcurveto
          endchar
        </CharString>
        <CharString name="Scedilla">
          -74 -212 73 153 -21 583 132 hstemhm
          35 155 21 93 -33 153 hintmask 11110100
          424 201 rmoveto
          105 -43 51 -87 51 vhcurveto
          -94 callgsubr
          hintmask 11111000
          28 -31 62 -19 58 -3 rrcurveto
          -17 -46 -6 -18 -8 -68 callsubr
          13 44 rlineto
          hintmask 11110100
          118 18 53 91 96 vvcurveto
          endchar
        </CharString>
        <CharString name="Scircumflex">
          86 callsubr
          114 749 -107 callgsubr
          92 -757 rmoveto
          151 67 101 108 105 -43 51 -87 51 hvcurveto
          -94 callgsubr
          -35 31 74 -19 62 hhcurveto
          endchar
        </CharString>
        <CharString name="Scommaaccent">
          -74 140 callsubr
          -43 callsubr
          hstemhm
          35 155 -34 123 -8 153 hintmask 11110100
          206 -8 rmoveto
          151 67 101 108 105 -43 51 -87 51 hvcurveto
          -94 callgsubr
          -35 31 74 -19 62 hhcurveto
          hintmask 11101000
          -16 -232 -83 callsubr
          endchar
        </CharString>
        <CharString name="T">
          -57 19 -21 571 131 hstem
          148 157 vstem
          -34 callsubr
          endchar
        </CharString>
        <CharString name="Tbar">
          -72 19 -21 305 95 171 131 hstem
          148 157 vstem
          417 700 rmoveto
          -12 callgsubr
          -171 -67 hlineto
          -20 -9 -12 -28 hvcurveto
          -15 vlineto
          -28 9 -12 20 vhcurveto
          67 -273 hlineto
          -67 callgsubr
          71 callgsubr
          273 56 vlineto
          21 8 12 28 hvcurveto
          15 vlineto
          28 -8 12 -21 vhcurveto
          -56 171 112 hlineto
          -48 callgsubr
          endchar
        </CharString>
        <CharString name="Tcaron">
          -57 19 -21 571 131 49 146 hstem
          148 157 vstem
          223 749 -105 callgsubr
          -17 -751 -29 callsubr
          endchar
        </CharString>
        <CharString name="Thorn">
          19 -21 155 129 178 131 111 -20 hstem
          55 156 107 150 vstem
          113 -2 rmoveto
          40 hlineto
          40 -23 callsubr
          123 67 114 callsubr
          -57 79 hlineto
          99 callsubr
          vhcurveto
          -40 -55 callgsubr
          98 284 rmoveto
          178 50 vlineto
          26 31 -16 -72 -74 -31 -16 -26 hvcurveto
          endchar
        </CharString>
        <CharString name="U">
          44 callgsubr
          hstem
          51 30 callsubr
          vstem
          292 -8 rmoveto
          150 90 78 135 hvcurveto
          465 -70 callgsubr
          vhcurveto
          -39 -71 callsubr
          vhcurveto
          endchar
        </CharString>
        <CharString name="Uacute">
          31 callsubr
          271 752 rmoveto
          -107 callsubr
          21 -760 rmoveto
          150 90 78 135 hvcurveto
          465 -70 callgsubr
          vhcurveto
          -39 -71 callsubr
          vhcurveto
          endchar
        </CharString>
        <CharString name="Ubreve">
          44 callgsubr
          70 91 hstem
          51 30 callsubr
          vstem
          291 752 -102 callgsubr
          1 -760 rmoveto
          150 90 78 135 hvcurveto
          465 -70 callgsubr
          vhcurveto
          -39 -71 callsubr
          vhcurveto
          endchar
        </CharString>
        <CharString name="Ucircumflex">
          44 callgsubr
          67 146 hstem
          51 30 callsubr
          vstem
          188 749 -107 callgsubr
          104 -757 rmoveto
          150 90 78 135 hvcurveto
          465 -70 callgsubr
          vhcurveto
          -39 -71 callsubr
          vhcurveto
          endchar
        </CharString>
        <CharString name="Udieresis">
          44 callgsubr
          73 124 hstemhm
          51 156 -52 45 callgsubr
          -54 155 hintmask 00000000
          hintmask 11101100
          213 755 -101 callgsubr
          hintmask 11110010
          -83 -763 rmoveto
          150 90 78 135 hvcurveto
          465 -70 callgsubr
          vhcurveto
          -39 -71 callsubr
          vhcurveto
          endchar
        </CharString>
        <CharString name="Ugrave">
          31 callsubr
          307 752 -102 callsubr
          -15 -760 rmoveto
          150 90 78 135 hvcurveto
          465 -70 callgsubr
          vhcurveto
          -39 -71 callsubr
          vhcurveto
          endchar
        </CharString>
        <CharString name="Uhorn">
          55 callgsubr
          hstemhm
          44 30 callsubr
          -3 79 hintmask 00000000
          hintmask 10110100
          601 753 rmoveto
          -85 callsubr
          -13 27 -17 -25 vvcurveto
          -20 -16 -13 -27 vhcurveto
          hintmask 10111000
          -75 callsubr
          hintmask 11011000
          459 vlineto
          hintmask 10110100
          84 callsubr
        </CharString>
        <CharString name="Uhungarumlaut">
          31 callsubr
          183 752 -84 callsubr
          -56 -760 rmoveto
          150 90 78 135 hvcurveto
          465 -70 callgsubr
          vhcurveto
          -39 -71 callsubr
          vhcurveto
          endchar
        </CharString>
        <CharString name="Umacron">
          44 callgsubr
          92 95 hstem
          51 30 callsubr
          vstem
          196 774 -84 callgsubr
          96 -782 rmoveto
          150 90 78 135 hvcurveto
          465 -70 callgsubr
          vhcurveto
          -39 -71 callsubr
          vhcurveto
          endchar
        </CharString>
        <CharString name="Uogonek">
          72 -160 69 83 81 callsubr
          hstemhm
          51 156 147 67 -44 155 hintmask 11110100
          532 205 rmoveto
          465 -70 callgsubr
          vhcurveto
          -39 -71 callsubr
          vhcurveto
          hintmask 11111000
          27 25 2 5 22 hvcurveto
          -9 -26 -3 -24 67 callgsubr
          -5 callsubr
          21 5 26 11 26 hvcurveto
          hintmask 11110100
          61 35 34 61 83 vvcurveto
          endchar
        </CharString>
        <CharString name="Uring">
          44 callgsubr
          45 62 73 64 hstemhm
          51 156 -15 62 74 61 -12 155 hintmask 00000000
          hintmask 11110110
          290 727 -65 callsubr
          hintmask 11011001
          1 -797 rmoveto
          150 90 78 135 hvcurveto
          465 -70 callgsubr
          vhcurveto
          -39 -71 callsubr
          vhcurveto
          endchar
        </CharString>
        <CharString name="Utilde">
          44 callgsubr
          77 73 callgsubr
          51 30 callsubr
          hintmask 11011100
          162 23 callsubr
          hintmask 11101100
          -103 callgsubr
          hintmask 11011100
          -91 callsubr
          141 -768 rmoveto
          150 90 78 135 hvcurveto
          465 -70 callgsubr
          vhcurveto
          -39 -71 callsubr
          vhcurveto
          endchar
        </CharString>
        <CharString name="V">
          -3 -2 154 -133 59 callsubr
          hstemhm
          4 497 hintmask 01110000
          213 -2 rmoveto
          80 hlineto
          28 21 5 16 4 hvcurveto
          152 643 rlineto
          2 7 1 6 5 vvcurveto
          14 -18 8 -39 vhcurveto
          -37 hlineto
          -28 -23 -7 -22 -4 hvcurveto
          hintmask 10110000
          -90 -452 -9 -69 rlineto
          -4 hlineto
          -9 69 -85 452 rlineto
          22 -4 -23 7 -28 hhcurveto
          -38 hlineto
          -39 -19 -8 -14 -5 2 -6 2 -7 hvcurveto
          152 -643 rlineto
          hintmask 01110000
          -21 callgsubr
          endchar
        </CharString>
        <CharString name="W">
          241 22 callsubr
          hstem
          5.62 741.38 vstem
          184 -2 -94 callsubr
        </CharString>
        <CharString name="Wacute">
          73 callsubr
          355 752 rmoveto
          -107 callsubr
          -171 -754 -94 callsubr
        </CharString>
        <CharString name="Wcircumflex">
          241 22 callsubr
          67 146 hstem
          5.62 741.38 vstem
          272 749 -107 callgsubr
          -88 -751 -94 callsubr
        </CharString>
        <CharString name="Wdieresis">
          241 22 callsubr
          73 124 hstem
          239 45 callgsubr
          vstem
          297 755 -101 callgsubr
          -275 -757 -94 callsubr
        </CharString>
        <CharString name="Wgrave">
          73 callsubr
          391 752 -102 callsubr
          -207 -754 -94 callsubr
        </CharString>
        <CharString name="X">
          -5 22 callsubr
          hstem
          8 488 vstem
          67 -2 rmoveto
          45 hlineto
          29 19 0 20 7 hvcurveto
          90 254 82 -255 rlineto
          -15 5 23 -4 27 hhcurveto
          43 hlineto
          40 19 7 12 7 -4 7 -4 11 hvcurveto
          -137 321 136 295 rlineto
          5 11 3 8 6 vvcurveto
          12 -20 7 -39 vhcurveto
          -47 hlineto
          -29 -21 -2 -18 -6 hvcurveto
          -76 -235 -70 236 rlineto
          16 -5 -23 3 -26 hhcurveto
          -47 hlineto
          -40 -20 -8 -11 -7 4 -8 5 -10 hvcurveto
          126 -293 -145 -323 rlineto
          -5 -12 -3 -7 -6 vvcurveto
          -12 18 -7 41 vhcurveto
          endchar
        </CharString>
        <CharString name="Y">
          -27 22 callsubr
          hstem
          164 157 vstem
          223 -2 -90 callsubr
        </CharString>
        <CharString name="Y.loclGUA">
          15 callgsubr
          hstem
          90 callgsubr
          vstem
          392 701 -99 callsubr
          endchar
        </CharString>
        <CharString name="Yacute">
          -27 19 -21 704 123 callsubr
          164 157 vstem
          221 752 rmoveto
          -107 callsubr
          2 -754 -90 callsubr
        </CharString>
        <CharString name="Yacute.loclGUA">
          15 callgsubr
          71 159 hstem
          90 callgsubr
          vstem
          223 752 rmoveto
          -107 callsubr
          169 -51 -99 callsubr
          endchar
        </CharString>
        <CharString name="Ycircumflex">
          -27 22 callsubr
          67 146 hstem
          164 157 vstem
          138 749 -107 callgsubr
          85 -751 -90 callsubr
        </CharString>
        <CharString name="Ycircumflex.loclGUA">
          15 callgsubr
          68 146 hstem
          90 callgsubr
          vstem
          140 749 -107 callgsubr
          252 -48 -99 callsubr
          endchar
        </CharString>
        <CharString name="Ydieresis">
          -27 19 -21 704 141 callsubr
          105 114 -55 157 -54 114 hintmask 00000000
          hintmask 11110100
          163 755 -101 callgsubr
          hintmask 11101000
          -102 -757 -90 callsubr
        </CharString>
        <CharString name="Ydieresis.loclGUA">
          15 callgsubr
          74 124 hstemhm
          42 148 -83 45 callgsubr
          -79 148 hintmask 00000000
          hintmask 11110110
          165 755 -101 callgsubr
          hintmask 11111001
          65 -54 -99 callsubr
          endchar
        </CharString>
        <CharString name="Ygrave">
          -27 19 -21 704 123 callsubr
          164 157 vstem
          257 752 -102 callsubr
          -34 -754 -90 callsubr
        </CharString>
        <CharString name="Ygrave.loclGUA">
          15 callgsubr
          71 159 hstem
          90 callgsubr
          vstem
          259 752 -102 callsubr
          133 -51 -99 callsubr
          endchar
        </CharString>
        <CharString name="Z">
          -4 57 callgsubr
          hstem
          23 454 vstem
          62 -50 callsubr
          endchar
        </CharString>
        <CharString name="Zacute">
          -4 57 callgsubr
          52 159 hstem
          23 454 vstem
          235 752 rmoveto
          -107 callsubr
          -173 -752 rmoveto
          -92 callsubr
          endchar
        </CharString>
        <CharString name="Zacute.loclPLK">
          -4 57 callgsubr
          52 159 hstem
          23 454 vstem
          237 752 -82 callgsubr
          -175 -752 rmoveto
          -92 callsubr
          endchar
        </CharString>
        <CharString name="Zcaron">
          -4 57 callgsubr
          49 146 hstem
          23 454 vstem
          252 749 -105 callgsubr
          -190 -749 rmoveto
          -92 callsubr
          endchar
        </CharString>
        <CharString name="Zdotaccent">
          -4 57 callgsubr
          55 124 hstem
          188 137 vstem
          258 755 -106 callsubr
          -196 -755 rmoveto
          -92 callsubr
          endchar
        </CharString>
        <CharString name="a">
          -45 callgsubr
          -16 callgsubr
          hintmask 00000000
          hintmask 10111100
          175 -8 -36 callgsubr
          hintmask 01111100
          -105 callsubr
          hintmask 10111100
          -89 callsubr
          endchar
        </CharString>
        <CharString name="aacute">
          -45 callgsubr
          44 159 103 callgsubr
          214 575 rmoveto
          -107 callsubr
          hintmask 10111110
          -39 -583 -36 callgsubr
          hintmask 01111110
          -105 callsubr
          hintmask 10111110
          -89 callsubr
          endchar
        </CharString>
        <CharString name="abreve">
          -45 callgsubr
          44 91 103 callgsubr
          234 575 -102 callgsubr
          hintmask 10111110
          145 callsubr
          hintmask 01111110
          -105 callsubr
          hintmask 10111110
          -89 callsubr
          endchar
        </CharString>
        <CharString name="acircumflex">
          -30 68 callgsubr
          103 callgsubr
          131 572 -107 callgsubr
          hintmask 10111110
          44 105 callgsubr
          hintmask 01111110
          -105 callsubr
          hintmask 10111110
          -89 callsubr
          endchar
        </CharString>
        <CharString name="acute">
          -255 110 callgsubr
          33 189 vstem
          62 575 rmoveto
          -107 callsubr
          endchar
        </CharString>
        <CharString name="acute.loclPLK">
          -255 110 callgsubr
          38 165 vstem
          67 575 -82 callgsubr
          endchar
        </CharString>
        <CharString name="acutecomb">
          -511 110 callgsubr
          -50 189 vstem
          -21 575 rmoveto
          -107 callsubr
          endchar
        </CharString>
        <CharString name="adieresis">
          -45 callgsubr
          47 124 hstemhm
          38 133 -73 45 callgsubr
          -103 148 hintmask 0111101010000000
          156 578 -58 callsubr
          -39 -17 -11 -21 vhcurveto
          -60 -72 callsubr
          hintmask 1011110100000000
          162 hmoveto
          38 18 -86 callgsubr
          -18 11 -40 -39 -17 -11 -21 vhcurveto
          -60 -72 callsubr
          -143 -586 -36 callgsubr
          hintmask 0111110010000000
          -105 callsubr
          hintmask 1011110100000000
          -95 47 -62 90 vhcurveto
          45 107 rmoveto
          -32 -17 25 36 hvcurveto
          hintmask 1011110010000000
          63 callsubr
          vhcurveto
          -117 vlineto
          hintmask 1011110100000000
          101 callsubr
        </CharString>
        <CharString name="ae">
          177 -8 117 98 99 108 117 hstem
          38 141 89 154 98 142 vstem
          188 -8 -53 callgsubr
        </CharString>
        <CharString name="aeacute">
          153 -8 117 98 99 108 97 callsubr
          hstem
          38 141 89 154 98 142 vstem
          317 575 rmoveto
          -107 callsubr
          -129 -583 -53 callgsubr
        </CharString>
        <CharString name="agrave">
          -45 callgsubr
          44 159 103 callgsubr
          250 575 -102 callsubr
          hintmask 10111110
          -75 -583 -36 callgsubr
          hintmask 01111110
          -105 callsubr
          hintmask 10111110
          -89 callsubr
          endchar
        </CharString>
        <CharString name="amacron">
          -45 callgsubr
          66 95 103 callgsubr
          139 597 -84 callgsubr
          hintmask 10111110
          36 -605 -36 callgsubr
          hintmask 01111110
          -105 callsubr
          hintmask 10111110
          -89 callsubr
          endchar
        </CharString>
        <CharString name="ampersand">
          9 -8 117 200 117 165 117 0 -20 hstemhm
          5 151 -133 153 130 151 hintmask 11011010
          491 113 rmoveto
          -4 -5 -4 -9 hhcurveto
          -15 -1 13 30 hvcurveto
          157 22 vlineto
          22 callgsubr
          17 -2 callgsubr
          -22 95 hlineto
          21 -15 11 -35 vhcurveto
          -35 hlineto
          -33 -19 -11 -21 -2 hvcurveto
          -12 -95 rlineto
          hintmask 11100110
          -63 hlineto
          -36 -31 33 50 49 14 33 29 hvcurveto
          17 12 -7 7 hhcurveto
          14 20 34 48 27 -57 15 -43 -104 -62 -68 -107 -69 24 -53 46 -24 hvcurveto
          -4 vlineto
          hintmask 11011010
          -73 -30 -15 -67 -82 vvcurveto
          -133 59 -79 124 65 32 12 28 56 vhcurveto
          -27 19 25 -13 47 hhcurveto
          27 61 3 46 8 -11 64 -18 hvcurveto
          -335 93 rmoveto
          66 13 37 64 vhcurveto
          73 -176 hlineto
          -19 -42 -23 -5 -28 hhcurveto
          -47 -10 35 62 hvcurveto
          endchar
        </CharString>
        <CharString name="aogonek">
          -30 -156 69 79 -30 callsubr
          -16 callgsubr
          -72 67 hintmask 00000000
          hintmask 10111001
          487 -83 rmoveto
          -5 callsubr
          19 4 24 10 23 hvcurveto
          2 3 1 2 3 vvcurveto
          hintmask 11011110
          21 -12 21 103 vvcurveto
          182 vlineto
          101 -52 72 -146 -79 -82 -31 -35 -21 31 -59 21 vhcurveto
          14 32 29 52 hhcurveto
          43 18 -21 -42 hvcurveto
          -16 vlineto
          -206 1 -27 -111 -76 vvcurveto
          -95 47 -62 90 vhcurveto
          hintmask 11011001
          58 36 35 23 14 hvcurveto
          hintmask 10111001
          -29 7 5 -22 24 hhcurveto
          8 15 1 2 17 hvcurveto
          -9 -26 -3 -23 67 callgsubr
          hintmask 11011110
          -216 215 rmoveto
          -20 -10 -20 -13 -21 hhcurveto
          -32 -17 25 36 63 callsubr
          hvcurveto
          endchar
        </CharString>
        <CharString name="approxequal">
          -73 89 83 -54 83 78 73 callgsubr
          43 358 hintmask 00000000
          hintmask 10011000
          76 277 0 callsubr
          hintmask 01011000
          66 callgsubr
          8 -193 0 callsubr
          hintmask 01101000
          66 callgsubr
          endchar
        </CharString>
        <CharString name="aring">
          -45 callgsubr
          19 62 73 64 hstemhm
          38 133 -36 62 74 61 -61 121 callsubr
          hintmask 0111110110000000
          233 550 -65 callsubr
          hintmask 1011011001000000
          -59 -620 -36 callgsubr
          hintmask 0111011001000000
          -105 callsubr
          hintmask 1011011001000000
          -89 callsubr
          endchar
        </CharString>
        <CharString name="aringacute">
          -45 callgsubr
          19 62 73 64 21 159 hstemhm
          38 133 -36 62 74 61 -61 121 callsubr
          hintmask 0111111011000000
          214 770 rmoveto
          -107 callsubr
          19 -220 rmoveto
          63 36 42 57 hvcurveto
          hintmask 0111010011000000
          58 -36 42 -63 -62 -36 -42 -58 vhcurveto
          hintmask 0111111011000000
          -57 36 -42 62 vhcurveto
          1 62 rmoveto
          -24 -13 13 23 hvcurveto
          hintmask 0111010011000000
          23 13 14 24 23 14 -14 -23 vhcurveto
          hintmask 0111111011000000
          -23 -14 -13 -23 vhcurveto
          hintmask 1011010100100000
          -59 -620 -36 callgsubr
          hintmask 0111010100100000
          -105 callsubr
          hintmask 1011010100100000
          -89 callsubr
          endchar
        </CharString>
        <CharString name="arrowdown">
          -6 706 -20 hstem
          199 107 vstem
          253 17 rmoveto
          8 5 2 5 5 hvcurveto
          208 210 rlineto
          15 15 6 15 21 vvcurveto
          86 vlineto
          12 -2 7 -5 -3 -5 -4 -6 -6 vhcurveto
          -173 -176 rlineto
          470 vlineto
          21 -13 11 -31 vhcurveto
          -19 hlineto
          -31 -13 -71 callgsubr
          -470 vlineto
          -172 175 rlineto
          6 -6 -5 4 -3 hhcurveto
          -5 -2 -7 -12 hvcurveto
          -86 vlineto
          -21 6 -15 15 -15 vhcurveto
          208 -209 rlineto
          -5 5 5 -2 8 hhcurveto
          endchar
        </CharString>
        <CharString name="arrowleft">
          144 callgsubr
          1 585 vstem
          248 -1 rmoveto
          57 hlineto
          21 10 2 8 5 -5 8 -11 14 hvcurveto
          -150 174 rlineto
          384 hlineto
          21 11 13 31 hvcurveto
          19 vlineto
          31 -11 13 -21 vhcurveto
          -383 hlineto
          147 172 rlineto
          12 15 5 8 5 vvcurveto
          7 -9 3 -22 vhcurveto
          -57 hlineto
          -24 -14 -7 -15 -13 hvcurveto
          -188 -223 rlineto
          -4 -6 -3 -4 0 -8 0 -8 3 -5 -5 flex1
          189 -225 rlineto
          -15 12 14 -7 25 hhcurveto
          endchar
        </CharString>
        <CharString name="arrowright">
          144 callgsubr
          14 585 vstem
          296 -1 rmoveto
          57 hlineto
          24 14 7 15 13 hvcurveto
          188 225 rlineto
          5 5 2 5 0 8 0 8 -2 4 6 flex1
          -188 223 rlineto
          15 -13 -14 7 -24 hhcurveto
          -57 hlineto
          -22 -9 -3 -7 -5 5 -8 12 -15 hvcurveto
          147 -172 rlineto
          -383 hlineto
          -21 -11 -13 -31 hvcurveto
          -19 vlineto
          -31 11 -13 21 vhcurveto
          384 hlineto
          -150 -174 rlineto
          -11 -14 -4 -8 -5 vvcurveto
          -8 9 -2 22 vhcurveto
          endchar
        </CharString>
        <CharString name="arrowup">
          -6 22 callsubr
          hstem
          199 107 vstem
          243 -2 rmoveto
          19 hlineto
          31 13 -60 callsubr
          492 vlineto
          172 -176 rlineto
          -6 6 5 -4 3 hhcurveto
          5 2 7 12 hvcurveto
          87 vlineto
          21 -6 15 -15 15 vhcurveto
          -208 209 rlineto
          -5 5 -5 2 -8 -8 -5 -2 -5 hflex1
          -208 -210 rlineto
          -15 -15 -6 -15 -21 vvcurveto
          -86 vlineto
          -12 2 -7 5 3 5 4 6 6 vhcurveto
          173 177 rlineto
          -493 vlineto
          -21 13 -11 31 vhcurveto
          endchar
        </CharString>
        <CharString name="asciicircum">
          -151 318 368 hstem
          19 323 vstem
          47 318 rmoveto
          26 hlineto
          25 16 9 21 6 hvcurveto
          60 207 60 -207 rlineto
          -21 7 17 -9 25 hhcurveto
          25 hlineto
          21 7 6 9 4 -1 5 -2 6 hvcurveto
          -106 308 rlineto
          21 -7 -12 9 -18 hhcurveto
          -31 hlineto
          -18 -12 -9 -21 -7 hvcurveto
          -106 -308 rlineto
          -2 -6 17 callgsubr
          8 -6 20 vhcurveto
          endchar
        </CharString>
        <CharString name="asciitilde">
          -74 217 73 callgsubr
          35 366 hintmask 00000000
          hintmask 01100000
          75 215 rmoveto
          -1 5 6 -1 5 hhcurveto
          13 9 6 11 10 hvcurveto
          15 13 10 1 7 hhcurveto
          hintmask 10100000
          -1 33 65 -28 40 hhcurveto
          52 39 33 37 16 hvcurveto
          1 4 2 4 7 vvcurveto
          11 -7 10 -19 5 vhcurveto
          -13 3 rlineto
          1 -5 -5 1 -6 hhcurveto
          -15 -9 -7 -10 -9 hvcurveto
          -15 -13 -9 -1 -8 hhcurveto
          hintmask 01100000
          1 -32 -65 28 -40 hhcurveto
          -53 -37 -31 -38 -16 hvcurveto
          -4 -16 callsubr
          6 -12 21 -5 vhcurveto
          endchar
        </CharString>
        <CharString name="asterisk">
          -212 708 -20 hstem
          117 60 vstem
          79 412 rmoveto
          7 1 9 4 7 12 45 72 rcurveline
          45 -72 7 -11 8 -5 8 -1 rlinecurve
          13 20 14 12 1 hvcurveto
          7 -2 7 -7 10 vhcurveto
          -48 78 64 24 rlineto
          14 6 8 6 11 vvcurveto
          18 -11 19 -18 -4 -4 0 -3 -8 vhcurveto
          -56 -21 rlineto
          78 vlineto
          21 -9 9 -21 -21 -9 -9 -21 vhcurveto
          -78 vlineto
          -57 21 rlineto
          3 -7 -5 0 -4 hhcurveto
          -21 -7 -23 -14 -11 8 -6 14 -6 hvcurveto
          63 -24 -47 -78 -7 -10 -3 -7 1 -7 rlinecurve
          -12 20 -14 14 vhcurveto
          endchar
        </CharString>
        <CharString name="at">
          281 -123 54 127 83 -83 101 251 98 146 54 hstemhm
          55 64 90 125 77 121 131 64 hintmask 1101111110000000
          441 708 rmoveto
          -217 -169 -204 -265 -214 111 -148 162 43 98 11 39 23 -5 10 -9 hvcurveto
          -18 -32 -29 -71 hhcurveto
          -130 -85 124 182 236 141 181 179 134 90 -106 -168 -127 -49 -112 -54 -19 -9 13 20 hvcurveto
          26 26 269 10 vvcurveto
          13 -12 11 -35 vhcurveto
          -12 hlineto
          -35 -7 -10 -27 -8 hvcurveto
          17 -15 -30 25 -39 hhcurveto
          -92 -64 -108 -161 hvcurveto
          hintmask 1011111110000000
          -118 45 -63 66 43 34 26 34 18 vhcurveto
          hintmask 1101111110000000
          -35 13 34 -25 51 hhcurveto
          122 92 145 180 196 -114 129 -172 hvcurveto
          hintmask 1011111110000000
          -30 -518 rmoveto
          -16 -11 -13 -15 -17 hhcurveto
          -24 -12 19 69 107 23 56 38 14 11 -8 -10 9 hvcurveto
          -10 -59 -6 -91 -2 -52 rrcurveto
          endchar
        </CharString>
        <CharString name="atilde">
          -45 callgsubr
          51 83 -54 83 -16 callgsubr
          hintmask 01110101
          105 -27 callgsubr
          hintmask 01111001
          -103 callgsubr
          hintmask 10110111
          -91 callsubr
          81 -591 -36 callgsubr
          hintmask 01110111
          -105 callsubr
          hintmask 10110111
          -89 callsubr
          endchar
        </CharString>
        <CharString name="b">
          -8 121 -100 -21 27 -21 416 117 223 111 callsubr
          99 150 hintmask 00000000
          hintmask 01011110
          295 -8 rmoveto
          90 62 96 172 176 -61 95 -105 -39 -27 -15 -15 -17 hvcurveto
          221 -100 callgsubr
          hintmask 00111110
          -692 -38 callgsubr
          12 hlineto
          30 19 4 22 6 hvcurveto
          hintmask 01011110
          8 38 rlineto
          -40 21 42 -30 47 hhcurveto
          hintmask 10011110
          -49 121 rmoveto
          -21 -15 15 19 -12 hvcurveto
          252 vlineto
          8 10 14 7 18 hhcurveto
          38 19 -33 -120 -110 -16 -38 -35 hvcurveto
          endchar
        </CharString>
        <CharString name="backslash">
          -222 702 -20 hstem
          -1 285 vstem
          208 -22 rmoveto
          39 hlineto
          24 13 9 14 4 -1 4 -4 26 hvcurveto
          -159 636 rlineto
          21 -5 -16 10 -26 hhcurveto
          -36 hlineto
          -25 -12 -9 -14 -1 hvcurveto
          -4 1 -3 3 -20 vhcurveto
          158 -643 rlineto
          -21 5 17 -10 25 hhcurveto
          endchar
        </CharString>
        <CharString name="bar">
          -311 -138 906 hstem
          41 120 vstem
          94 -138 rmoveto
          14 hlineto
          38 15 9 21 hvcurveto
          846 vlineto
          21 -15 9 -38 vhcurveto
          -14 hlineto
          -37 -16 -9 -21 hvcurveto
          -846 vlineto
          -21 16 -9 37 vhcurveto
          endchar
        </CharString>
        <CharString name="braceleft">
          -262 -138 94 718 94 hstem
          77 115 vstem
          176 -138 rmoveto
          39 hlineto
          21 9 12 28 hvcurveto
          14 vlineto
          27 -9 12 -19 1 vhcurveto
          -1 hlineto
          -17 -7 12 24 hvcurveto
          187 vlineto
          66 -20 48 -37 22 vhcurveto
          37 22 20 48 66 vvcurveto
          187 vlineto
          26 8 10 21 vhcurveto
          -2 hlineto
          18 1 8 13 26 vvcurveto
          14 vlineto
          28 -9 12 -21 vhcurveto
          -39 hlineto
          -58 -41 -48 -68 hvcurveto
          -185 vlineto
          -55 -10 -28 -26 -13 vhcurveto
          -19 -11 -10 -13 -26 vvcurveto
          -12 vlineto
          -26 10 -13 19 -11 vhcurveto
          26 -13 10 -28 -55 vvcurveto
          -185 vlineto
          -68 41 -48 58 vhcurveto
          endchar
        </CharString>
        <CharString name="braceright">
          -262 -138 94 718 94 hstem
          66 115 vstem
          43 -138 rmoveto
          39 hlineto
          58 41 48 68 hvcurveto
          185 vlineto
          55 9 28 27 13 vhcurveto
          19 11 10 13 26 vvcurveto
          12 vlineto
          26 -10 13 -19 11 vhcurveto
          -27 13 -9 28 55 vvcurveto
          185 vlineto
          68 -41 48 -58 vhcurveto
          -39 hlineto
          -21 -9 -12 -28 hvcurveto
          -14 vlineto
          -26 8 -13 18 -1 vhcurveto
          -1 hlineto
          21 7 -10 -26 hvcurveto
          -187 vlineto
          -66 20 -48 37 -22 vhcurveto
          -37 -22 -20 -48 -66 vvcurveto
          -187 vlineto
          -24 -7 -12 -17 vhcurveto
          -1 hlineto
          -19 -1 -9 -12 -27 vvcurveto
          -14 vlineto
          -28 9 -12 21 vhcurveto
          endchar
        </CharString>
        <CharString name="bracketleft">
          -272 -138 95 716 95 hstem
          48 113 vstem
          85 -138 rmoveto
          106 hlineto
          21 8 12 28 hvcurveto
          15 vlineto
          28 -8 12 -21 vhcurveto
          -30 716 30 hlineto
          21 8 12 28 hvcurveto
          15 vlineto
          28 -8 12 -21 vhcurveto
          -106 hlineto
          -26 41 callgsubr
          -826 vlineto
          -37 callsubr
          endchar
        </CharString>
        <CharString name="bracketright">
          -272 -138 95 716 95 hstem
          80 112 vstem
          49 -138 rmoveto
          106 hlineto
          26 11 12 28 hvcurveto
          826 vlineto
          28 -11 12 -26 vhcurveto
          -106 hlineto
          -20 -9 -12 -28 hvcurveto
          -15 vlineto
          -28 9 -12 20 vhcurveto
          31 -716 -31 hlineto
          -20 -9 -12 -28 hvcurveto
          -15 vlineto
          -28 9 -12 20 vhcurveto
          endchar
        </CharString>
        <CharString name="breve">
          -255 575 91 hstem
          -4 261 vstem
          126 575 -102 callgsubr
          endchar
        </CharString>
        <CharString name="brokenbar">
          -311 -140 910 hstem
          41 120 vstem
          94 380 rmoveto
          46 callgsubr
          -520 vmoveto
          46 callgsubr
          endchar
        </CharString>
        <CharString name="bullet">
          -213 194 265 hstem
          28 242 vstem
          149 194 rmoveto
          66 55 42 90 90 -55 43 -66 -67 -54 -43 -90 -90 54 -42 67 hvcurveto
          endchar
        </CharString>
        <CharString name="c">
          92 callgsubr
          hstem
          34 151 vstem
          246 -8 -81 callgsubr
        </CharString>
        <CharString name="cacute">
          -103 126 callgsubr
          151 vstem
          207 575 rmoveto
          -107 callsubr
          39 -583 -81 callgsubr
        </CharString>
        <CharString name="cacute.loclPLK">
          -103 126 callgsubr
          151 vstem
          209 575 -82 callgsubr
          37 -583 -81 callgsubr
        </CharString>
        <CharString name="caron">
          134 callsubr
          122 572 -105 callgsubr
          endchar
        </CharString>
        <CharString name="caron.alt">
          -255 700 -20 hstem
          30 123 vstem
          75 511 rmoveto
          -18 callgsubr
          147 callsubr
        </CharString>
        <CharString name="ccaron">
          -103 96 callgsubr
          hstem
          34 151 vstem
          224 572 -105 callgsubr
          22 -580 -81 callgsubr
        </CharString>
        <CharString name="ccedilla">
          -103 -212 73 154 -21 420 117 hstem
          34 151 53 93 vstem
          396 61 rmoveto
          22 -22 54 -22 -4 -6 -3 -4 -8 vhcurveto
          -7 -15 -24 -14 -32 hhcurveto
          -51 -27 40 113 112 28 40 53 29 21 -12 -8 15 hvcurveto
          -5 8 6 -3 5 hhcurveto
          20 25 55 21 37 -72 32 -73 -148 -68 -94 -177 -168 62 -86 118 -12 hvcurveto
          -16 -47 -7 -18 -8 -68 callsubr
          13 43 rlineto
          53 8 63 25 33 vvcurveto
          endchar
        </CharString>
        <CharString name="ccircumflex">
          -103 96 callgsubr
          hstem
          34 151 vstem
          124 572 -107 callgsubr
          122 -580 -81 callgsubr
        </CharString>
        <CharString name="cdotaccent">
          92 callgsubr
          47 124 hstemhm
          34 151 -25 137 hintmask 00000000
          hintmask 11101000
          230 -81 callsubr
          hintmask 11110000
          16 -586 -81 callgsubr
        </CharString>
        <CharString name="cedilla">
          -255 -212 73 91 58 hstem
          132 93 vstem
          161 -48 rmoveto
          17 58 rlineto
          -64 hlineto
          -21 -59 -8 -21 -9 -68 callsubr
          endchar
        </CharString>
        <CharString name="cent">
          -71 -7 116 -95 -21 22 -21 420 117 -3 -20 23 -20 hstemhm
          34 151 22 55 hintmask 00000000
          hintmask 10000101
          396 61 rmoveto
          hintmask 10010001
          22 -22 54 -22 -4 -6 -3 -4 -8 vhcurveto
          -7 -15 -24 -14 -32 hhcurveto
          -1 305 4 hlineto
          29 21 -12 -8 15 hvcurveto
          -5 8 6 -3 5 hhcurveto
          20 25 55 21 35 -64 30 -69 4 hvcurveto
          hintmask 00101001
          26 vlineto
          21 -9 9 -20 -17 -9 -9 -21 vhcurveto
          -29 vlineto
          hintmask 00101011
          -118 -17 -55 -92 -159 vvcurveto
          hintmask 00100101
          -164 59 -86 114 -16 vhcurveto
          hintmask 01000101
          -42 vlineto
          -21 9 -9 20 17 9 9 21 vhcurveto
          41 vlineto
          56 4 78 27 37 vvcurveto
          hintmask 00100111
          -211 201 rmoveto
          hintmask 00100101
          58 7 38 15 24 vhcurveto
          -243 vlineto
          hintmask 00100111
          -15 24 -7 40 59 vvcurveto
          endchar
        </CharString>
        <CharString name="circumflex">
          134 callsubr
          22 572 -107 callgsubr
          endchar
        </CharString>
        <CharString name="colon">
          -323 -2 156 215 156 hstem
          19 149 vstem
          77 369 rmoveto
          -49 callsubr
          -371 vmoveto
          -49 callsubr
          endchar
        </CharString>
        <CharString name="comma">
          -323 -125 279 hstem
          32 136 vstem
          40 -125 rmoveto
          48 callgsubr
          -16 27 -6 17 vhcurveto
          endchar
        </CharString>
        <CharString name="copyright">
          81 -8 64 96 73 253 74 92 64 hstem
          10 66 85 87 267 0 callgsubr
          8 96 rmoveto
          23 77 13 34 9 -13 40 -20 hvcurveto
          -6 -22 -23 -39 hhcurveto
          -38 -18 44 84 83 18 42 38 hvcurveto
          41 14 -18 6 hhcurveto
          14 22 37 16 23 -59 16 -36 -97 -48 -66 -133 -138 46 -63 97 hvcurveto
          endchar
        </CharString>
        <CharString name="currency">
          -49 78 114 194 114 hstem
          50 114 125 115 vstem
          99 72 rmoveto
          9 8 4 8 8 hvcurveto
          19 19 rlineto
          -16 25 29 -9 30 hhcurveto
          31 29 9 18 26 hvcurveto
          20 -21 rlineto
          8 -8 9 -4 8 9 8 4 8 hflex1
          30 30 113 callsubr
          -29 30 rlineto
          12 29 8 32 34 vvcurveto
          36 -8 33 -14 30 vhcurveto
          34 34 113 callsubr
          -30 30 129 callgsubr
          -26 -27 rlineto
          16 -25 -28 9 -30 hhcurveto
          -29 -27 -9 -15 -24 hvcurveto
          -26 26 129 callgsubr
          -30 -30 115 callsubr
          32 -32 rlineto
          -15 -30 -8 -35 -36 vvcurveto
          -35 8 -33 13 -30 vhcurveto
          -27 -27 115 callsubr
          30 -30 rlineto
          -8 8 9 -4 8 hhcurveto
          128 120 rmoveto
          -35 -28 32 65 65 28 32 35 35 27 -32 -65 -65 -27 -32 -35 hvcurveto
          endchar
        </CharString>
        <CharString name="d">
          -30 136 callgsubr
          223 91 callsubr
          hintmask 00000000
          hintmask 01011110
          43 callgsubr
          hintmask 00111110
          -63 callgsubr
          hintmask 01011110
          108 callgsubr
          hintmask 10011110
          50 121 -3 callgsubr
          endchar
        </CharString>
        <CharString name="dagger">
          -83 410 74 callgsubr
          518 95 vlineto
          14 callgsubr
          -518 hlineto
          -21 12 -11 31 vhcurveto
          endchar
        </CharString>
        <CharString name="daggerdbl">
          -83 42 107 261 74 callgsubr
          150 95 vlineto
          21 8 58 callgsubr
          -8 15 -21 vhcurveto
          -95 261 95 hlineto
          14 callgsubr
          -261 -96 -13 callgsubr
          96 -150 hlineto
          -21 12 -11 31 vhcurveto
          endchar
        </CharString>
        <CharString name="dcaron">
          -30 136 callgsubr
          -20 20 169 -20 74 91 callsubr
          15 123 hintmask 0000000000000000
          hintmask 0100111110000000
          43 callgsubr
          hintmask 0010111110000000
          -63 callgsubr
          hintmask 0100111110000000
          108 callgsubr
          hintmask 1000111111000000
          307 519 rmoveto
          -18 callgsubr
          62 callsubr
          -257 -398 rmoveto
          -34 -16 42 106 hvcurveto
          hintmask 1001011110000000
          112 19 41 39 18 13 -7 -7 10 vhcurveto
          -247 vlineto
          hintmask 1000111111000000
          -22 -11 -16 -18 -22 hhcurveto
          endchar
        </CharString>
        <CharString name="dcroat">
          -44 136 callgsubr
          52 95 76 91 callsubr
          hintmask 00111111
          462 678 rmoveto
          -30 44 hlineto
          -15 callsubr
          -42 vhcurveto
          -28 hlineto
          -42 -25 callgsubr
          -44 -57 vlineto
          -24 -12 -12 -28 hvcurveto
          -15 vlineto
          -28 12 -12 24 vhcurveto
          57 -81 hlineto
          16 -18 -27 13 -37 hhcurveto
          -105 -62 -95 -172 hvcurveto
          hintmask 01011111
          -177 64 -95 86 49 38 30 40 19 vhcurveto
          hintmask 00111111
          -26 5 6 -37 30 19 callgsubr
          407 30 vlineto
          26 9 12 28 hvcurveto
          15 vlineto
          28 -9 12 -26 vhcurveto
          hintmask 10011111
          -178 -525 rmoveto
          -22 -11 -16 -18 -22 hhcurveto
          -34 -16 42 106 112 19 41 39 18 13 -7 -7 10 hvcurveto
          endchar
        </CharString>
        <CharString name="degree">
          -235 443 62 141 62 hstem
          31 64 82 66 vstem
          137 443 rmoveto
          58 48 39 93 93 -48 40 -58 -58 -48 -40 -93 -93 48 -39 58 hvcurveto
          -1 62 rmoveto
          -22 -19 21 49 49 19 22 22 22 19 -22 -49 -49 -19 -21 -22 hvcurveto
          endchar
        </CharString>
        <CharString name="dieresis">
          -255 578 124 hstem
          -9 45 callgsubr
          vstem
          49 578 -101 callgsubr
          endchar
        </CharString>
        <CharString name="divide">
          -63 -2 135 39 107 39 135 hstem
          159 128 vstem
          217 318 rmoveto
          12 -64 callgsubr
          71 -70 callgsubr
          vhcurveto
          -12 -87 callsubr
          -71 -72 callsubr
          -180 -146 rmoveto
          375 hlineto
          18 24 callsubr
          -18 vhcurveto
          -375 hlineto
          6 callgsubr
          180 -174 rmoveto
          12 -64 callgsubr
          71 -70 callgsubr
          vhcurveto
          -12 -87 callsubr
          -71 -72 callsubr
          endchar
        </CharString>
        <CharString name="dollar">
          -71 13 -21 24 -21 711 -20 21 -20 hstemhm
          19 135 37.5 56.5 39 133 hintmask 01010110
          211 -75 rmoveto
          17 hlineto
          12 8 6 14 hvcurveto
          50 vlineto
          110 24 62 77 107 vvcurveto
          135 -92 40 -69 34 vhcurveto
          -11 5 1 159 17 -1 16 -4 27 -9 rlinecurve
          -3 10 12 -4 9 hhcurveto
          28 11 60 30 -4 hvcurveto
          -1 14 -10 12 -16 9 -26 15 -39 9 -35 3 rrcurveto
          hintmask 10101110
          38 vlineto
          14 -2 -4 6 -14 hhcurveto
          -17 hlineto
          -14 -7 -6 -14 1 hvcurveto
          -39 vlineto
          -106 -12 -66 -75 -107 vvcurveto
          -138 84 -46 89 -37 vhcurveto
          -1 -168 -39 1 -25 12 -39 20 rlinecurve
          4 -8 -6 3 -6 hhcurveto
          -28 -17 -62 -35 4 hvcurveto
          3 -27 37 -20 32 -11 27 -9 31 -6 34 -1 rrcurveto
          hintmask 01010110
          -47 vlineto
          -14 2 3 -6 15 hhcurveto
          -20 520 rmoveto
          hintmask 01011110
          -19 12 -17 23 -1 28 -1 16 2 28 36 16 rrcurveto
          57 -435 rmoveto
          128 vlineto
          19 -11 20 -14 -38 vvcurveto
          -30 -15 -24 -24 -11 vhcurveto
          endchar
        </CharString>
        <CharString name="dotaccent">
          -255 578 124 hstem
          61 137 vstem
          131 -81 callsubr
          endchar
        </CharString>
        <CharString name="dotbelowcomb">
          -511 -4 callsubr
          hstem
          -63 137 vstem
          7 -204 -106 callsubr
          endchar
        </CharString>
        <CharString name="dotlessi">
          88 callsubr
          hstem
          53 148 vstem
          113 -2 -86 callsubr
          endchar
        </CharString>
        <CharString name="e">
          -6 callsubr
          hstem
          13 callgsubr
          vstem
          260 -8 -96 callgsubr
        </CharString>
        <CharString name="eacute">
          75 callsubr
          210 575 rmoveto
          -107 callsubr
          50 -583 -96 callgsubr
        </CharString>
        <CharString name="ebreve">
          -6 callsubr
          44 91 hstem
          13 callgsubr
          vstem
          230 575 -102 callgsubr
          30 -583 -96 callgsubr
        </CharString>
        <CharString name="ecaron">
          -57 88 callgsubr
          hstem
          13 callgsubr
          vstem
          227 572 -105 callgsubr
          33 -47 callsubr
        </CharString>
        <CharString name="ecircumflex">
          -57 88 callgsubr
          hstem
          13 callgsubr
          vstem
          127 572 -107 callgsubr
          133 -47 callsubr
        </CharString>
        <CharString name="edieresis">
          -6 callsubr
          47 124 hstemhm
          34 147 -87 45 callgsubr
          -77 135 hintmask 11110110
          152 578 -101 callgsubr
          hintmask 11111001
          -54 -586 -96 callgsubr
        </CharString>
        <CharString name="edotaccent">
          -6 callsubr
          47 124 hstemhm
          34 147 -18 137 -7 135 hintmask 11110100
          233 -81 callsubr
          hintmask 11111010
          27 -586 -96 callgsubr
        </CharString>
        <CharString name="egrave">
          75 callsubr
          246 575 -102 callsubr
          14 -583 -96 callgsubr
        </CharString>
        <CharString name="eight">
          -52 -8 117 482 117 hstemhm
          27 139 -126 137 115 133 -128 140 hintmask 11100100
          234 -8 rmoveto
          147 56 104 99 100 -43 51 -51 33 hvcurveto
          hintmask 11011000
          40 24 42 40 89 vvcurveto
          101 -68 75 -120 -127 -70 -78 -106 -77 34 -42 41 -33 vhcurveto
          hintmask 11100100
          -47 -27 -41 -53 -93 vvcurveto
          -111 61 -96 146 vhcurveto
          hintmask 11011000
          10 448 rmoveto
          -38 21 -29 25 43 vvcurveto
          42 29 20 30 30 26 -22 -42 -36 -16 -29 -32 -22 vhcurveto
          hintmask 11100100
          -11 -331 rmoveto
          -40 -27 28 66 50 17 29 29 23 hvcurveto
          46 -26 39 -29 -61 vvcurveto
          -40 -21 -40 -43 vhcurveto
          endchar
        </CharString>
        <CharString name="ellipsis">
          41 -2 156 hstem
          19 143 42 143 42 143 vstem
          77 -2 rmoveto
          27 -64 callgsubr
          92 -70 callgsubr
          vhcurveto
          -27 -14 callsubr
          185 hmoveto
          27 -64 callgsubr
          92 -70 callgsubr
          vhcurveto
          -27 -14 callsubr
          185 hmoveto
          28 94 callgsubr
          92 -62 callsubr
          -40 vhcurveto
          -28 -14 callsubr
          endchar
        </CharString>
        <CharString name="emacron">
          -6 callsubr
          66 95 hstem
          13 callgsubr
          vstem
          135 597 -84 callgsubr
          125 -605 -96 callgsubr
        </CharString>
        <CharString name="emdash">
          375 212 107 hstem
          0 886 vstem
          29 212 rmoveto
          828 18 callsubr
          -828 -13 callgsubr
          endchar
        </CharString>
        <CharString name="endash">
          -68 212 107 hstem
          0 443 vstem
          29 212 rmoveto
          385 18 callsubr
          -385 -13 callgsubr
          endchar
        </CharString>
        <CharString name="eng">
          95 callgsubr
          114 26 callgsubr
          71 callsubr
          hintmask 11011100
          299 -212 rmoveto
          78 59 53 109 hvcurveto
          442 vlineto
          91 -38 48 -74 -61 -44 -38 -38 -26 vhcurveto
          42 callgsubr
          hintmask 11101100
          19 callsubr
          23 hhcurveto
          29 8 -18 -33 hvcurveto
          -410 vlineto
          -30 -7 -13 -18 vhcurveto
          -11 -13 4 -6 hhcurveto
          -20 -10 -47 -23 hvcurveto
          hintmask 11011100
          -39 35 -12 63 vhcurveto
          endchar
        </CharString>
        <CharString name="eogonek">
          -57 -173 69 96 -19 callgsubr
          hstemhm
          34 147 103 67 -58 135 hintmask 00000000
          hintmask 11111100
          424 -100 rmoveto
          -5 callsubr
          21 5 26 12 26 hvcurveto
          27 12 20 16 21 vvcurveto
          20 -30 56 -22 vhcurveto
          -61 callsubr
          hintmask 01111010
          190 hlineto
          13 38 42 17 168 -51 101 -135 -122 -86 -65 -208 -172 69 -94 157 hvcurveto
          hintmask 11111100
          11 14 1 2 15 hvcurveto
          -12 -29 -4 -28 -17 -58 callgsubr
          hintmask 01111010
          -183 524 rmoveto
          38 14 -38 -94 hvcurveto
          -112 hlineto
          104 5 21 28 34 hhcurveto
          endchar
        </CharString>
        <CharString name="equal">
          -62 86 107 74 107 hstem
          30 389 vstem
          54 267 rmoveto
          342 hlineto
          17 24 callsubr
          -17 vhcurveto
          -342 hlineto
          6 callgsubr
          -181 vmoveto
          342 hlineto
          17 24 callsubr
          -17 vhcurveto
          -342 hlineto
          6 callgsubr
          endchar
        </CharString>
        <CharString name="estimated">
          104 -7 55 307 50 252 50 hstem
          22 169 237 165 vstem
          312 707 rmoveto
          -159 -131 -125 -227 -232 135 -130 163 81 77 39 65 55 hvcurveto
          6 8 4 6 8 vvcurveto
          11 -15 16 -13 -8 -6 -6 -9 -8 vhcurveto
          -52 -38 -74 -31 -61 hhcurveto
          -48 -44 12 25 -37 hvcurveto
          270 402 vlineto
          227 -127 125 -154 vhcurveto
          -121 -85 rmoveto
          23 35 41 12 45 hhcurveto
          42 39 -12 -24 35 hvcurveto
          -216 -237 vlineto
          endchar
        </CharString>
        <CharString name="eth">
          -34 -8 117 300 117 55 61 -33 61 hstemhm
          -27 callsubr
          hintmask 00000000
          hintmask 11011100
          346 606 rmoveto
          46 6 rlineto
          14 2 7 5 9 vvcurveto
          20 -20 22 -17 -3 -28 -4 -5 -37 vhcurveto
          hintmask 11101100
          -14 18 -12 15 -14 10 rrcurveto
          7 -11 -12 4 -15 hhcurveto
          -21 -2 -20 -3 -21 -2 rrcurveto
          -13 -2 -6 -4 -6 vvcurveto
          -8 25 -26 13 -17 vhcurveto
          -43 -6 rlineto
          -15 -2 -6 -5 -9 vvcurveto
          -21 19 -21 20 3 3 0 8 55 vhcurveto
          12 -22 11 -20 9 -22 rrcurveto
          1 -6 -6 0 -5 hhcurveto
          -135 -69 -93 -171 -174 70 -96 134 -32 callgsubr
          hvcurveto
          hintmask 11011100
          135 -48 132 -49 77 vhcurveto
          hintmask 11101100
          -107 -497 rmoveto
          -40 -15 40 113 109 15 38 40 39 15 -38 -109 -113 -15 -40 -39 hvcurveto
          endchar
        </CharString>
        <CharString name="exclam">
          -265 -2 156 548 -20 hstemhm
          47 149 -129 111 hintmask 11100000
          119 222 rmoveto
          8 hlineto
          hintmask 11010000
          43 5 11 21 3 hvcurveto
          51 420 rlineto
          18 -22 10 -36 vhcurveto
          hintmask 11100000
          -46 -87 callsubr
          -416 vlineto
          -21 9 -11 43 vhcurveto
          -14 -224 rmoveto
          -49 callsubr
          endchar
        </CharString>
        <CharString name="exclamdown">
          -265 369 156 hstemhm
          21 162 -128 149 hintmask 10100000
          113 369 rmoveto
          -49 callsubr
          hintmask 11000000
          -34 -549 rmoveto
          46 -64 callgsubr
          416 vlineto
          21 -8 11 -43 vhcurveto
          -9 hlineto
          -43 -4 -11 -21 -3 hvcurveto
          -18 -140 -34 -259 -21 vvcurveto
          -18 22 -10 36 vhcurveto
          endchar
        </CharString>
        <CharString name="f">
          -225 19 104 callsubr
          0 -20 hstemhm
          65 148 hintmask 11011000
          47 callsubr
          hintmask 11101000
          77 vlineto
          -54 callgsubr
          -376 hlineto
          hintmask 11011000
          -45 callsubr
          endchar
        </CharString>
        <CharString name="f_f">
          61 19 104 callsubr
          hstem
          65 148 138 148 vstem
          530 643 rmoveto
          8 13 -5 7 hhcurveto
          20 11 64 8 40 -67 10 -30 -91 -50 -51 -111 hvcurveto
          -75 -138 77 vlineto
          -54 callgsubr
          -376 hlineto
          29 callsubr
          138 -376 vlineto
          29 callsubr
          33 vlineto
          -53 callsubr
          -33 77 hlineto
          30 9 13 22 vhcurveto
          endchar
        </CharString>
        <CharString name="f_t">
          73 109 callgsubr
          27 104 callsubr
          0 -20 hstemhm
          65 148 131 148 hintmask 00000000
          hintmask 10011011
          543 113 rmoveto
          15 callsubr
          262 37 vlineto
          -53 callsubr
          -37 95 hlineto
          21 -15 11 -35 vhcurveto
          -31 hlineto
          -33 -18 -11 -21 -3 hvcurveto
          -13 -95 rlineto
          -131 77 hlineto
          -54 callgsubr
          hlineto
          hintmask 00110111
          -376 vlineto
          29 callsubr
          131 -258 vlineto
          hintmask 01010111
          122 callsubr
          36 68 12 38 vhcurveto
          hintmask 10011011
          10 -11 61 -19 vhcurveto
          endchar
        </CharString>
        <CharString name="fi">
          29 19 111 callgsubr
          55 124 -59 117 0 -20 hstemhm
          65 148 126 31 callgsubr
          hintmask 11101110
          427 523 rmoveto
          -214 hlineto
          hintmask 11010110
          77 vlineto
          -54 callgsubr
          -376 hlineto
          29 callsubr
          126 -376 vlineto
          129 callsubr
          463 vlineto
          hintmask 11101110
          21 -18 9 -42 vhcurveto
          hintmask 11101101
          -11 55 -106 callsubr
          endchar
        </CharString>
        <CharString name="five">
          -52 -8 117 214 117 143 117 hstem
          46 149 82 150 vstem
          198 -8 rmoveto
          108 121 55 169 172 -88 52 -134 hvcurveto
          -15 hlineto
          10 143 rlineto
          174 hlineto
          21 9 12 28 hvcurveto
          27 -2 callsubr
          -267 hlineto
          -29 -11 -12 -28 -2 hvcurveto
          -19 -297 rlineto
          -28 8 -12 29 vhcurveto
          94 hlineto
          74 26 -41 -70 -65 -33 -38 -51 hvcurveto
          -67 -42 34 -9 hhcurveto
          -23 -31 -61 -18 -40 74 -32 103 hvcurveto
          endchar
        </CharString>
        <CharString name="fl">
          45 109 callgsubr
          27 104 callsubr
          -6 -20 26 -20 hstemhm
          65 148 123 148 hintmask 0011001110000000
          47 callsubr
          hintmask 0011100110000000
          77 vlineto
          -54 callgsubr
          -376 hlineto
          hintmask 0011001110000000
          -45 callsubr
          hintmask 0101001110000000
          340 -6 rmoveto
          38 56 11 36 hvcurveto
          hintmask 1001010110000000
          -68 callgsubr
          hintmask 0101001110000000
          109 callsubr
          endchar
        </CharString>
        <CharString name="florin">
          -182 -186 -21 613 117 120 117 hstemhm
          -2 342 -266 148.5 hintmask 11110000
          53 -207 rmoveto
          31 hlineto
          hintmask 11101000
          44 16 11 22 2 hvcurveto
          60 580 rlineto
          43 hlineto
          41 0 83 3 21 -7 10 -17 hvcurveto
          -48 hlineto
          9 77 rlineto
          30 4 12 13 26 10 13 -4 7 hhcurveto
          20 21 56 16 46 -57 3 -36 -93 -63 -51 -111 -13 hvcurveto
          -8 -75 rlineto
          -20 hlineto
          -41 -1 -80 -6 -22 8 -9 17 hvcurveto
          25 hlineto
          -29 -302 -31 -272 -7 vvcurveto
          hintmask 11110000
          -21 12 -11 43 vhcurveto
          endchar
        </CharString>
        <CharString name="four">
          -52 19 -21 144 117 443 -20 hstem
          246 149 vstem
          307 16 callgsubr
          112 27 vlineto
          -53 callsubr
          -27 411 hlineto
          -15 callsubr
          -42 vhcurveto
          -51 hlineto
          -29 -23 -1 -23 -11 hvcurveto
          -215 -432 rlineto
          -1 -2 -1 -4 -5 vvcurveto
          -27 20 -66 17 vhcurveto
          206 -112 hlineto
          -45 callsubr
          -165 261 rmoveto
          110 235 4 -1 rlineto
          -7 -53 -3 -42 -42 vvcurveto
          -97 vlineto
          endchar
        </CharString>
        <CharString name="fraction">
          -300 21 -21 700 -20 hstem
          -77 369 vstem
          -63 hmoveto
          20 hlineto
          18 14 7 19 10 hvcurveto
          287 648 rlineto
          3 7 3 4 4 vvcurveto
          7 -6 4 -9 vhcurveto
          -21 hlineto
          -17 -15 -7 -19 -8 hvcurveto
          -288 -648 rlineto
          -3 -6 -2 -5 -4 vvcurveto
          -8 5 -3 9 vhcurveto
          endchar
        </CharString>
        <CharString name="g">
          -40 34 callgsubr
          33 callsubr
          86 125 -95 123 hintmask 0000000000000000
          hintmask 1110100010000000
          226 -212 24 callgsubr
          hintmask 1110001100000000
          -69 callsubr
          hintmask 1101010100000000
          3 callgsubr
          hintmask 1110001010000000
          11 callsubr
          hintmask 1110100010000000
          77 callsubr
          hintmask 1101010100000000
          -10 callgsubr
          hintmask 1110100010000000
          -29 callgsubr
        </CharString>
        <CharString name="g.ss01">
          7 callsubr
          139 callgsubr
          hintmask 00000000
          hintmask 11010110
          362 525 54 callsubr
          hintmask 11001110
          -74 callsubr
          hintmask 11010110
          56 callgsubr
          hintmask 11100110
          -51 callgsubr
        </CharString>
        <CharString name="gbreve">
          -40 34 callgsubr
          44 91 33 callsubr
          86 125 -95 123 hintmask 1110101001000000
          228 575 -102 callgsubr
          hintmask 1110110001000000
          -2 -787 -61 callgsubr
        </CharString>
        <CharString name="gbreve.ss01">
          7 callsubr
          64 91 139 callgsubr
          hintmask 11001111
          233 575 -102 callgsubr
          hintmask 11010111
          129 -50 54 callsubr
          hintmask 11001111
          -74 callsubr
          hintmask 11010111
          56 callgsubr
          hintmask 11100111
          -51 callgsubr
        </CharString>
        <CharString name="gcircumflex">
          -40 34 callgsubr
          41 146 33 callsubr
          86 125 -95 123 hintmask 1110101001000000
          125 572 -107 callgsubr
          hintmask 1110110001000000
          101 -784 -61 callgsubr
        </CharString>
        <CharString name="gcircumflex.ss01">
          7 callsubr
          61 146 139 callgsubr
          hintmask 11001111
          130 572 -107 callgsubr
          hintmask 11010111
          232 -47 54 callsubr
          hintmask 11001111
          -74 callsubr
          hintmask 11010111
          56 callgsubr
          hintmask 11100111
          -51 callgsubr
        </CharString>
        <CharString name="gcommaaccent">
          -74 34 callgsubr
          44 189 33 callsubr
          -43 123 6 125 -95 123 hintmask 0000000000000000
          hintmask 1110100010100000
          243 764 rmoveto
          -29 -60 -78 -67 -25 12 -19 33 hvcurveto
          100 callgsubr
          vhcurveto
          hintmask 1110110000100000
          -17 -976 24 callgsubr
          hintmask 1110100101000000
          -69 callsubr
          hintmask 1101101001000000
          3 callgsubr
          hintmask 1110100100100000
          11 callsubr
          hintmask 1110110000100000
          77 callsubr
          hintmask 1101101001000000
          -10 callgsubr
          hintmask 1110110000100000
          -29 callgsubr
        </CharString>
        <CharString name="gcommaaccent.ss01">
          7 callsubr
          64 189 hstemhm
          27 149 1 123 -25 121 callsubr
          hintmask 1100110100000000
          222 575 rmoveto
          100 callgsubr
          -29 -60 -78 -67 -25 12 -19 33 vhcurveto
          hintmask 1101011010000000
          140 -50 54 callsubr
          hintmask 1100111010000000
          -74 callsubr
          hintmask 1101011010000000
          56 callgsubr
          hintmask 1110011010000000
          -51 callgsubr
        </CharString>
        <CharString name="gdotaccent">
          -40 34 callgsubr
          47 124 33 callsubr
          -36 137 -15 125 -95 123 hintmask 1110100010000000
          231 -81 callsubr
          hintmask 1110110000100000
          -5 -790 24 callgsubr
          hintmask 1110100101000000
          -69 callsubr
          hintmask 1101101001000000
          3 callgsubr
          hintmask 1110100100000000
          11 callsubr
          hintmask 1110110000000000
          -49 -24 -27 -39 -55 vvcurveto
          hintmask 1110110000100000
          -89 68 -44 123 vhcurveto
          hintmask 1101101001000000
          -10 callgsubr
          hintmask 1110110000100000
          -29 callgsubr
        </CharString>
        <CharString name="gdotaccent.ss01">
          7 callsubr
          67 124 hstemhm
          27 149 -10 137 -28 121 callsubr
          hintmask 1100110100000000
          236 -81 callsubr
          hintmask 1101011010000000
          126 -53 54 callsubr
          hintmask 1100111010000000
          -74 callsubr
          hintmask 1101011010000000
          56 callgsubr
          hintmask 1110011010000000
          -51 callgsubr
        </CharString>
        <CharString name="germandbls">
          -31 0 117 183 117 166 125 hstemhm
          47 148 101 150 -132 146 hintmask 11110100
          107 16 callgsubr
          489 vlineto
          39 20 25 34 vhcurveto
          hintmask 11111000
          35 12 -28 -54 -55 -16 -29 -26 hvcurveto
          -3 hlineto
          hintmask 11110100
          -18 -9 -17 -33 hvcurveto
          35 callsubr
          21 vhcurveto
          2 hlineto
          36 22 -25 -70 -66 -20 -22 -32 hvcurveto
          -8 -3 callsubr
          17 hlineto
          117 72 70 135 92 -30 45 -60 30 hvcurveto
          4 vlineto
          hintmask 11111000
          49 25 27 52 71 vvcurveto
          127 -86 57 -111 -127 -75 -80 -127 vhcurveto
          -471 vlineto
          hintmask 11110100
          -45 callsubr
          endchar
        </CharString>
        <CharString name="grave">
          -255 110 callgsubr
          33 189 vstem
          193 575 -102 callsubr
          endchar
        </CharString>
        <CharString name="gravecomb">
          -511 110 callgsubr
          -143 189 vstem
          17 575 -102 callsubr
          endchar
        </CharString>
        <CharString name="greater">
          101 callgsubr
          54 16 rmoveto
          334 177 rlineto
          18 10 6 11 22 vvcurveto
          19 vlineto
          21 -6 11 -18 10 vhcurveto
          -321 170 rlineto
          -33 18 -5 -15 -32 vvcurveto
          -16 vlineto
          -38 5 -12 20 -13 vhcurveto
          203 -114 -205 -114 rlineto
          -23 -15 -2 -7 -41 vvcurveto
          -16 vlineto
          -34 2 -15 25 13 vhcurveto
          endchar
        </CharString>
        <CharString name="greaterequal">
          -58 0 107 hstem
          30 386 vstem
          31 171 rmoveto
          -35 -3 -13 29 14 vhcurveto
          333 157 rlineto
          18 9 8 11 21 vvcurveto
          19 vlineto
          21 -8 11 -18 9 vhcurveto
          -330 155 rlineto
          -28 13 1 -9 -37 vvcurveto
          -6 vlineto
          -43 6 -8 17 -10 vhcurveto
          203 -106 -204 -106 rlineto
          -16 -9 -8 -11 -21 vvcurveto
          23 -197 rmoveto
          337 hlineto
          17 7 58 callgsubr
          -7 15 -17 vhcurveto
          -337 hlineto
          6 callgsubr
          endchar
        </CharString>
        <CharString name="guillemotleft">
          -106 47 422 hstem
          17 370 vstem
          157 47 rmoveto
          21 37 21 21 8 -3 7 -5 8 hvcurveto
          -91 146 91 112 callsubr
          -7 -3 -11 -7 vhcurveto
          -102 -153 rlineto
          -10 -14 -5 -12 0 -18 0 -18 5 -12 -14 flex1
          102 -153 rlineto
          -11 7 8 -3 8 hhcurveto
          172 hmoveto
          20 38 21 21 8 -3 7 -5 8 hvcurveto
          -90 146 90 112 callsubr
          -8 -3 -11 -7 vhcurveto
          -101 -153 rlineto
          -10 127 callgsubr
          101 -153 rlineto
          -11 7 9 -3 8 hhcurveto
          endchar
        </CharString>
        <CharString name="guillemotright">
          -106 47 422 hstem
          24 370 vstem
          82 47 rmoveto
          8 9 3 11 7 hvcurveto
          101 153 rlineto
          10 130 callsubr
          -101 153 rlineto
          11 -7 115 callgsubr
          90 -146 -90 114 callgsubr
          172 hmoveto
          8 9 3 11 6 hvcurveto
          102 153 rlineto
          10 14 5 12 0 18 0 18 -5 12 14 flex1
          -102 153 rlineto
          11 -6 115 callgsubr
          92 -146 -92 114 callgsubr
          endchar
        </CharString>
        <CharString name="guilsinglleft">
          -264 47 422 hstem
          17 201 vstem
          157 47 rmoveto
          20 41 22 21 8 -2 6 -5 9 hvcurveto
          -91 145 91 145 rlineto
          5 9 2 6 7 vvcurveto
          23 -42 21 -19 -9 -8 -3 -11 -7 vhcurveto
          -102 -153 rlineto
          -9 127 callgsubr
          102 -153 rlineto
          -11 7 8 -3 9 hhcurveto
          endchar
        </CharString>
        <CharString name="guilsinglright">
          -264 47 422 hstem
          23 201 vstem
          84 47 rmoveto
          9 8 3 11 7 hvcurveto
          102 153 rlineto
          9 130 callsubr
          -102 153 rlineto
          11 -7 -8 3 -9 hhcurveto
          -19 -42 -21 -23 -7 2 -6 5 -9 hvcurveto
          91 -145 -91 -145 rlineto
          -5 -9 -2 -6 -8 vvcurveto
          -21 41 -22 20 vhcurveto
          endchar
        </CharString>
        <CharString name="h">
          -26 19 143 callgsubr
          hstemhm
          51 150 88 150 hintmask 10111100
          109 -2 rmoveto
          106 callsubr
          hintmask 11011100
          -17 callsubr
          259 16 callsubr
          -34 -87 callsubr
          -692 vlineto
          hintmask 10111100
          -67 callgsubr
          endchar
        </CharString>
        <CharString name="hbar">
          -26 39 callsubr
          72 95 76 -20 hstemhm
          51 150 88 150 hintmask 10111110
          326 531 rmoveto
          -57 -42 -32 -36 -26 hvcurveto
          120 53 vlineto
          26 9 12 28 hvcurveto
          15 vlineto
          28 -9 12 -26 vhcurveto
          -53 44 hlineto
          99 callsubr
          vhcurveto
          -34 -87 callsubr
          -44 -32 vlineto
          -24 -12 -12 -28 hvcurveto
          -15 vlineto
          -28 12 -12 24 vhcurveto
          32 -553 hlineto
          -67 callgsubr
          106 callsubr
          hintmask 11011110
          347 vlineto
          15 10 17 17 22 hhcurveto
          29 10 5 callsubr
          hintmask 10111110
          91 -40 48 -73 vhcurveto
          endchar
        </CharString>
        <CharString name="hcircumflex">
          -26 19 143 callgsubr
          47 146 hstemhm
          51 150 88 150 hintmask 00000000
          hintmask 11011110
          23 781 -107 callgsubr
          86 -783 rmoveto
          106 callsubr
          -17 callsubr
          hintmask 10110110
          259 16 callsubr
          -34 -87 callsubr
          -692 vlineto
          hintmask 11011110
          -67 callgsubr
          endchar
        </CharString>
        <CharString name="hookabovecomb">
          -511 690 61 hstem
          -203 87 vstem
          -216 570 -97 callgsubr
          endchar
        </CharString>
        <CharString name="hungarumlaut">
          -204 110 callgsubr
          -40 354 vstem
          -11 575 -84 callsubr
          endchar
        </CharString>
        <CharString name="hyphen">
          -255 212 107 hstem
          14 229 vstem
          43 212 rmoveto
          171 18 callsubr
          -171 -13 callgsubr
          endchar
        </CharString>
        <CharString name="i">
          -257 19 102 callsubr
          hintmask 00000000
          hintmask 11101000
          130 -81 callsubr
          hintmask 11110000
          -17 -580 -86 callsubr
          endchar
        </CharString>
        <CharString name="i.loclTRK">
          -257 19 102 callsubr
          hintmask 00000000
          hintmask 11101000
          130 -81 callsubr
          hintmask 11110000
          -17 -580 -86 callsubr
          endchar
        </CharString>
        <CharString name="iacute">
          -257 19 135 callsubr
          vstem
          107 575 rmoveto
          -107 callsubr
          6 -577 -86 callsubr
          endchar
        </CharString>
        <CharString name="iacute_j.loclNLD">
          -8 95 callgsubr
          114 135 callsubr
          106 148 vstem
          107 575 rmoveto
          -107 callsubr
          254 hmoveto
          -107 callsubr
          -248 -577 -86 callsubr
          208 -210 rmoveto
          -78 callgsubr
          133 callgsubr
          hvcurveto
          endchar
        </CharString>
        <CharString name="ibreve">
          88 callsubr
          70 91 hstem
          53 148 vstem
          127 575 -102 callgsubr
          -14 -577 -86 callsubr
          endchar
        </CharString>
        <CharString name="icircumflex">
          88 callsubr
          67 146 hstem
          53 148 vstem
          24 572 -107 callgsubr
          89 -574 -86 callsubr
          endchar
        </CharString>
        <CharString name="idieresis">
          88 callsubr
          73 124 hstemhm
          -9 114 -52 148 -48 114 hintmask 00000000
          hintmask 11110100
          49 578 -101 callgsubr
          hintmask 11101000
          -98 -580 -86 callsubr
          endchar
        </CharString>
        <CharString name="igrave">
          -257 19 135 callsubr
          vstem
          143 575 -102 callsubr
          -30 -577 -86 callsubr
          endchar
        </CharString>
        <CharString name="ij">
          -8 95 callgsubr
          114 102 callsubr
          110 31 callgsubr
          hintmask 00000000
          hintmask 11110101
          130 -81 callsubr
          254 hmoveto
          46 21 -86 callgsubr
          -21 11 -49 -46 -21 -11 -21 vhcurveto
          -60 vlineto
          -21 21 -11 49 vhcurveto
          hintmask 11111010
          -271 -580 -86 callsubr
          208 -210 rmoveto
          -78 callgsubr
          133 callgsubr
          hvcurveto
          endchar
        </CharString>
        <CharString name="imacron">
          88 callsubr
          92 95 hstem
          53 148 vstem
          32 597 -84 callgsubr
          81 -599 -86 callsubr
          endchar
        </CharString>
        <CharString name="infinity">
          119 111 111 -111 114 109 114 -111 111 hstemhm
          37 110 339 110 hintmask 00000000
          hintmask 10101100
          459 448 rmoveto
          -42 -62 -15 -90 -38 hvcurveto
          hintmask 01011100
          55 -23 -51 50 -63 hhcurveto
          -83 -60 -68 -98 -98 59 -73 78 42 62 15 90 38 hvcurveto
          hintmask 10011100
          -55 23 51 -50 63 hhcurveto
          83 60 68 98 hvcurveto
          hintmask 10101100
          98 -59 73 -78 vhcurveto
          hintmask 01011100
          -272 -223 rmoveto
          -26 -14 24 33 33 19 22 23 16 19 -12 -49 19 hvcurveto
          -43 -19 -24 -8 -13 hhcurveto
          hintmask 10101100
          257 -3 rmoveto
          -16 -19 12 49 -19 hvcurveto
          43 19 24 8 13 hhcurveto
          26 14 -24 -33 -33 -19 -22 -23 hvcurveto
          endchar
        </CharString>
        <CharString name="integral">
          -213 -171 116 823 116 hstem
          74 147 vstem
          68 -171 rmoveto
          100 53 89 168 hvcurveto
          184 -11 167 168 vvcurveto
          118 10 45 29 vhcurveto
          22 7 -8 9 hhcurveto
          18 17 34 36 47 -73 7 -21 -101 -53 -89 -168 hvcurveto
          -191 12 -164 -164 vvcurveto
          -118 -10 -45 -30 vhcurveto
          -21 -7 8 -10 hhcurveto
          -18 -17 -34 -36 -47 73 -7 22 hvcurveto
          endchar
        </CharString>
        <CharString name="iogonek">
          -257 -176 69 126 102 callsubr
          -88 67 hintmask 00000000
          hintmask 11110100
          130 -81 callsubr
          hintmask 11111000
          119 -681 rmoveto
          -5 callsubr
          21 5 26 12 26 hvcurveto
          5 5 3 7 8 vvcurveto
          -79 callsubr
          hintmask 11110010
          14 hlineto
          -14 -32 -4 -30 -18 vvcurveto
          -27 9 -67 88 19 20 4 8 17 vhcurveto
          12 7 5 10 14 vvcurveto
          hintmask 11111000
          72 callsubr
          endchar
        </CharString>
        <CharString name="itilde">
          -283 110 callsubr
          77 73 callgsubr
          53 148 hintmask 11011000
          8 580 30 callgsubr
          10 7 1 6 hhcurveto
          hintmask 11101000
          -1 25 50 -28 31 -41 callsubr
          hintmask 11011000
          107 callgsubr
          -40 -29 49 callgsubr
          115 -585 -86 callsubr
          endchar
        </CharString>
        <CharString name="j">
          -262 95 callgsubr
          620 141 callsubr
          53 31 callgsubr
          hintmask 00000000
          hintmask 11101000
          130 -81 callsubr
          -63 -790 rmoveto
          hintmask 11110000
          -78 callgsubr
          hvcurveto
          hintmask 11101000
          133 callgsubr
          vhcurveto
          endchar
        </CharString>
        <CharString name="jcircumflex">
          -262 95 callgsubr
          620 -20 67 146 hstem
          53 148 vstem
          24 572 -107 callgsubr
          43 -784 rmoveto
          -78 callgsubr
          133 callgsubr
          hvcurveto
          endchar
        </CharString>
        <CharString name="k">
          -59 19 146 callsubr
          hstem
          52 148 vstem
          -22 callgsubr
          endchar
        </CharString>
        <CharString name="kcommaaccent">
          -59 -219 -21 259 146 callsubr
          hstemhm
          52 148 -30 123 hintmask 11111100
          -22 callgsubr
          hintmask 11111010
          -193 -85 rmoveto
          -20 hlineto
          -41 -17 -17 -27 hvcurveto
          -80 -10 -25 -18 vvcurveto
          -16 26 -6 18 29 60 78 67 25 -12 19 -33 vhcurveto
          endchar
        </CharString>
        <CharString name="kgreenlandic">
          -59 110 callsubr
          hstem
          52 148 vstem
          110 -2 rmoveto
          32 -64 callgsubr
          216 5 vlineto
          88 -229 rlineto
          -15 5 18 -4 26 hhcurveto
          53 hlineto
          37 15 6 10 4 -1 7 -5 9 hvcurveto
          -116 258 98 195 rlineto
          6 11 1 6 4 vvcurveto
          11 -15 6 -39 vhcurveto
          -47 hlineto
          -26 -16 -1 -18 -7 hvcurveto
          -75 -180 rlineto
          -5 167 132 callgsubr
          -32 -87 callsubr
          -463 -72 callsubr
          endchar
        </CharString>
        <CharString name="l">
          -241 109 callgsubr
          762 111 callsubr
          hintmask 01110000
          55 callsubr
          hintmask 10110000
          -68 callgsubr
          hintmask 01110000
          109 callsubr
          endchar
        </CharString>
        <CharString name="lacute">
          -241 109 callgsubr
          762 -20 38 159 hstemhm
          50 148 hintmask 00000000
          hintmask 01111000
          103 772 rmoveto
          -107 callsubr
          76 -780 rmoveto
          38 56 11 36 hvcurveto
          hintmask 10101000
          -68 callgsubr
          hintmask 01111000
          109 callsubr
          endchar
        </CharString>
        <CharString name="lcaron">
          -241 109 callgsubr
          708 -20 74 111 callsubr
          26 123 hintmask 01111000
          55 callsubr
          hintmask 10111000
          -68 callgsubr
          hintmask 01111000
          109 callsubr
          hintmask 01111100
          90 519 rmoveto
          -18 callgsubr
          147 callsubr
        </CharString>
        <CharString name="lcommaaccent">
          -241 140 callsubr
          117 -96 -21 762 111 callsubr
          -105 123 hintmask 10111000
          55 callsubr
          hintmask 11011000
          -68 callgsubr
          hintmask 10111000
          109 callsubr
          hintmask 10110100
          -52 -232 -83 callsubr
          endchar
        </CharString>
        <CharString name="ldot">
          -202 109 callgsubr
          297 140 325 111 callsubr
          5 136 hintmask 01111000
          55 callsubr
          hintmask 10111000
          -68 callgsubr
          hintmask 01111000
          109 callsubr
          hintmask 01110100
          92 297 29 callgsubr
        </CharString>
        <CharString name="less">
          101 callgsubr
          385 16 rmoveto
          25 -13 2 15 34 vvcurveto
          16 vlineto
          41 -2 7 -23 15 vhcurveto
          -205 114 203 114 rlineto
          20 13 5 12 38 vvcurveto
          16 vlineto
          32 -5 15 -33 -18 vhcurveto
          -321 -170 rlineto
          -18 -10 -6 -11 -21 vvcurveto
          -19 vlineto
          -22 6 -11 18 -10 vhcurveto
          endchar
        </CharString>
        <CharString name="lessequal">
          -58 0 107 hstem
          25 386 vstem
          384 137 rmoveto
          26 34 rlineto
          26 vlineto
          21 -8 11 -16 9 vhcurveto
          -204 106 203 106 rlineto
          17 10 6 8 43 vvcurveto
          6 vlineto
          37 1 9 -28 -13 vhcurveto
          -330 -155 rlineto
          -18 -9 -8 -11 -21 vvcurveto
          -19 vlineto
          -21 8 -11 18 -9 vhcurveto
          336 -294 rmoveto
          18 24 callsubr
          -18 vhcurveto
          -337 hlineto
          -17 -7 58 callsubr
          7 -15 17 vhcurveto
          endchar
        </CharString>
        <CharString name="logicalnot">
          -62 242 107 hstem
          315 113 vstem
          351 72 rmoveto
          40 hlineto
          26 11 -60 callsubr
          205 vlineto
          28 -11 12 -26 vhcurveto
          -342 -13 callgsubr
          266 -138 hlineto
          -21 11 -11 25 vhcurveto
          endchar
        </CharString>
        <CharString name="longs">
          -238 19 111 callgsubr
          0 -20 140 117 0 -20 hstemhm
          61 148 hintmask 10101100
          121 16 callgsubr
          hintmask 10110100
          570 vlineto
          30 9 13 22 vhcurveto
          8 13 -5 7 hhcurveto
          20 11 64 8 40 -67 10 -30 -91 -50 -51 -111 hvcurveto
          -75 -12 vlineto
          -21 -38 callsubr
          hintmask 11001100
          35 callsubr
          21 vhcurveto
          12 -376 hlineto
          hintmask 10101100
          -45 callsubr
          endchar
        </CharString>
        <CharString name="lozenge">
          -65 13 -21 hstem
          26 395 vstem
          212 -8 rmoveto
          22 hlineto
          30 23 5 20 8 hvcurveto
          121 307 rlineto
          4 9 1 7 0 8 0 8 -2 8 8 flex1
          -126 313 rlineto
          20 -8 -23 5 -30 hhcurveto
          -11 hlineto
          -29 -24 -5 -20 -8 hvcurveto
          -126 -313 rlineto
          -4 -8 -1 -8 0 -8 0 -8 1 -7 -9 flex1
          121 -307 rlineto
          -20 8 23 -5 29 hhcurveto
          11 170 rmoveto
          -57 186 57 183 57 -183 rlineto
          endchar
        </CharString>
        <CharString name="lslash">
          -235 -8 117 645 -20 hstemhm
          56 148 hintmask 00000000
          hintmask 11100000
          250 113 rmoveto
          -5 -10 -4 -7 hhcurveto
          -17 -7 10 23 hvcurveto
          268 vlineto
          29 17 rlineto
          18 11 8 12 22 vvcurveto
          20 vlineto
          14 -4 6 -7 -4 -5 -1 -4 -6 vhcurveto
          -29 -17 rlineto
          232 -100 callgsubr
          -322 vlineto
          -17 -10 rlineto
          -18 -11 -8 -14 -21 vvcurveto
          -20 vlineto
          -14 3 -6 7 4 5 2 4 7 vhcurveto
          17 10 rlineto
          -176 vlineto
          -104 46 -48 83 38 56 11 36 21 -10 53 -19 vhcurveto
          endchar
        </CharString>
        <CharString name="m">
          209 19 59 callgsubr
          hstem
          50 149 86 150 86 150 vstem
          560 531 rmoveto
          -64 -45 -35 -35 -26 hvcurveto
          47 -15 -34 23 -52 hhcurveto
          -62 -43 -38 -38 -26 hvcurveto
          42 callgsubr
          19 callsubr
          22 hhcurveto
          29 8 -72 callgsubr
          352 vlineto
          15 13 16 12 20 hhcurveto
          29 8 -18 -33 hvcurveto
          -328 -72 callsubr
          34 hlineto
          40 -23 callsubr
          362 vlineto
          91 -38 48 -73 vhcurveto
          endchar
        </CharString>
        <CharString name="macron">
          -256 597 95 hstem
          2 249 vstem
          31 597 -84 callgsubr
          endchar
        </CharString>
        <CharString name="minus">
          -62 172 107 hstem
          18 413 vstem
          47 172 rmoveto
          355 hlineto
          21 8 58 callgsubr
          -8 15 -21 vhcurveto
          -355 -13 callgsubr
          endchar
        </CharString>
        <CharString name="multiply">
          -63 10.5 463.02 hstem
          24.27 379.91 vstem
          288 242 rmoveto
          107 147 16 24 -6 10 -19 16 rlinecurve
          -22 18 -15 12 -16 15 -19 -26 rlinecurve
          -100 -141 -106 147 -14 16 -9 -4 -29 -25 rlinecurve
          -8 -7 -27 -24 -3 -12 16 -19 rlinecurve
          106 -147 -106 -147 -16 -19 3 -12 27 -24 rlinecurve
          8 -7 29 -25 9 -4 14 16 rlinecurve
          106 147 100 -141 19 -26 16 15 15 12 rlinecurve
          22 18 19 16 6 10 -16 24 rlinecurve
          endchar
        </CharString>
        <CharString name="n">
          39 callsubr
          71 callsubr
          hintmask 10111000
          107 -2 rmoveto
          20 callsubr
          hintmask 11011000
          -92 callgsubr
          hintmask 10111000
          122 callgsubr
        </CharString>
        <CharString name="nacute">
          39 callsubr
          64 159 71 callsubr
          hintmask 10111100
          221 575 rmoveto
          -107 callsubr
          -114 -577 rmoveto
          20 callsubr
          hintmask 11011100
          -92 callgsubr
          hintmask 10111100
          122 callgsubr
        </CharString>
        <CharString name="nacute.loclPLK">
          39 callsubr
          64 159 71 callsubr
          hintmask 10111100
          223 575 -82 callgsubr
          -116 -577 rmoveto
          20 callsubr
          hintmask 11011100
          -92 callgsubr
          hintmask 10111100
          122 callgsubr
        </CharString>
        <CharString name="napostrophe">
          19 59 callgsubr
          1 189 hstemhm
          16 123 -89 149 87 150 hintmask 00000000
          hintmask 10110100
          50 532 -83 callsubr
          hintmask 11001100
          57 -534 rmoveto
          20 callsubr
          -92 callgsubr
          122 callgsubr
        </CharString>
        <CharString name="ncaron">
          39 callsubr
          61 146 71 callsubr
          hintmask 10111100
          238 572 -105 callgsubr
          -131 -574 rmoveto
          20 callsubr
          hintmask 11011100
          -92 callgsubr
          hintmask 10111100
          122 callgsubr
        </CharString>
        <CharString name="ncommaaccent">
          -219 -21 259 26 callgsubr
          hstemhm
          50 149 -19 123 -17 150 hintmask 11011010
          107 -2 rmoveto
          20 callsubr
          hintmask 11101010
          -92 callgsubr
          hintmask 11011010
          140 callgsubr
          hintmask 11010100
          107 -238 -83 callsubr
          endchar
        </CharString>
        <CharString name="nine">
          -52 14 -21 276 117 202 117 hstem
          20 140 123 151 vstem
          120 -7 rmoveto
          12 302 67 384 193 -108 68 -100 -99 -107 -62 -162 -162 102 -50 62 24 26 4 20 32 hvcurveto
          -26 -99 -64 -67 -93 -30 rrcurveto
          -11 -3 -2 -4 -14 vvcurveto
          -20 16 -63 34 vhcurveto
          113 393 rmoveto
          -45 -28 38 60 63 30 41 35 32 26 -33 -99 -19 0 -18 -1 -18 hvcurveto
          -9 -16 -15 -6 -18 hhcurveto
          endchar
        </CharString>
        <CharString name="notequal">
          -63 86 107 74 107 hstem
          30 389 vstem
          396 267 rmoveto
          17 24 callsubr
          -17 vhcurveto
          -24 hlineto
          16 25 rlineto
          37 23 -9 20 -43 hhcurveto
          -27 hlineto
          -28 -14 -11 -19 -12 hvcurveto
          -32 -52 rlineto
          -192 hlineto
          6 callgsubr
          126 hlineto
          -46 -74 rlineto
          -80 hlineto
          6 callgsubr
          14 hlineto
          -26 -43 rlineto
          -22 -13 12 -19 38 hhcurveto
          27 hlineto
          28 13 9 21 13 hvcurveto
          34 54 rlineto
          202 hlineto
          17 24 callsubr
          -17 vhcurveto
          -136 hlineto
          46 74 rlineto
          endchar
        </CharString>
        <CharString name="ntilde">
          39 callsubr
          71 83 -54 83 71 callsubr
          hintmask 10101110
          112 -27 callgsubr
          hintmask 10110110
          -103 callgsubr
          hintmask 11001110
          -91 callsubr
          6 -585 rmoveto
          20 callsubr
          -92 callgsubr
          122 callgsubr
        </CharString>
        <CharString name="numbersign">
          3 19 -21 185 110 110 110 hstem
          8 498 vstem
          103 -2 rmoveto
          19 hlineto
          30 16 11 21 4 hvcurveto
          23 153 rlineto
          75 hlineto
          -13 -78 -9 -72 -7 vvcurveto
          -19 15 -9 29 vhcurveto
          18 hlineto
          30 17 11 21 4 hvcurveto
          22 153 rlineto
          69 hlineto
          21 -8 callgsubr
          10 -2 callsubr
          -53 hlineto
          16 110 rlineto
          61 hlineto
          21 -8 callgsubr
          10 -2 callsubr
          -45 hlineto
          21 142 rlineto
          20 2 -16 11 -30 117 callgsubr
          -77 hlineto
          21 142 rlineto
          20 2 -15 11 -31 117 callgsubr
          -64 120 callgsubr
          48 hlineto
          -16 -110 rlineto
          -60 120 callgsubr
          44 hlineto
          -14 -78 -9 -73 -4 vvcurveto
          -21 -1 15 -9 30 hhcurveto
          108 295 rmoveto
          16 110 rlineto
          76 hlineto
          -16 -110 rlineto
          endchar
        </CharString>
        <CharString name="o">
          4 callgsubr
          hstem
          -27 callsubr
          vstem
          238 -8 -88 callsubr
        </CharString>
        <CharString name="oacute">
          -11 callgsubr
          218 575 rmoveto
          -107 callsubr
          20 -583 -88 callsubr
        </CharString>
        <CharString name="oacute.loclPLK">
          -11 callgsubr
          220 575 -82 callgsubr
          18 -583 -88 callsubr
        </CharString>
        <CharString name="obreve">
          4 callgsubr
          44 91 hstem
          -27 callsubr
          vstem
          238 575 -102 callgsubr
          -583 vmoveto
          -98 callgsubr
          endchar
        </CharString>
        <CharString name="ocircumflex">
          -34 96 callgsubr
          hstem
          -27 callsubr
          vstem
          135 572 -107 callgsubr
          103 -580 -88 callsubr
        </CharString>
        <CharString name="odieresis">
          4 callgsubr
          47 124 hstemhm
          34 150 -82 45 callgsubr
          -85 150 hintmask 00000000
          hintmask 11101100
          160 578 -101 callgsubr
          hintmask 11110010
          -84 -586 -88 callsubr
        </CharString>
        <CharString name="oe">
          210 -8 117 94 89 122 117 -107 107 hstemhm
          34 150 109 155 112 135 hintmask 11011110
          630 138 rmoveto
          -61 callsubr
          190 hlineto
          13 38 42 17 168 -51 101 -135 -57 -49 -14 -36 -36 hvcurveto
          32 -33 -43 18 -53 hhcurveto
          -141 -63 -95 -174 -174 64 -96 140 55 44 19 34 32 hvcurveto
          -35 37 52 -18 69 hhcurveto
          -42 callgsubr
          -122 286 rmoveto
          38 14 -38 -94 hvcurveto
          -112 hlineto
          104 5 21 28 34 hhcurveto
          -269 -315 rmoveto
          -40 -15 40 113 hvcurveto
          hintmask 11101110
          113 15 39 40 39 15 -39 -113 vhcurveto
          hintmask 11011110
          -113 -15 -40 -39 vhcurveto
          endchar
        </CharString>
        <CharString name="ogonek">
          -255 -183 69 hstem
          43 67 vstem
          140 -183 rmoveto
          19 20 4 8 17 hvcurveto
          12 7 5 10 14 vvcurveto
          72 callsubr
          -5 callsubr
          21 5 27 12 26 hvcurveto
          -50 16 rlineto
          -27 -41 -7 -44 -24 vvcurveto
          -27 9 -67 88 vhcurveto
          endchar
        </CharString>
        <CharString name="ograve">
          -11 callgsubr
          254 575 -102 callsubr
          -16 -583 -88 callsubr
        </CharString>
        <CharString name="ohorn">
          4 callgsubr
          -73 42 hstemhm
          -27 callsubr
          -28 79 hintmask 11011000
          137 callgsubr
          hintmask 10111000
          124 callgsubr
          vhcurveto
          hintmask 10110100
          -66 callgsubr
          hintmask 11011000
          11 -27 -29 8 -34 hhcurveto
          -98 callsubr
          endchar
        </CharString>
        <CharString name="ohungarumlaut">
          -11 callgsubr
          130 575 -84 callsubr
          -57 -583 -88 callsubr
        </CharString>
        <CharString name="omacron">
          4 callgsubr
          66 95 hstem
          -27 callsubr
          vstem
          143 597 -84 callgsubr
          95 -605 -88 callsubr
        </CharString>
        <CharString name="one">
          -52 0 117 587 -20 hstem
          167 148 vstem
          60 hmoveto
          339 69 callgsubr
          -84 563 hlineto
          12 -25 12 -16 vhcurveto
          -221 -41 rlineto
          -17 -3 -9 -10 -15 vvcurveto
          -28 6 -56 26 vhcurveto
          108 15 rlineto
          -449 -107 118 callsubr
          endchar
        </CharString>
        <CharString name="oneeighth">
          117 -5 69 -43 -21 349 69 282 132 callsubr
          168 82 -74 80 68 79 -76 83 hintmask 1010110000000000
          -63 callsubr
          hintmask 0111010000000000
          -3 34 callsubr
          -32 callsubr
          123 callgsubr
          hintmask 1010111001000000
          346 -5 rmoveto
          87 33 62 58 59 -26 30 -30 20 hvcurveto
          hintmask 1010110110000000
          24 14 25 23 53 vvcurveto
          59 -40 45 -71 -75 -41 -46 -63 -45 20 -25 24 -20 vhcurveto
          hintmask 1010111000000000
          -28 -15 -24 -32 -55 vvcurveto
          hintmask 1010111001000000
          -65 36 -57 86 vhcurveto
          hintmask 1010110110000000
          6 265 rmoveto
          -22 12 -18 15 25 vvcurveto
          25 18 12 17 18 15 -13 -25 -21 -9 -17 -19 -13 vhcurveto
          hintmask 1010111001000000
          -7 -196 rmoveto
          -23 -16 17 39 29 10 17 17 14 hvcurveto
          27 -15 23 -18 -35 vvcurveto
          -24 -12 -24 -26 vhcurveto
          endchar
        </CharString>
        <CharString name="onehalf">
          130 0 68 277 68 287 132 callsubr
          334 87 hintmask 11011000
          -63 callsubr
          128 callgsubr
          hintmask 11101000
          -32 callsubr
          hintmask 11011000
          123 callgsubr
          250 hmoveto
          37 callgsubr
          hintmask 11011100
          -26 callsubr
          hintmask 11011000
          -17 7 -34 9 vhcurveto
          endchar
        </CharString>
        <CharString name="onequarter">
          75 19 -21 23 -21 82 69 549 132 callsubr
          252 87 hintmask 01101110
          -63 callsubr
          128 callgsubr
          hintmask 01110110
          -32 callsubr
          hintmask 01101110
          123 callgsubr
          hintmask 10101110
          -20 callgsubr
        </CharString>
        <CharString name="ordfeminine">
          -230 439 64 49 53 25 79 hstemhm
          17 91 46 94 hintmask 11011000
          92 439 rmoveto
          38 22 16 11 8 hvcurveto
          -14 4 2 -9 14 hhcurveto
          15 59 3 14 hvcurveto
          7 -6 14 50 vvcurveto
          hintmask 11111000
          83 vlineto
          55 -36 40 -84 -56 -44 -16 -18 -14 14 -45 13 vhcurveto
          8 26 14 34 hhcurveto
          22 9 -8 -15 hvcurveto
          -2 vlineto
          hintmask 11011000
          -121 -16 -51 -37 -46 27 -32 48 hvcurveto
          36 64 rmoveto
          -13 -7 8 13 16 11 12 35 hvcurveto
          -33 vlineto
          -9 -5 -8 -7 -13 hhcurveto
          endchar
        </CharString>
        <CharString name="ordmasculine">
          -219 439 79 112 79 hstem
          23 95 56 95 vstem
          146 439 rmoveto
          79 44 49 86 86 -43 49 -80 -80 -43 -49 -86 -86 44 -49 79 hvcurveto
          1 79 rmoveto
          -20 -9 14 42 42 9 14 20 19 8 -14 -42 -42 -8 -14 -19 hvcurveto
          endchar
        </CharString>
        <CharString name="oslash">
          4 callgsubr
          hstem
          -27 callsubr
          vstem
          435 488 -42 callsubr
        </CharString>
        <CharString name="oslashacute">
          -11 callgsubr
          217 575 rmoveto
          -107 callsubr
          218 -87 -42 callsubr
        </CharString>
        <CharString name="otilde">
          4 callgsubr
          51 73 callgsubr
          -27 callsubr
          hintmask 11011100
          109 -27 callgsubr
          hintmask 11101100
          -103 callgsubr
          hintmask 11011100
          -91 callsubr
          140 -591 -88 callsubr
        </CharString>
        <CharString name="p">
          -27 87 callsubr
          0 -20 hstemhm
          52 148 99 150 hintmask 11011100
          112 48 callsubr
          -49 -38 -30 -40 -19 hvcurveto
          25 -5 -6 36 -30 hhcurveto
          -25 -87 -8 -24 hvcurveto
          -20 12 -21 -102 vvcurveto
          -521 -38 callgsubr
          129 315 rmoveto
          -18 -13 7 7 -10 hvcurveto
          hintmask 11101100
          113 callgsubr
          hintmask 11011100
          -112 -19 -41 -39 vhcurveto
          endchar
        </CharString>
        <CharString name="paragraph">
          -45 638 62 hstem
          202 62 78 62 vstem
          232 -171 rmoveto
          2 hlineto
          22 8 10 20 hvcurveto
          779 78 -779 vlineto
          -21 9 -9 21 vhcurveto
          2 hlineto
          22 8 10 20 hvcurveto
          779 21 vlineto
          21 9 9 20 hvcurveto
          1 vlineto
          23 -9 9 -21 vhcurveto
          -198 hlineto
          -109 -89 -75 -169 -149 76 -80 97 -14 hvcurveto
          -354 vlineto
          -21 9 -9 21 vhcurveto
          endchar
        </CharString>
        <CharString name="parenleft">
          -262 -187 -21 hstem
          33 117 vstem
          199 -208 rmoveto
          20 37 23 23 6 -1 7 -4 7 hvcurveto
          -83 147 -18 133 149 vvcurveto
          150 19 133 82 147 vhcurveto
          4 7 1 7 6 vvcurveto
          23 -37 23 -20 -10 -9 -5 -11 -8 vhcurveto
          -97 -134 -42 -172 -174 vvcurveto
          -174 43 -171 96 -134 vhcurveto
          -11 8 9 -5 10 hhcurveto
          endchar
        </CharString>
        <CharString name="parenright">
          -262 -187 -21 hstem
          98 117 vstem
          50 -208 rmoveto
          10 9 5 11 8 hvcurveto
          97 134 41 171 174 vvcurveto
          174 -42 172 -96 134 vhcurveto
          11 -8 -9 5 -10 hhcurveto
          -20 -37 -23 -23 -6 1 -7 4 -7 hvcurveto
          83 -147 17 -133 -150 vvcurveto
          -149 -19 -133 -81 -147 vhcurveto
          -4 -7 -1 -7 -6 vvcurveto
          -23 37 -23 20 vhcurveto
          endchar
        </CharString>
        <CharString name="partialdiff">
          -100 -10 124 190 123 184 123 hstem
          7 138 112 145 vstem
          185 -10 rmoveto
          157 60 160 183 244 -86 157 -147 -98 -32 -42 -29 -23 32 -55 22 hvcurveto
          15 16 26 35 hhcurveto
          48 38 -54 -154 14 hvcurveto
          17 -26 -27 7 -26 hhcurveto
          -96 -77 -91 -142 -119 54 -85 124 hvcurveto
          9 124 rmoveto
          -26 -23 12 72 64 25 42 37 16 17 -10 -21 17 hvcurveto
          -68 -14 -91 -49 vhcurveto
          endchar
        </CharString>
        <CharString name="percent">
          175 66 callsubr
          hintmask 1011101111000000
          167 372 rmoveto
          -13 callsubr
          hintmask 0111011111000000
          2 callsubr
          hintmask 1011101111000000
          56 7 26 27 28 6 -26 -56 vhcurveto
          hintmask 0111011111000000
          -62 -6 -24 -28 vhcurveto
          hintmask 1011101111000000
          356 -462 rmoveto
          -13 callsubr
          82 vmoveto
          42 callsubr
          endchar
        </CharString>
        <CharString name="period">
          -323 -2 156 hstem
          19 149 vstem
          77 -2 rmoveto
          -49 callsubr
          endchar
        </CharString>
        <CharString name="periodcentered">
          -297 289 140 hstem
          45 136 vstem
          113 289 29 callgsubr
        </CharString>
        <CharString name="perthousand">
          475 66 callsubr
          27 102 68 103 hintmask 1011101111010000
          167 372 rmoveto
          -13 callsubr
          hintmask 0101011100000000
          2 callsubr
          hintmask 0000101100000000
          56 7 26 27 28 6 -26 -56 vhcurveto
          hintmask 0101011100000000
          -62 -6 -24 -28 vhcurveto
          hintmask 1010000011000000
          356 -462 rmoveto
          -13 callsubr
          hintmask 1010000000110000
          300 hmoveto
          -13 callsubr
          hintmask 1010000011000000
          -300 82 rmoveto
          42 callsubr
          hintmask 1010000000110000
          300 hmoveto
          42 callsubr
          endchar
        </CharString>
        <CharString name="pi">
          -4 19 111 callgsubr
          hstem
          106 132 45.5 138.5 vstem
          117 -2 rmoveto
          5 hlineto
          37 30 9 20 7 hvcurveto
          22 85 16 170 4 124 rrcurveto
          48 hlineto
          -5 -287 rlineto
          -45 -1 1 -76 59 hhcurveto
          23 hlineto
          45 21 12 18 hvcurveto
          5 -7 37 84 vvcurveto
          252 34 vlineto
          20 10 11 22 2 hvcurveto
          1 9 3 25 19 vvcurveto
          20 -11 11 -22 vhcurveto
          -323 hlineto
          -63 -67 -9 -41 -7 -1 -72 37 11 17 10 2 36 hvcurveto
          -5 -122 -24 -155 -26 -98 rrcurveto
          -1 -4 -1 -3 -3 vvcurveto
          -13 26 -10 42 vhcurveto
          endchar
        </CharString>
        <CharString name="plus">
          -62 21 -21 182 107 hstem
          166 114 vstem
          216 hmoveto
          14 hlineto
          35 15 9 21 hvcurveto
          152 111 vlineto
          20 8 58 callgsubr
          -8 15 -20 vhcurveto
          -111 154 hlineto
          21 -15 9 -35 vhcurveto
          -14 hlineto
          -35 -15 -9 -21 hvcurveto
          -154 -107 vlineto
          76 callgsubr
          107 -152 hlineto
          -21 15 -9 35 vhcurveto
          endchar
        </CharString>
        <CharString name="plusminus">
          -62 0 107 205 107 hstem
          166 114 vstem
          216 130 rmoveto
          14 hlineto
          36 14 9 21 hvcurveto
          152 116 vlineto
          17 24 callsubr
          -17 vhcurveto
          -116 154 hlineto
          21 -14 9 -36 vhcurveto
          -14 hlineto
          -36 -14 -9 -21 hvcurveto
          -154 -112 vlineto
          6 callgsubr
          112 -152 hlineto
          -21 14 -9 36 vhcurveto
          -158 -130 rmoveto
          331 hlineto
          18 7 58 callgsubr
          -7 15 -18 vhcurveto
          -331 hlineto
          -17 -7 58 callsubr
          7 -15 17 vhcurveto
          endchar
        </CharString>
        <CharString name="product">
          89 570 130 hstem
          92 144 127 144 vstem
          150 -104 rmoveto
          28 -64 callgsubr
          642 127 -642 vlineto
          140 callgsubr
          29 hlineto
          40 -23 callsubr
          642 57 vlineto
          21 8 15 35 hvcurveto
          30 vlineto
          35 -8 15 -21 vhcurveto
          -526 hlineto
          127 callsubr
          54 -642 hlineto
          -67 callgsubr
          endchar
        </CharString>
        <CharString name="q">
          -30 87 callsubr
          -6 -20 26 -20 hstemhm
          35 150 101 148 hintmask 11001110
          346 -206 rmoveto
          -44 callgsubr
          hintmask 11010110
          667 40 callgsubr
          -12 hlineto
          -30 -19 -4 -22 -5 hvcurveto
          hintmask 11001110
          -9 -38 rlineto
          40 -20 -43 30 -47 hhcurveto
          -91 -63 -96 -172 -176 61 -95 108 38 27 15 15 17 hvcurveto
          -196 -38 callgsubr
          -102 315 rmoveto
          -40 -19 33 120 hvcurveto
          hintmask 11100110
          110 17 38 36 21 15 -15 -19 12 vhcurveto
          -252 vlineto
          hintmask 11001110
          -8 -10 -14 -7 -18 hhcurveto
          endchar
        </CharString>
        <CharString name="question">
          -120 -2 156 422 132 hstemhm
          85 152 -7 156 hintmask 11100000
          147 222 rmoveto
          23 hlineto
          33 15 6 21 5 hvcurveto
          hintmask 11010000
          9 57 34 34 35 33 rrcurveto
          42 41 43 40 85 vvcurveto
          109 -80 60 -121 -72 -98 -29 -52 -21 35 -61 28 vhcurveto
          11 31 31 45 hhcurveto
          45 20 -21 -35 -33 -38 -37 -37 -46 hvcurveto
          -36 -47 -21 -48 -58 vvcurveto
          hintmask 11100000
          -21 14 -8 35 vhcurveto
          -2 -224 rmoveto
          32 -57 callsubr
          92 40 callgsubr
          -32 hlineto
          -42 -25 callgsubr
          -92 -38 callgsubr
          endchar
        </CharString>
        <CharString name="questiondown">
          -120 -185 132 422 156 hstemhm
          5 156 -7 152 hintmask 11010000
          246 525 rmoveto
          -32 hlineto
          -42 -25 callgsubr
          -92 -38 callgsubr
          32 -57 callsubr
          92 40 callgsubr
          -2 -224 rmoveto
          -23 hlineto
          -33 -15 -6 -21 -5 hvcurveto
          hintmask 11100000
          -9 -57 -34 -34 -35 -33 rrcurveto
          -42 -41 -43 -40 -85 vvcurveto
          -109 80 -60 121 72 98 29 52 21 -35 61 -28 vhcurveto
          -11 -31 -31 -45 hhcurveto
          -45 -20 21 35 33 38 37 37 46 hvcurveto
          36 47 21 48 58 vvcurveto
          hintmask 11010000
          21 -14 8 -35 vhcurveto
          endchar
        </CharString>
        <CharString name="quotedbl">
          -202 464 238 hstemhm
          14 130 21 130 hintmask 00000000
          hintmask 11000000
          70 464 rmoveto
          -12 callsubr
          hintmask 10100000
          151 hmoveto
          -12 callsubr
          endchar
        </CharString>
        <CharString name="quotedblbase">
          -163 -125 279 hstemhm
          33 138 callsubr
          34 -125 rmoveto
          -51 callsubr
          62 callsubr
          166 hmoveto
          hintmask 11100000
          -51 callsubr
          hintmask 11000000
          147 callsubr
        </CharString>
        <CharString name="quotedblleft">
          -163 757 -20 hstemhm
          2 138 callsubr
          62 478 rmoveto
          1 callgsubr
          hintmask 11100000
          166 hmoveto
          1 callgsubr
          endchar
        </CharString>
        <CharString name="quotedblright">
          -163 757 -20 hstemhm
          53 138 callsubr
          54 478 rmoveto
          -51 callsubr
          62 callsubr
          166 hmoveto
          hintmask 11100000
          -51 callsubr
          hintmask 11000000
          147 callsubr
        </CharString>
        <CharString name="quoteleft">
          -301 757 -20 hstem
          16 139 vstem
          76 478 rmoveto
          1 callgsubr
          endchar
        </CharString>
        <CharString name="quoteright">
          -301 757 -20 hstem
          63 139 vstem
          64 478 rmoveto
          -51 callsubr
          147 callsubr
        </CharString>
        <CharString name="quotesinglbase">
          -301 -125 279 hstem
          60 139 vstem
          61 -125 rmoveto
          -51 callsubr
          147 callsubr
        </CharString>
        <CharString name="quotesingle">
          -347 702 -20 hstem
          19 130 vstem
          75 464 rmoveto
          -12 callsubr
          endchar
        </CharString>
        <CharString name="quotesingle.loclGUA">
          -340 700 -20 hstem
          27 129 vstem
          76 381 rmoveto
          26 2 54 110 163 vvcurveto
          25 -15 19 -35 vhcurveto
          93 callsubr
          hvcurveto
          4 -253 rlineto
          147 callsubr
        </CharString>
        <CharString name="r">
          65 callgsubr
          hstemhm
          55 148 hintmask 10110000
          115 16 callgsubr
          hintmask 11010000
          -64 callsubr
          hintmask 10110000
          -45 callsubr
          endchar
        </CharString>
        <CharString name="racute">
          65 callgsubr
          64 159 hstemhm
          55 148 hintmask 10111000
          162 575 rmoveto
          -107 callsubr
          -47 -577 rmoveto
          -44 callgsubr
          hintmask 11011000
          -64 callsubr
          hintmask 10111000
          -45 callsubr
          endchar
        </CharString>
        <CharString name="radical">
          -16 -156 970 hstem
          15 493 vstem
          259 -156 rmoveto
          23 hlineto
          34 18 10 21 5 hvcurveto
          169 908 rlineto
          11 vlineto
          12 -12 8 -30 vhcurveto
          -31 hlineto
          -32 -18 -10 -21 -4 hvcurveto
          -107 -630 rlineto
          -32 -6 -7 -83 2 hhcurveto
          -5 hlineto
          2 -14 65 50 -11 hvcurveto
          -48 218 rlineto
          15 -3 -11 8 -12 hhcurveto
          -17 -60 -30 -23 -44 hvcurveto
          -18 -9 -7 -7 -13 vvcurveto
          -9 3 -9 13 -31 vhcurveto
          -16 7 8 -8 13 hhcurveto
          7 17 5 9 16 hvcurveto
          101 -379 rlineto
          -22 6 22 -8 31 hhcurveto
          endchar
        </CharString>
        <CharString name="rcaron">
          65 callgsubr
          61 146 hstemhm
          55 148 hintmask 10111000
          179 572 -105 callgsubr
          -64 -574 rmoveto
          -44 callgsubr
          hintmask 11011000
          -64 callsubr
          hintmask 10111000
          -45 callsubr
          endchar
        </CharString>
        <CharString name="rcommaaccent">
          65 callgsubr
          hstemhm
          55 148 -130 123 hintmask 10110000
          115 16 callgsubr
          hintmask 11010000
          -64 callsubr
          hintmask 10110000
          -45 callsubr
          hintmask 10101000
          -8 -240 -83 callsubr
          endchar
        </CharString>
        <CharString name="registered">
          80 -8 64 254 74 91 73 96 64 hstem
          10 66 112 86 49 87 105 0 callgsubr
          -76 100 rmoveto
          22 hlineto
          23 9 6 12 hvcurveto
          136 2 vlineto
          24 0 -11 -22 5 hvcurveto
          36 -109 rlineto
          -9 3 11 -3 16 hhcurveto
          27 hlineto
          20 10 4 7 3 -1 3 -1 5 hvcurveto
          -39 124 -8 23 -15 19 -6 6 rlinecurve
          4 vlineto
          29 15 23 31 43 vvcurveto
          67 -30 38 -80 vhcurveto
          -92 hlineto
          -13 -7 -7 -15 hvcurveto
          -352 vlineto
          -12 10 -6 22 vhcurveto
          54 228 rmoveto
          91 27 vlineto
          14 8 -17 -26 -26 -10 -22 -9 hvcurveto
          endchar
        </CharString>
        <CharString name="ring">
          -255 550 62 73 64 hstem
          30 62 74 61 vstem
          128 550 -65 callsubr
          endchar
        </CharString>
        <CharString name="s">
          -158 -8 144 callsubr
          10 149 hintmask 11100000
          163 -8 rmoveto
          hintmask 11110000
          111 63 72 97 81 -44 36 -40 26 hvcurveto
          hintmask 11100000
          -37 24 -38 13 35 vvcurveto
          24 16 10 25 vhcurveto
          32 23 -18 9 hhcurveto
          17 24 57 24 43 -81 15 -49 -97 -68 -59 -102 -90 52 -34 42 -25 hvcurveto
          hintmask 11110000
          -49 callgsubr
          hintmask 11100000
          -42 78 -23 63 vhcurveto
          endchar
        </CharString>
        <CharString name="sacute">
          56 callsubr
          44 159 78 callgsubr
          156 575 rmoveto
          -107 callsubr
          7 -583 -76 callsubr
        </CharString>
        <CharString name="sacute.loclPLK">
          56 callsubr
          44 159 78 callgsubr
          158 575 -82 callgsubr
          5 -583 -76 callsubr
        </CharString>
        <CharString name="scaron">
          56 callsubr
          41 146 78 callgsubr
          173 572 -105 callgsubr
          -10 -580 -76 callsubr
        </CharString>
        <CharString name="scedilla">
          -158 -212 73 132 120 -99 -21 417 121 hstemhm
          29 149 -8 93 -75 149 hintmask 00000000
          hintmask 10111010
          337 161 rmoveto
          81 -44 36 -40 26 vhcurveto
          hintmask 10111000
          -37 24 -38 13 35 vvcurveto
          24 16 10 25 vhcurveto
          32 23 -18 9 hhcurveto
          17 24 57 24 43 -81 15 -49 -97 -68 -59 -102 -90 52 -34 42 -25 hvcurveto
          hintmask 11011010
          -49 callgsubr
          hintmask 10110100
          -38 65 -23 59 -3 vhcurveto
          -17 -46 -6 -18 -8 -68 callsubr
          13 45 rlineto
          hintmask 10111010
          80 19 45 63 82 vvcurveto
          endchar
        </CharString>
        <CharString name="scircumflex">
          56 callsubr
          41 146 78 callgsubr
          73 572 -107 callgsubr
          90 -580 -76 callsubr
        </CharString>
        <CharString name="scommaaccent">
          -158 140 callsubr
          144 callsubr
          -63 123 -50 149 hintmask 11101000
          163 -8 rmoveto
          hintmask 11100100
          111 63 72 97 81 -44 36 -40 26 hvcurveto
          hintmask 11110000
          -37 24 -38 13 35 vvcurveto
          24 16 10 25 vhcurveto
          32 23 -18 9 hhcurveto
          17 24 57 24 43 -81 15 -49 -97 -68 -59 -102 -90 52 -34 42 -25 hvcurveto
          hintmask 11100100
          -49 callgsubr
          hintmask 11101000
          -42 78 -23 63 vhcurveto
          -14 -232 -83 callsubr
          endchar
        </CharString>
        <CharString name="section">
          -156 -8 121 474 120 0 -20 hstemhm
          15 124 -113 149 5 149 -112 123 hintmask 10110010
          160 -8 rmoveto
          hintmask 10110100
          105 64 64 89 44 -16 30 -21 22 hvcurveto
          hintmask 11001010
          31 27 17 41 47 vvcurveto
          88 -53 39 -47 24 vhcurveto
          -34 17 -31 11 25 vvcurveto
          18 16 9 26 vhcurveto
          31 24 -19 8 hhcurveto
          18 23 59 20 49 -91 11 -38 -98 -68 -55 -93 -45 16 -30 21 -22 hvcurveto
          hintmask 10110100
          -30 -26 -18 -37 -50 vvcurveto
          -88 50 -39 46 -25 vhcurveto
          36 -19 33 -11 -26 vvcurveto
          -19 -14 -9 -26 vhcurveto
          -32 -22 24 -10 hhcurveto
          -19 -30 -59 -23 hvcurveto
          hintmask 10110010
          -47 88 -16 45 vhcurveto
          42 312 rmoveto
          -34 12 -29 13 35 vvcurveto
          11 3 13 12 10 vhcurveto
          34 -12 29 -13 -35 vvcurveto
          -12 -5 -12 -10 -10 vhcurveto
          endchar
        </CharString>
        <CharString name="semicolon">
          -323 369 156 hstemhm
          19 149 -136 136 hintmask 11000000
          77 369 rmoveto
          -49 callsubr
          -37 -494 rmoveto
          hintmask 10100000
          48 callgsubr
          hintmask 11000000
          -16 27 -6 17 vhcurveto
          endchar
        </CharString>
        <CharString name="seven">
          -52 19 -21 585 117 hstem
          30 405 vstem
          115 -2 rmoveto
          37 hlineto
          29 22 4 16 6 hvcurveto
          224 579 rlineto
          1 3 1 5 5 vvcurveto
          31 -19 59 -11 vhcurveto
          -345 -3 callsubr
          214 hlineto
          -210 -545 rlineto
          -3 -8 -3 -8 -5 vvcurveto
          -12 18 -7 39 vhcurveto
          endchar
        </CharString>
        <CharString name="six">
          -52 -8 117 202 117 276 -20 hstem
          25 151 123 140 vstem
          232 -8 rmoveto
          100 107 62 162 162 -103 50 -62 -23 -26 -4 -19 -32 hvcurveto
          26 98 63 67 94 30 rrcurveto
          11 4 2 3 14 vvcurveto
          20 -16 63 -34 -12 -302 -67 -384 -193 108 -68 99 vhcurveto
          2 117 rmoveto
          -32 -26 32 100 19 0 18 1 18 hvcurveto
          9 15 16 6 18 hhcurveto
          45 28 -39 -60 -61 -29 -42 -36 hvcurveto
          endchar
        </CharString>
        <CharString name="slash">
          -191 702 -20 hstem
          -19 349 vstem
          22 8 callsubr
        </CharString>
        <CharString name="space">
          -374 endchar
        </CharString>
        <CharString name="sterling">
          -100 0 117 194 117 168 112 hstem
          83 145 vstem
          47 hmoveto
          317 69 callgsubr
          -177 hlineto
          28 28 13 43 63 vvcurveto
          60 68 vlineto
          -53 callsubr
          -68 79 hlineto
          63 21 26 41 vhcurveto
          19 32 -8 2 hhcurveto
          17 23 39 36 38 -64 7 -35 -133 -68 -68 -138 hvcurveto
          -74 -33 118 callsubr
          33 -136 hlineto
          -68 -76 -7 -41 vvcurveto
          -19 vlineto
          -28 12 -12 28 vhcurveto
          endchar
        </CharString>
        <CharString name="summation">
          -37 -102 130 542 130 hstem
          15 455 vstem
          52 -102 rmoveto
          393 116 callsubr
          -235 hlineto
          -2 2 127 251 rlineto
          5 9 2 8 0 8 0 8 -3 8 8 flex1
          -126 237 2 3 rlineto
          222 116 callsubr
          -379 hlineto
          -27 41 callgsubr
          -39 vlineto
          -14 4 -11 6 -11 vhcurveto
          152 -282 -154 -290 rlineto
          -6 -11 -3 -11 -14 vvcurveto
          -39 vlineto
          -28 10 -12 27 vhcurveto
          endchar
        </CharString>
        <CharString name="t">
          -213 -8 77 callgsubr
          hintmask 01110000
          183 -8 rmoveto
          36 68 12 38 hvcurveto
          hintmask 10110000
          -77 callgsubr
          hintmask 01110000
          122 callsubr
          vhcurveto
          endchar
        </CharString>
        <CharString name="tbar">
          -227 -8 117 136 95 66 117 hstemhm
          58 148 hintmask 00000000
          hintmask 11110000
          257 113 rmoveto
          15 callsubr
          101 46 vlineto
          24 9 12 28 hvcurveto
          15 vlineto
          28 -9 12 -24 vhcurveto
          -46 66 37 69 callgsubr
          -37 95 hlineto
          21 -15 11 -35 vhcurveto
          -31 hlineto
          -33 -18 -11 -21 -3 hvcurveto
          -13 -95 rlineto
          -11 -3 callsubr
          11 -66 -25 hlineto
          -22 41 callgsubr
          -15 vlineto
          -28 11 -12 22 vhcurveto
          25 -97 hlineto
          122 callsubr
          36 68 12 38 10 -11 61 -19 vhcurveto
          endchar
        </CharString>
        <CharString name="tcaron">
          -213 109 callgsubr
          414 117 229 -20 hstemhm
          58 148 12 123 hintmask 00000000
          hintmask 01111100
          263 563 rmoveto
          -18 callgsubr
          62 callsubr
          hintmask 01111000
          -80 -571 rmoveto
          36 68 12 38 hvcurveto
          hintmask 10111000
          -77 callgsubr
          hintmask 01111000
          122 callsubr
          vhcurveto
          endchar
        </CharString>
        <CharString name="thorn">
          -28 87 callsubr
          0 -20 243 111 callsubr
          99 150 hintmask 11011110
          110 48 callsubr
          -43 -36 -23 -33 -20 hvcurveto
          247 -100 callgsubr
          -896 -38 callgsubr
          129 315 rmoveto
          -18 -13 7 7 -10 hvcurveto
          hintmask 11101110
          113 callgsubr
          hintmask 11011110
          -112 -19 -41 -39 vhcurveto
          endchar
        </CharString>
        <CharString name="three">
          -52 -8 117 199 118 164 118 hstemhm
          252 150 -127 150 hintmask 11101000
          216 -8 rmoveto
          123 86 79 133 82 -37 67 -79 30 hvcurveto
          4 vlineto
          hintmask 11110000
          57 24 36 53 69 vvcurveto
          107 -73 68 -115 -91 -87 -23 -50 -27 30 -49 20 vhcurveto
          14 19 31 59 hhcurveto
          49 25 -32 -49 -50 -36 -33 -60 hvcurveto
          -26 hlineto
          -21 -38 callsubr
          -18 vlineto
          -35 9 -15 21 vhcurveto
          35 hlineto
          hintmask 11101000
          79 31 -36 -66 -62 -37 -35 -55 hvcurveto
          -66 -38 41 -15 hhcurveto
          -23 -26 -57 -19 -62 132 -20 69 hvcurveto
          endchar
        </CharString>
        <CharString name="threequarters">
          116 19 -21 23 -21 82 69 136 69 117 69 96 70 -8 -20 hstemhm
          154 88 -75 88 216 87 hintmask 0111110011000000
          133 287 38 callgsubr
          hintmask 0111110101000000
          -44 callsubr
          hintmask 0111110011000000
          -19 callsubr
          34 -287 rmoveto
          16 hlineto
          19 15 7 20 8 hvcurveto
          hintmask 0111101011000000
          266 647 rlineto
          3 7 2 4 4 vvcurveto
          7 -6 4 -14 vhcurveto
          -16 hlineto
          -18 -16 -7 -19 -8 hvcurveto
          -266 -648 rlineto
          -2 -6 -3 -5 -4 vvcurveto
          hintmask 0111110011000000
          123 callgsubr
          hintmask 1011110011000000
          -20 callgsubr
        </CharString>
        <CharString name="tilde">
          -219 582 73 callgsubr
          -14 310 hintmask 01100000
          20 -27 callgsubr
          hintmask 10100000
          -103 callgsubr
          hintmask 01100000
          -91 callsubr
          endchar
        </CharString>
        <CharString name="tildecomb">
          -511 582 73 callgsubr
          -171 310 hintmask 01100000
          -137 -27 callgsubr
          hintmask 10100000
          -103 callgsubr
          hintmask 01100000
          -91 callsubr
          endchar
        </CharString>
        <CharString name="trademark">
          106 626 74 -74 75 hstemhm
          94 89 91 85 160 85 hintmask 10111000
          307 305 rmoveto
          19 hlineto
          23 10 6 12 hvcurveto
          203 4 vlineto
          48 -115 rlineto
          -8 3 9 -3 10 hhcurveto
          11 hlineto
          10 8 3 8 3 hvcurveto
          50 115 rlineto
          4 -203 hlineto
          -12 9 -6 24 vhcurveto
          18 hlineto
          24 10 6 12 hvcurveto
          hintmask 01111000
          360 vlineto
          12 -10 6 -24 vhcurveto
          -28 hlineto
          -13 -15 -3 -12 -5 hvcurveto
          -61 -144 -12 -32 -11 32 -57 144 rlineto
          12 -5 -13 3 -14 hhcurveto
          -29 hlineto
          -24 -9 -6 -12 hvcurveto
          -360 vlineto
          hintmask 10111000
          -12 9 -6 24 vhcurveto
          -181 hmoveto
          24 hlineto
          22 11 6 12 hvcurveto
          303 62 vlineto
          12 5 9 19 hvcurveto
          18 vlineto
          20 -5 8 -12 vhcurveto
          -213 hlineto
          -12 -5 -8 -20 hvcurveto
          -18 vlineto
          -19 5 -9 12 vhcurveto
          62 -303 hlineto
          -12 10 -6 22 vhcurveto
          endchar
        </CharString>
        <CharString name="two">
          -52 0 117 473 118 hstem
          275 150 vstem
          43 hmoveto
          357 69 callgsubr
          -201 hlineto
          173 255 rlineto
          33 47 20 50 56 vvcurveto
          106 -70 77 -136 -90 -106 -33 -59 -26 26 -43 31 vhcurveto
          17 40 43 59 hhcurveto
          46 33 -22 -48 -30 -12 -29 -27 -41 hvcurveto
          -218 -317 rlineto
          -2 -3 -1 -5 -7 vvcurveto
          -29 13 -59 15 vhcurveto
          endchar
        </CharString>
        <CharString name="u">
          -9 -18 callsubr
          35 callgsubr
          hintmask 00000000
          hintmask 01011100
          163 -9 20 callgsubr
          hintmask 00111100
          -37 7 -3 -30 34 hhcurveto
          21 94 6 28 hvcurveto
          15 -10 26 99 -55 callsubr
          hintmask 10011100
          -93 callgsubr
          hintmask 01011100
          36 callsubr
        </CharString>
        <CharString name="uacute">
          -9 -18 callsubr
          70 159 35 callgsubr
          hintmask 00111110
          219 575 rmoveto
          -107 callsubr
          hintmask 01011110
          -56 -584 -88 callgsubr
        </CharString>
        <CharString name="ubreve">
          -9 -18 callsubr
          70 91 35 callgsubr
          hintmask 00111110
          239 575 -102 callgsubr
          hintmask 01011110
          -76 -584 -88 callgsubr
        </CharString>
        <CharString name="ucircumflex">
          -9 -18 callsubr
          67 146 35 callgsubr
          hintmask 00111110
          136 572 -107 callgsubr
          hintmask 01011110
          27 -581 -88 callgsubr
        </CharString>
        <CharString name="udieresis">
          -9 -18 callsubr
          73 124 hstemhm
          46 150 -93 45 callgsubr
          -96 149 hintmask 0000000000000000
          hintmask 0011101100000000
          161 578 -101 callgsubr
          hintmask 0101110010000000
          -160 -587 20 callgsubr
          hintmask 0011110010000000
          -37 7 -3 -30 34 hhcurveto
          21 94 6 28 hvcurveto
          15 -10 26 99 -55 callsubr
          hintmask 1001110010000000
          -93 callgsubr
          hintmask 0101110010000000
          36 callsubr
        </CharString>
        <CharString name="ugrave">
          -9 -18 callsubr
          70 159 35 callgsubr
          hintmask 00111110
          255 575 -102 callsubr
          hintmask 01011110
          -92 -584 -88 callgsubr
        </CharString>
        <CharString name="uhorn">
          33 callgsubr
          hstemhm
          39 150 87 149 -9 79 hintmask 00000000
          hintmask 01011010
          495 575 rmoveto
          51 callgsubr
          hintmask 10011100
          -42 94 callsubr
          -93 callgsubr
          82 callgsubr
          27 callgsubr
          vhcurveto
          hintmask 01101100
          -20 callsubr
          hintmask 01011010
          84 callgsubr
        </CharString>
        <CharString name="uhungarumlaut">
          -9 -18 callsubr
          70 159 35 callgsubr
          hintmask 00111110
          131 575 -84 callsubr
          hintmask 01011110
          -133 -584 -88 callgsubr
        </CharString>
        <CharString name="umacron">
          -9 -18 callsubr
          92 95 35 callgsubr
          hintmask 00111110
          144 597 -84 callgsubr
          hintmask 01011110
          19 -606 -88 callgsubr
        </CharString>
        <CharString name="underscore">
          -84 -143 107 hstem
          -16 460 vstem
          13 -143 rmoveto
          402 18 callsubr
          -402 -13 callgsubr
          endchar
        </CharString>
        <CharString name="uni00A0">
          -374 endchar
        </CharString>
        <CharString name="uni00AD">
          -255 212 107 hstem
          15 225 vstem
          44 212 rmoveto
          167 18 callsubr
          -167 -13 callgsubr
          endchar
        </CharString>
        <CharString name="uni00B2">
          -231 293 68 277 68 hstem
          165 87 vstem
          29 293 rmoveto
          37 callgsubr
          -26 callsubr
          -17 7 -34 9 vhcurveto
          endchar
        </CharString>
</ttFont>
